<?xml version="1.0" encoding="UTF-8" standalone="no"?>
<svg
   version="1.1"
   id="Layer_1"
   x="0px"
   y="0px"
   viewBox="0 0 82 16"
   enable-background="new 0 0 82 16"
   xml:space="preserve"
   sodipodi:docname="miscSiemensLogo24.svg"
   inkscape:version="1.1 (c68e22c387, 2021-05-23)"
   xmlns:inkscape="http://www.inkscape.org/namespaces/inkscape"
   xmlns:sodipodi="http://sodipodi.sourceforge.net/DTD/sodipodi-0.dtd"
   xmlns="http://www.w3.org/2000/svg"
   xmlns:svg="http://www.w3.org/2000/svg"><defs
   id="defs994" /><sodipodi:namedview
   id="namedview992"
   pagecolor="#505050"
   bordercolor="#eeeeee"
   borderopacity="1"
   inkscape:pageshadow="0"
   inkscape:pageopacity="0"
   inkscape:pagecheckerboard="0"
   showgrid="false"
   inkscape:zoom="16"
   inkscape:cx="34.3125"
   inkscape:cy="9.625"
   inkscape:window-width="3440"
   inkscape:window-height="1360"
   inkscape:window-x="-11"
   inkscape:window-y="-11"
   inkscape:window-maximized="1"
   inkscape:current-layer="text337"
   inkscape:showpageshadow="2"
   inkscape:deskcolor="#505050" />
	
	
	
	
	
	
	
<g
   id="g7834"
   transform="matrix(0.24032045,0,0,0.24032045,19.718308,1.9563798)"
   style="fill:#ffffff;fill-opacity:1"><g
     id="g1210"
     transform="matrix(0.71475454,0,0,0.71475454,65.289259,-6.4658852)"
     style="fill:#ffffff;fill-opacity:1"><g
       id="g855"
       transform="translate(-205.84866,-1.2402826)"
       style="fill:#ffffff;fill-opacity:1"><path
         class="st0"
         d="m 0,29.7 h 15.4 c 0,0 0.7,3.2 4.8,2.9 h 28.5 c 0,0 2.6,0.2 2.6,-2.5 0,-2.9 -2.5,-2.6 -2.5,-2.6 H 15.3 C 9.8,27.5 1.4,23.9 1.4,13 1.4,13 2.3,0.1 13.8,0.1 h 37.5 c 0,0 13.6,-0.2 14.8,14.1 H 51.2 c 0,0 -0.7,-2.6 -2.9,-2.6 H 18.9 c 0,0 -2.8,0.1 -2.8,2.5 0,0 -0.3,2.5 2.6,2.5 H 51 c 0,0 14.9,-0.4 15.3,13.8 0,0 0.8,13.8 -15.3,13.8 H 14.8 C 14.8,44.2 0,44.3 0,29.7"
         id="path853"
         style="fill:#ffffff;fill-opacity:1" /></g><polygon
       class="st0"
       points="135,0.1 69.4,0.1 69.4,11.7 94.8,11.7 94.8,44.2 110.2,44.2 110.2,11.7 135,11.7 "
       id="polygon857"
       style="fill:#ffffff;fill-opacity:1"
       transform="translate(-205.84866,-1.2402826)" /><polygon
       class="st0"
       points="278.6,44.2 333.1,44.2 333.1,32.6 293.9,32.6 293.9,0 278.6,0 "
       id="polygon859"
       style="fill:#ffffff;fill-opacity:1"
       transform="translate(-205.84866,-1.2402826)" /><polygon
       class="st0"
       points="355.3,32.6 355.3,27.3 398.9,27.3 398.9,16.7 355.1,16.7 355.1,11.7 402.4,11.7 402.4,0.1 339.8,0 339.8,44.3 342.5,44.3 402.4,44.2 402.4,32.6 "
       id="polygon861"
       style="fill:#ffffff;fill-opacity:1"
       transform="translate(-205.84866,-1.2402826)" /><g
       id="g865"
       transform="translate(-205.84866,-1.2402826)"
       style="fill:#ffffff;fill-opacity:1"><path
         class="st0"
         d="m 475.6,37 c 0.2,-2.8 -0.2,-6.7 -1.8,-9 -2.3,-3.4 -5.2,-4.5 -5.2,-4.5 10.6,-4.5 6.2,-15.3 6.2,-15.3 -2.3,-7.4 -12.9,-8.1 -15,-8.1 h -48.4 v 44.1 h 15.5 V 30.6 c 0,0 23.3,0 28.4,0 5.4,0 5.4,5.5 5.4,5.5 -0.1,7.9 0.9,8.1 0.9,8.1 h 15.2 c -1.2,-1.3 -1.4,-4.4 -1.2,-7.2 M 458,19.2 426.9,19.1 v -6.8 l 30.8,0.1 c 0,0 3.4,0.1 3.2,3.4 -0.1,0.1 0.1,3.4 -2.9,3.4"
         id="path863"
         style="fill:#ffffff;fill-opacity:1" /></g><g
       id="g871"
       transform="translate(-205.84866,-1.2402826)"
       style="fill:#ffffff;fill-opacity:1"><path
         class="st0"
         d="m 254.4,0.1 h -50.7 v 44.1 h 50.4 c 5.8,0 19.6,-4 19.6,-22.1 0,-18.7 -14.3,-22 -19.3,-22 m -5.2,32.5 H 219 v -21 h 30.7 c 0,0 8.1,0 8.1,11 0,10.2 -8.6,10 -8.6,10"
         id="path867"
         style="fill:#ffffff;fill-opacity:1" /><path
         class="st0"
         d="m 172.4,0.1 h -19.6 l -29.2,44.1 h 17.6 l 4.9,-6.6 h 32.8 l 4.6,6.6 H 201 Z m -18.8,26.5 9,-13.9 9.2,13.9 z"
         id="path869"
         style="fill:#ffffff;fill-opacity:1" /></g></g><text
     xml:space="preserve"
     style="font-style:normal;font-variant:normal;font-weight:bold;font-stretch:normal;font-size:33.2889px;font-family:Calibri;-inkscape-font-specification:'Calibri Bold';fill:#000000;stroke-width:4.16111"
     x="9.4943724"
     y="88.345039"
     id="text329"><tspan
       sodipodi:role="line"
       id="tspan327"
       style="font-style:normal;font-variant:normal;font-weight:bold;font-stretch:normal;font-size:33.2889px;font-family:Calibri;-inkscape-font-specification:'Calibri Bold';stroke-width:4.16111"
       x="9.4943724"
       y="88.345039" /></text><text
     xml:space="preserve"
     style="font-style:normal;font-variant:normal;font-weight:bold;font-stretch:normal;font-size:33.2889px;font-family:Arial;-inkscape-font-specification:'Arial Bold';fill:#000000;stroke-width:4.16111"
     x="21.457565"
     y="44.913448"
     id="text333"><tspan
       sodipodi:role="line"
       id="tspan331"
       style="stroke-width:4.16111;-inkscape-font-specification:'Arial Bold';font-family:Arial;font-weight:bold;font-style:normal;font-stretch:normal;font-variant:normal"
       x="21.457565"
       y="44.913448" /></text><g
     aria-label="TEST/QUAL"
     id="text337"
     style="font-weight:bold;font-size:33.2889px;font-family:Bahnschrift;-inkscape-font-specification:'Bahnschrift Bold';fill:#000000;stroke-width:4.16111"><g
       id="g903"
       transform="translate(0,-2.5681905)"><path
         d="M 98.588442,38.102877 H 91.940414 V 57.136715 H 86.674007 V 38.102877 h -6.615519 v -4.274893 h 18.529954 z"
         style="font-family:System-ui;-inkscape-font-specification:'System-ui Bold';fill:#ffffff"
         id="path838" /><path
         d="M 115.70427,57.136715 H 101.72553 V 33.827984 h 13.44234 v 4.274893 h -8.19219 v 5.185136 h 7.62329 v 4.258638 h -7.62329 v 5.331426 h 8.72859 z"
         style="font-family:System-ui;-inkscape-font-specification:'System-ui Bold';fill:#ffffff"
         id="path840" /><path
         d="m 118.36998,56.242726 v -5.20139 q 1.41413,1.186567 3.07207,1.787978 1.65794,0.585156 3.3484,0.585156 0.99151,0 1.72296,-0.178798 0.7477,-0.178798 1.23533,-0.48763 0.50388,-0.325087 0.7477,-0.7477 0.24381,-0.438867 0.24381,-0.942752 0,-0.682683 -0.3901,-1.219076 -0.39011,-0.536393 -1.07279,-0.991515 -0.66643,-0.455122 -1.59293,-0.877735 -0.92649,-0.422613 -1.99928,-0.86148 -2.73073,-1.137804 -4.07984,-2.779493 -1.33286,-1.641689 -1.33286,-3.96606 0,-1.820487 0.73145,-3.120834 0.73144,-1.316602 1.98303,-2.161828 1.26784,-0.845226 2.92578,-1.23533 1.65794,-0.406359 3.51094,-0.406359 1.82049,0 3.21836,0.227561 1.41413,0.211306 2.6007,0.666428 v 4.860049 q -0.58516,-0.406359 -1.2841,-0.715191 -0.68268,-0.308833 -1.41413,-0.503885 -0.73144,-0.211306 -1.46289,-0.308832 -0.71519,-0.09753 -1.36536,-0.09753 -0.89399,0 -1.62544,0.178797 -0.73144,0.162544 -1.23533,0.471376 -0.50388,0.308833 -0.78021,0.7477 -0.27632,0.422613 -0.27632,0.959007 0,0.585156 0.30883,1.056532 0.30884,0.455122 0.87774,0.877735 0.5689,0.406358 1.38162,0.812717 0.81271,0.390104 1.83674,0.812717 1.39787,0.585157 2.50317,1.251585 1.12155,0.650174 1.91801,1.479145 0.79646,0.828972 1.21908,1.901758 0.42261,1.056533 0.42261,2.470661 0,1.950521 -0.7477,3.283378 -0.73145,1.316602 -1.99929,2.145573 -1.26783,0.812717 -2.95829,1.170313 -1.67419,0.357596 -3.54344,0.357596 -1.91802,0 -3.65723,-0.325087 -1.72296,-0.325087 -2.9908,-0.975261 z"
         style="font-family:System-ui;-inkscape-font-specification:'System-ui Bold';fill:#ffffff"
         id="path842" /><path
         d="m 154.47088,38.102877 h -6.64803 v 19.033838 h -5.2664 V 38.102877 h -6.61552 v -4.274893 h 18.52995 z"
         style="font-family:System-ui;-inkscape-font-specification:'System-ui Bold';fill:#ffffff"
         id="path844" /><path
         d="m 170.0913,33.827984 -11.36178,27.177265 h -4.58373 l 11.31302,-27.177265 z"
         style="font-family:System-ui;-inkscape-font-specification:'System-ui Bold';fill:#ffffff"
         id="path846" /><path
         d="m 182.21705,57.543074 q -5.00634,0 -8.15968,-3.250869 -3.15335,-3.283378 -3.15335,-8.501023 0,-5.510223 3.20211,-8.93989 3.18585,-3.413412 8.48477,-3.413412 4.99008,0 8.06215,3.267123 3.08833,3.250869 3.08833,8.614803 0,5.477714 -3.20211,8.858618 -0.11378,0.113781 -0.2113,0.227561 -0.0975,0.09753 -0.21131,0.195052 l 5.90033,5.672767 h -7.34697 l -3.08832,-3.137089 q -1.52791,0.406359 -3.36465,0.406359 z m 0.22756,-19.586486 q -2.74699,0 -4.38867,2.080556 -1.62544,2.064302 -1.62544,5.477714 0,3.462176 1.62544,5.477715 1.62543,2.015538 4.25863,2.015538 2.71448,0 4.30741,-1.950521 1.59292,-1.98303 1.59292,-5.445206 0,-3.608464 -1.54416,-5.640257 -1.52791,-2.015539 -4.22613,-2.015539 z"
         style="font-family:System-ui;-inkscape-font-specification:'System-ui Bold';fill:#ffffff"
         id="path848" /><path
         d="m 216.61124,47.042767 q 0,10.500307 -9.78512,10.500307 -9.49253,0 -9.49253,-10.256492 V 33.827984 H 202.6 v 13.523615 q 0,5.656512 4.42118,5.656512 4.33991,0 4.33991,-5.46146 V 33.827984 h 5.25015 z"
         style="font-family:System-ui;-inkscape-font-specification:'System-ui Bold';fill:#ffffff"
         id="path850" /><path
         d="m 241.44788,57.136715 h -5.72153 l -1.65794,-5.185136 h -8.28972 l -1.64169,5.185136 h -5.68902 l 8.48477,-23.308731 h 6.22541 z m -8.58229,-9.216214 -2.50317,-7.834594 q -0.27633,-0.877735 -0.39011,-2.09681 h -0.13003 q -0.0813,1.024023 -0.40636,2.031793 l -2.53568,7.899611 z"
         style="font-family:System-ui;-inkscape-font-specification:'System-ui Bold';fill:#ffffff"
         id="path852" /><path
         d="M 258.23863,57.136715 H 244.35742 V 33.827984 h 5.25015 v 19.050093 h 8.63106 z"
         style="font-family:System-ui;-inkscape-font-specification:'System-ui Bold';fill:#ffffff"
         id="path854" /></g></g></g></svg>
