<?xml version="1.0" encoding="UTF-8" standalone="no"?>
<svg
   version="1.1"
   id="Layer_1"
   x="0px"
   y="0px"
   viewBox="0 0 24 24"
   enable-background="new 0 0 24 24"
   xml:space="preserve"
   sodipodi:docname="cmdEditSAP24.svg"
   inkscape:version="1.1 (c68e22c387, 2021-05-23)"
   xmlns:inkscape="http://www.inkscape.org/namespaces/inkscape"
   xmlns:sodipodi="http://sodipodi.sourceforge.net/DTD/sodipodi-0.dtd"
   xmlns="http://www.w3.org/2000/svg"
   xmlns:svg="http://www.w3.org/2000/svg"><defs
   id="defs932" /><sodipodi:namedview
   id="namedview930"
   pagecolor="#505050"
   bordercolor="#eeeeee"
   borderopacity="1"
   inkscape:pageshadow="0"
   inkscape:pageopacity="0"
   inkscape:pagecheckerboard="0"
   showgrid="false"
   inkscape:zoom="18.1875"
   inkscape:cx="17.37457"
   inkscape:cy="16.769759"
   inkscape:window-width="3440"
   inkscape:window-height="1360"
   inkscape:window-x="-11"
   inkscape:window-y="-11"
   inkscape:window-maximized="1"
   inkscape:current-layer="Layer_1" />
<g
   id="g1113"
   transform="scale(0.73150697)"><path
     d="M -5.214784e-7,11.877416 H 12.117416 L 24,-2.10079e-7 H -5.214784e-7 V 11.877416"
     style="fill:#014185;fill-rule:nonzero;stroke:none;stroke-width:0.0322855"
     id="path25030" /><path
     d="m 14.230918,2.2323282 -2.348336,-4.681e-4 v 5.61816 L 9.8160459,2.2318601 H 7.7964765 L 6.0117408,6.9304117 C 5.8238739,5.74685 4.6027389,5.3377697 3.6164376,5.0315466 3.0058701,4.8258322 2.3013692,4.5233666 2.3483359,4.1927208 c 0,-0.2742856 0.3287671,-0.5260272 1.0332681,-0.488454 0.4696673,0.023953 0.8923678,0.062936 1.7377689,0.4659099 L 5.9647741,2.7391006 C 5.1663397,2.3520949 4.1330716,2.107398 3.2876705,2.1064589 v 0 c -1.033268,0 -1.8786691,0.3250097 -2.39530317,0.863718 -0.3287671,0.3747946 -0.56360075,0.8505674 -0.56360075,1.3780038 0,0.7256361 0.28180038,1.2403914 0.79843442,1.6504108 0.516634,0.3452056 1.0802347,0.5701761 1.6438355,0.7350295 0.6575342,0.2033659 1.1741682,0.3794912 1.1741682,0.7571035 0,0.1394912 -0.046967,0.2663013 -0.1409002,0.3682193 C 3.6164376,8.0275544 3.381604,8.091429 3.0058701,8.0994136 2.3483359,8.1116246 1.8786686,8.006889 1.0802342,7.5405094 L 0.32876658,8.989433 C 1.127201,9.4384349 2.0665356,9.7023879 3.0058701,9.7023879 l 0.1409002,-9.395e-4 c 0.7984344,-0.01503 1.5029354,-0.2522114 2.0195694,-0.6833662 0.046967,-0.025362 0.046967,-0.048846 0.093933,-0.072329 L 5.0254395,9.5765166 H 7.185909 L 7.5146761,8.4831313 C 7.89041,8.6090022 8.3131105,8.68227 8.7827778,8.68227 c 0.4696673,0 0.8454011,-0.07092 1.2211352,-0.190215 l 0.375734,1.0844616 h 3.475538 V 7.3084933 h 0.798434 c 1.831702,0 2.911937,-0.9398043 2.911937,-2.5160075 0,-1.7546772 -1.033268,-2.5601566 -3.334638,-2.5601576 z M 8.7827778,7.0421909 c -0.2818004,0 -0.516634,-0.048845 -0.7514677,-0.1343245 L 8.7827778,4.5445003 v 0 L 9.5342455,6.9153808 C 9.2994118,6.9961637 9.0645782,7.0421909 8.7827778,7.0421909 Z M 14.371819,5.682974 H 13.855185 V 3.7775337 h 0.516634 c 0.704501,0 1.268101,0.2306065 1.268101,0.943092 0,0.732681 -0.5636,0.9623483 -1.268101,0.9623483"
     style="fill:#ffffff;fill-rule:evenodd;stroke:none;stroke-width:0.0322855"
     id="path25032" /></g><path
   class="aw-theme-iconOutline"
   fill="#464646"
   d="M 23.448005,6.1512262 21.699933,4.4031538 c -0.736032,-0.7360315 -1.932084,-0.7360315 -2.57611,0 L 5.783262,17.651709 c -0.092011,0.09201 -0.092011,0.09201 -0.092011,0.184021 l -1.840077,5.52023 c -0.092011,0.183994 0,0.368017 0.09201,0.460019 C 4.0351948,23.907988 4.219196,24 4.311201,24 c 0.092011,0 0.092011,0 0.1839935,0 l 5.5202305,-1.840077 c 0.09201,0 0.09201,-0.09201 0.183995,-0.09201 L 23.447977,8.7273358 c 0.73603,-0.736032 0.73603,-1.8400777 0,-2.5761096 z M 6.7953058,18.019726 18.111782,6.7032507 21.147908,9.7393775 9.8314325,21.055852 Z M 6.3352863,18.84776 9.0033981,21.515871 5.0472305,22.803924 Z M 22.803979,8.0833087 21.791934,9.0953505 18.75581,6.0592237 19.767849,5.0471805 c 0.368015,-0.3680144 0.920039,-0.3680144 1.288057,0 l 1.748072,1.7480727 c 0.368015,0.3680174 0.368015,0.9200384 1e-6,1.2880555 z"
   id="path927"
   style="stroke-width:0.920039" />
</svg>
