<?xml version="1.0" encoding="UTF-8" standalone="no"?>
<svg
   version="1.1"
   id="Layer_1"
   x="0px"
   y="0px"
   viewBox="0 0 64 64"
   enable-background="new 0 0 64 64"
   xml:space="preserve"
   sodipodi:docname="new_homeSR5ArticleRequestForm64.svg"
   inkscape:version="1.1 (c68e22c387, 2021-05-23)"
   xmlns:inkscape="http://www.inkscape.org/namespaces/inkscape"
   xmlns:sodipodi="http://sodipodi.sourceforge.net/DTD/sodipodi-0.dtd"
   xmlns="http://www.w3.org/2000/svg"
   xmlns:svg="http://www.w3.org/2000/svg"><defs
   id="defs1349"><linearGradient
     id="SVGID_1_"
     gradientUnits="userSpaceOnUse"
     x1="-0.5"
     y1="-438.5"
     x2="41"
     y2="-480"
     gradientTransform="matrix(1.3333333,0,0,-1.3333333,-6.6666655,-575.99998)"><stop
       offset="0"
       style="stop-color:#FFFFFF"
       id="stop1065" /><stop
       offset="0.2323"
       style="stop-color:#FAFAFA"
       id="stop1067" /><stop
       offset="0.4964"
       style="stop-color:#EDEDED"
       id="stop1069" /><stop
       offset="0.775"
       style="stop-color:#D6D6D6"
       id="stop1071" /><stop
       offset="1"
       style="stop-color:#BEBEBE"
       id="stop1073" /></linearGradient><linearGradient
     id="SVGID_2_"
     gradientUnits="userSpaceOnUse"
     x1="25.25"
     y1="-435.75"
     x2="38.25"
     y2="-448.75"
     gradientTransform="matrix(1,0,0,-1,0,-432)"><stop
       offset="0"
       style="stop-color:#FFFFFF"
       id="stop1078" /><stop
       offset="0.2214"
       style="stop-color:#F8F8F8"
       id="stop1080" /><stop
       offset="0.5415"
       style="stop-color:#E5E5E5"
       id="stop1082" /><stop
       offset="0.92"
       style="stop-color:#C6C6C6"
       id="stop1084" /><stop
       offset="1"
       style="stop-color:#BEBEBE"
       id="stop1086" /></linearGradient><linearGradient
     id="SVGID_3_"
     gradientUnits="userSpaceOnUse"
     x1="12.6082"
     y1="25.053699"
     x2="22.3918"
     y2="34.837399"><stop
       offset="0"
       style="stop-color:#AFD7E1"
       id="stop5768" /><stop
       offset="0.1588"
       style="stop-color:#A4D0DC"
       id="stop5770" /><stop
       offset="0.7059"
       style="stop-color:#80BCCE"
       id="stop5772" /><stop
       offset="1"
       style="stop-color:#73B4C8"
       id="stop5774" /></linearGradient><linearGradient
     id="SVGID_4_"
     gradientUnits="userSpaceOnUse"
     x1="27.0147"
     y1="27.0147"
     x2="43.985298"
     y2="43.985298"
     gradientTransform="matrix(0.95375992,0,0,0.95759403,18.219524,18.035486)"><stop
       offset="0"
       style="stop-color:#FFFFFF"
       id="stop5781" /><stop
       offset="0.2214"
       style="stop-color:#F8F8F8"
       id="stop5783" /><stop
       offset="0.5415"
       style="stop-color:#E5E5E5"
       id="stop5785" /><stop
       offset="0.92"
       style="stop-color:#C6C6C6"
       id="stop5787" /><stop
       offset="1"
       style="stop-color:#BEBEBE"
       id="stop5789" /></linearGradient><linearGradient
     id="SVGID_3_-3"
     gradientUnits="userSpaceOnUse"
     x1="12.6082"
     y1="25.053699"
     x2="22.3918"
     y2="34.837399"><stop
       offset="0"
       style="stop-color:#AFD7E1"
       id="stop5768-9" /><stop
       offset="0.1588"
       style="stop-color:#A4D0DC"
       id="stop5770-7" /><stop
       offset="0.7059"
       style="stop-color:#80BCCE"
       id="stop5772-2" /><stop
       offset="1"
       style="stop-color:#73B4C8"
       id="stop5774-3" /></linearGradient></defs><sodipodi:namedview
   id="namedview1347"
   pagecolor="#505050"
   bordercolor="#eeeeee"
   borderopacity="1"
   inkscape:pageshadow="0"
   inkscape:pageopacity="0"
   inkscape:pagecheckerboard="0"
   showgrid="false"
   inkscape:zoom="11.313709"
   inkscape:cx="40.12831"
   inkscape:cy="31.819805"
   inkscape:window-width="3440"
   inkscape:window-height="1360"
   inkscape:window-x="-11"
   inkscape:window-y="-11"
   inkscape:window-maximized="1"
   inkscape:current-layer="layer1" />
	



<g
   inkscape:groupmode="layer"
   id="layer2"
   inkscape:label="Layer 2"
   style="display:inline" /><g
   inkscape:groupmode="layer"
   id="layer1"
   inkscape:label="Layer 1"
   style="display:inline"><g
     id="g5218"
     transform="matrix(0.98478774,0,0,0.98478774,0.48679161,0.48679191)"><path
       id="polygon45"
       style="fill:none;stroke:#ffffff;stroke-width:2;stroke-miterlimit:6.66667;stroke-dasharray:none;stroke-opacity:1"
       d="m 41.003253,21.043429 -17.164005,9.935409 v 19.866905 l 17.164005,9.935409 3.504774,-2.028154 A 10.318156,10.359634 0 0 1 42.859297,53.134016 10.318156,10.359634 0 0 1 53.17804,42.774202 10.318156,10.359634 0 0 1 58.167258,44.07089 V 30.978838 Z" /><path
       id="polygon1076"
       style="display:inline;fill:none;stroke:#ffffff;stroke-width:2;stroke-miterlimit:6.66667;stroke-dasharray:none;stroke-opacity:1"
       d="M 0.5047288,0.50568855 V 63.259136 H 48.570201 v -0.876193 a 10.318156,10.359634 0 0 1 -4.062174,-3.631901 l -3.504774,2.03011 -17.164005,-9.935409 V 30.978838 l 17.164005,-9.935409 7.566948,4.380968 V 17.863316 L 31.214528,0.50568855 Z" /><polygon
       fill="url(#SVGID_2_)"
       stroke="#464646"
       stroke-linejoin="round"
       stroke-miterlimit="10"
       points="28.5,13.5 41.5,13.5 28.5,0.5 "
       id="polygon1089"
       style="display:inline;fill:none;stroke:#ffffff;stroke-width:1.49796;stroke-miterlimit:6.66667;stroke-dasharray:none;stroke-opacity:1"
       transform="matrix(1.335152,0,0,1.335152,-6.8379541,-0.16123462)" /><path
       id="rect1091"
       style="display:inline;fill:none;stroke:#ffffff;stroke-width:2;stroke-miterlimit:6.66667;stroke-dasharray:none;stroke-opacity:1"
       d="m 5.8459887,24.538425 v 6.677063 H 23.839248 v -0.23665 l 11.126484,-6.440413 z" /><path
       id="rect1093"
       style="display:inline;fill:none;stroke:#ffffff;stroke-width:2;stroke-miterlimit:6.66667;stroke-dasharray:none;stroke-opacity:1"
       d="m 5.8459887,37.890596 v 6.675109 H 23.839248 v -6.675109 z" /><path
       id="rect1095"
       style="display:inline;fill:none;stroke:#ffffff;stroke-width:2;stroke-miterlimit:6.66667;stroke-dasharray:none;stroke-opacity:1"
       d="m 5.8459887,51.242768 v 6.675108 H 36.057063 L 24.52573,51.242768 Z" /><ellipse
       fill="url(#SVGID_4_)"
       stroke="#464646"
       stroke-miterlimit="10"
       cx="53.177116"
       cy="53.134678"
       id="circle5792"
       style="display:inline;fill:none;stroke:#ffffff;stroke-width:2;stroke-miterlimit:6.66667;stroke-dasharray:none;stroke-opacity:1"
       rx="10.318156"
       ry="10.359634" /><path
       fill="#5A5A5A"
       d="m 56.874457,55.638256 c 0,-2.244587 -2.57954,-3.02156 -3.439386,-3.280551 -1.805678,-0.604312 -2.149615,-1.035963 -2.149615,-1.640276 0,-0.431652 0.171969,-0.776972 0.515907,-1.122293 0.343939,-0.345321 0.859847,-0.517982 1.375754,-0.517982 0,0 0,0 0,0 0.687877,0 1.375754,0.345321 1.719693,0.863303 0.257954,0.431652 0.773862,0.517982 1.203785,0.258991 0.429923,-0.258991 0.515907,-0.776973 0.257954,-1.208624 -0.601893,-0.863303 -1.633708,-1.467615 -2.751509,-1.640276 v -1.553945 h -0.859846 v 1.726606 c -0.773861,0.08633 -1.461738,0.431651 -2.06363,0.863303 -0.687877,0.604312 -1.117801,1.467615 -1.117801,2.417248 0,2.244587 2.40757,2.93523 3.439385,3.280551 1.977647,0.604312 2.149616,1.208624 2.149616,1.640276 0,0.431651 -0.171969,0.776971 -0.515907,1.122294 -0.34394,0.345321 -0.859848,0.51798 -1.375755,0.51798 0,0 0,0 0,0 -0.773862,0 -1.891661,-0.51798 -2.579538,-1.122293 -0.343939,-0.345321 -0.859846,-0.25899 -1.203786,0.08633 -0.343938,0.34532 -0.257953,0.863303 0.08599,1.208623 0.859847,0.776974 2.149615,1.381286 3.267415,1.467615 v 1.467616 h 0.859846 v -1.553945 c 0.859847,-0.08633 1.547724,-0.345322 2.149616,-0.863303 0.687878,-0.604312 1.031817,-1.467615 1.031817,-2.417249 z"
       id="path5794"
       style="display:inline;fill:#ffffff;fill-opacity:1;stroke-width:0.861573" /><polyline
       fill="none"
       stroke="#6e6e6e"
       stroke-linejoin="round"
       stroke-miterlimit="10"
       points="34.5,10.3 17.5,20.2 0.5,10.3 "
       id="polyline32"
       transform="matrix(1.0096358,0,0,1.0136945,23.335014,20.537195)"
       style="stroke:#ffffff;stroke-width:1.97694;stroke-miterlimit:6.66667;stroke-dasharray:none;stroke-opacity:1" /><line
       fill="url(#SVGID_3_)"
       stroke="#6e6e6e"
       stroke-linejoin="round"
       stroke-miterlimit="10"
       x1="41.003639"
       y1="41.013824"
       x2="41.003639"
       y2="60.780865"
       id="line43"
       style="fill:url(#SVGID_3_);stroke:#ffffff;stroke-width:2;stroke-miterlimit:6.66667;stroke-dasharray:none;stroke-opacity:1" /></g></g></svg>
