<?xml version="1.0" encoding="UTF-8" standalone="no"?>
<svg
   version="1.1"
   id="Layer_1"
   x="0px"
   y="0px"
   viewBox="0 0 48 48"
   enable-background="new 0 0 48 48"
   xml:space="preserve"
   sodipodi:docname="typeElectricAssemblyRevision48.svg"
   inkscape:version="1.1 (c68e22c387, 2021-05-23)"
   xmlns:inkscape="http://www.inkscape.org/namespaces/inkscape"
   xmlns:sodipodi="http://sodipodi.sourceforge.net/DTD/sodipodi-0.dtd"
   xmlns:xlink="http://www.w3.org/1999/xlink"
   xmlns="http://www.w3.org/2000/svg"
   xmlns:svg="http://www.w3.org/2000/svg"><defs
   id="defs4238"><linearGradient
     inkscape:collect="always"
     xlink:href="#linearGradient2389"
     id="linearGradient2391"
     x1="-4.1721611"
     y1="19.096003"
     x2="3.2743537"
     y2="26.206358"
     gradientUnits="userSpaceOnUse" /><linearGradient
     inkscape:collect="always"
     id="linearGradient2389"><stop
       style="stop-color:#d9d9d9;stop-opacity:1"
       offset="0"
       id="stop2385" /><stop
       style="stop-color:#6e6e6e;stop-opacity:1"
       offset="1"
       id="stop2387" /></linearGradient><linearGradient
     inkscape:collect="always"
     xlink:href="#linearGradient2389"
     id="linearGradient2017"
     x1="19.302485"
     y1="-8.8500042"
     x2="26.361221"
     y2="-1.6738793"
     gradientUnits="userSpaceOnUse" /><linearGradient
     inkscape:collect="always"
     xlink:href="#linearGradient2389"
     id="linearGradient3423"
     x1="54.385471"
     y1="22.449524"
     x2="61.159611"
     y2="29.710627"
     gradientUnits="userSpaceOnUse" /><linearGradient
     inkscape:collect="always"
     xlink:href="#linearGradient2389"
     id="linearGradient2573"
     x1="32.716568"
     y1="36.895458"
     x2="40.053349"
     y2="43.821659"
     gradientUnits="userSpaceOnUse" /><linearGradient
     inkscape:collect="always"
     xlink:href="#linearGradient2579"
     id="linearGradient2581"
     x1="101.51823"
     y1="346.70297"
     x2="310.54907"
     y2="-35.231628"
     gradientUnits="userSpaceOnUse" /><linearGradient
     inkscape:collect="always"
     id="linearGradient2579"><stop
       style="stop-color:#008000;stop-opacity:1"
       offset="0"
       id="stop2575" /><stop
       style="stop-color:#00cf00;stop-opacity:1"
       offset="1"
       id="stop2577" /></linearGradient><linearGradient
     inkscape:collect="always"
     xlink:href="#linearGradient2579"
     id="linearGradient5565"
     gradientUnits="userSpaceOnUse"
     x1="101.51823"
     y1="346.70297"
     x2="310.54907"
     y2="-35.231628" /><linearGradient
     inkscape:collect="always"
     xlink:href="#linearGradient2579"
     id="linearGradient5567"
     gradientUnits="userSpaceOnUse"
     x1="101.51823"
     y1="346.70297"
     x2="310.54907"
     y2="-35.231628" /><linearGradient
     inkscape:collect="always"
     xlink:href="#linearGradient2579"
     id="linearGradient5569"
     gradientUnits="userSpaceOnUse"
     x1="101.51823"
     y1="346.70297"
     x2="310.54907"
     y2="-35.231628" /><linearGradient
     inkscape:collect="always"
     xlink:href="#linearGradient2579"
     id="linearGradient5571"
     gradientUnits="userSpaceOnUse"
     x1="101.51823"
     y1="346.70297"
     x2="310.54907"
     y2="-35.231628" /></defs><sodipodi:namedview
   id="namedview4236"
   pagecolor="#505050"
   bordercolor="#eeeeee"
   borderopacity="1"
   inkscape:pageshadow="0"
   inkscape:pageopacity="0"
   inkscape:pagecheckerboard="0"
   showgrid="false"
   inkscape:zoom="12.403831"
   inkscape:cx="28.74112"
   inkscape:cy="23.742665"
   inkscape:window-width="1920"
   inkscape:window-height="1027"
   inkscape:window-x="-8"
   inkscape:window-y="-8"
   inkscape:window-maximized="1"
   inkscape:current-layer="Layer_1" />


<linearGradient
   id="SVGID_1_"
   gradientUnits="userSpaceOnUse"
   x1="23.4998"
   y1="21.5768"
   x2="33.5002"
   y2="31.5771">
	<stop
   offset="0"
   style="stop-color:#F2F2F2"
   id="stop4180" />
	<stop
   offset="0.5"
   style="stop-color:#CCCCCC"
   id="stop4182" />
	<stop
   offset="0.6296"
   style="stop-color:#C7C7C7"
   id="stop4184" />
	<stop
   offset="0.7792"
   style="stop-color:#B9B9B9"
   id="stop4186" />
	<stop
   offset="0.9383"
   style="stop-color:#A2A2A2"
   id="stop4188" />
	<stop
   offset="0.99"
   style="stop-color:#999999"
   id="stop4190" />
</linearGradient>

<linearGradient
   id="SVGID_2_"
   gradientUnits="userSpaceOnUse"
   x1="3.7992"
   y1="13.9834"
   x2="31.0927"
   y2="41.2769">
	<stop
   offset="0"
   style="stop-color:#F2F2F2"
   id="stop4195" />
	<stop
   offset="0.5"
   style="stop-color:#CCCCCC"
   id="stop4197" />
	<stop
   offset="0.6296"
   style="stop-color:#C7C7C7"
   id="stop4199" />
	<stop
   offset="0.7792"
   style="stop-color:#B9B9B9"
   id="stop4201" />
	<stop
   offset="0.9383"
   style="stop-color:#A2A2A2"
   id="stop4203" />
	<stop
   offset="0.99"
   style="stop-color:#999999"
   id="stop4205" />
</linearGradient>

	
	

<linearGradient
   id="SVGID_3_"
   gradientUnits="userSpaceOnUse"
   x1="13.4998"
   y1="4.2828"
   x2="23.5002"
   y2="14.2831">
	<stop
   offset="0"
   style="stop-color:#FFFFFF"
   id="stop4216" />
	<stop
   offset="0.2214"
   style="stop-color:#F8F8F8"
   id="stop4218" />
	<stop
   offset="0.5415"
   style="stop-color:#E5E5E5"
   id="stop4220" />
	<stop
   offset="0.92"
   style="stop-color:#C6C6C6"
   id="stop4222" />
	<stop
   offset="1"
   style="stop-color:#BEBEBE"
   id="stop4224" />
</linearGradient>




<g
   id="g4399"
   style="fill:#464646;fill-opacity:1"
   transform="matrix(0.72162872,0,0,0.72162872,3.3654675,11.417138)"><path
     style="fill:#bebebe;fill-opacity:1;stroke:none;stroke-width:0.0595682;stroke-opacity:1"
     d="m 39.616486,17.204992 c -0.156865,0.02369 -1.704934,0.03573 -3.439769,0.02681 -2.996023,-0.01544 -3.161988,-0.024 -3.308659,-0.170668 -0.141969,-0.141969 -0.15473,-0.247341 -0.158015,-1.316342 l -0.0036,-1.161935 3.730294,8.43e-4 3.730293,8.08e-4 -0.0053,1.161522 c -0.006,1.308804 -0.03328,1.381781 -0.545225,1.458957 z"
     id="path10755" /><path
     style="fill:#a0a0a0;fill-opacity:1;stroke:none;stroke-width:0.0587659;stroke-opacity:1"
     d="m 36.430932,12.960363 -3.67758,-3.59e-4 0.0017,-0.850753 0.0017,-0.850771 0.289573,-0.167527 c 0.159199,-0.09207 0.34593,-0.223524 0.414796,-0.292032 0.108999,-0.108172 0.522736,-0.124182 3.177998,-0.122818 l 3.052614,0.0016 0.20983,0.259366 c 0.208214,0.257392 0.20983,0.266187 0.208448,1.141565 l -0.0014,0.882144 z"
     id="path10794" /><path
     style="fill:#ffbd00;fill-opacity:1;stroke:none;stroke-width:0.0613142;stroke-opacity:1"
     d="M 36.491632,9.1411367 33.500509,9.140688 V 7.8186385 6.4965891 h 3.0125 3.012499 l 0.0011,1.3000631 c 5.92e-4,0.7150303 -0.009,1.31015 -0.02138,1.3224982 -0.01256,0.012564 -1.368463,0.022255 -3.013595,0.021986 z"
     id="path10833" /><path
     style="fill:#6e6e6e;fill-opacity:1;stroke:none;stroke-width:0.0577874;stroke-opacity:1"
     d="M 36.506368,4.9448412 C 33.956819,4.9444463 33.694868,4.932475 33.659151,4.8145208 33.606743,4.6411431 33.405313,4.4479688 33.082734,4.2596405 l -0.266062,-0.1540656 0.0018,-0.6839623 0.0018,-0.6839623 h 3.615086 3.615085 v 0.6962746 0.6962746 l -0.287042,0.218122 c -0.210081,0.159468 -0.307162,0.2673175 -0.361939,0.4014249 -0.04128,0.1008678 -0.07754,0.1859413 -0.08059,0.1889924 -0.0036,0.00359 -1.2693,0.00555 -2.813618,0.00529 z"
     id="path10872" /><path
     style="fill:#d9d9d9;fill-opacity:1;stroke:none;stroke-width:0.0584834;stroke-opacity:1"
     d="m 36.434271,1.1068235 -3.662379,-8.076e-4 0.0052,-1.14037986 c 0.0046,-1.01666434 0.02052,-1.15565354 0.146097,-1.28123574 0.130302,-0.1303024 0.391822,-0.1409097 3.512315,-0.1408559 3.124226,-1.79e-5 3.381851,0.010356 3.512764,0.1412687 0.126174,0.1261744 0.141628,0.2629561 0.144786,1.2820434 l 0.0036,1.1407747 z"
     id="path10911" /><path
     style="fill:#464646;fill-opacity:1;stroke-width:1.84062"
     d="m 37.144557,-2.3650934 v -6.5830594 l -1.836437,0.0013 0.0013,6.5817578 -1.797391,-0.0013 c -0.819954,0 -1.488933,0.6689783 -1.491536,1.49153534 l -0.0013,5.21777086 c 0,0.1717999 0.09111,0.3357907 0.24078,0.4255951 l 0.583078,0.3514089 -0.0013,5.1526948 -0.583079,0.351409 c -0.148372,0.09111 -0.24078,0.251193 -0.24078,0.425595 l 0.0039,5.553562 c -0.0013,0.821256 0.667677,1.490234 1.490234,1.490234 l 2.005633,0.0013 v 7.080238 h 1.835135 V 18.09471 h 2.004332 c 0.821256,-0.0013 1.490234,-0.670279 1.491536,-1.491535 l -0.0013,-5.550959 c 0,-0.124945 -0.04425,-0.242081 -0.127548,-0.333187 l -0.542732,-0.602601 -0.0013,-5.0251471 0.469847,-0.3475043 c 0.127548,-0.093709 0.200433,-0.2420817 0.200433,-0.3982634 l 0.0013,-5.21777083 C 40.846064,-1.6935121 40.177085,-2.3624904 39.35583,-2.3637919 Z m 2.708451,18.9669674 c -0.0013,0.27462 -0.22386,0.497179 -0.497178,0.497179 h -5.843799 c -0.272017,0.0013 -0.495877,-0.222559 -0.497179,-0.497179 l 0.0013,-1.937954 h 6.835553 z m 0,-5.359635 v 1.681556 h -6.835553 l -0.0013,-1.591752 0.583078,-0.351409 c 0.0898,-0.05336 0.15488,-0.134056 0.196529,-0.227765 l 5.616034,-0.0013 z m -0.671581,-2.2307959 -5.342716,0.0013 V 6.6231628 l 5.340113,-0.0013 z M 39.85431,4.0930205 39.384463,4.4405248 C 39.256915,4.5342339 39.182729,4.681305 39.18403,4.8387882 l -0.0013,0.04295 h -5.341415 l 0.0013,-0.04295 C 33.841314,4.6656868 33.750208,4.501696 33.599232,4.413193 l -0.580475,-0.3514088 -0.0013,-1.2898007 6.836855,-0.0013 z m -0.0013,-4.96788006 -0.0013,1.90671846 -6.836855,-0.0013 0.0013,-1.90411544 c -0.0013,-0.27461956 0.22386,-0.49717846 0.497178,-0.49717846 l 5.842498,-0.0013 c 0.273318,0.0026 0.497178,0.2238604 0.497178,0.49717844 z"
     id="path7658" /><path
     style="fill:#bebebe;fill-opacity:1;stroke:none;stroke-width:0.0595682;stroke-opacity:1"
     d="m 3.9991217,34.855796 c -0.023691,-0.156865 -0.035734,-1.704934 -0.026814,-3.439769 0.015435,-2.996023 0.023996,-3.161988 0.1706675,-3.308659 0.1419687,-0.141969 0.2473414,-0.15473 1.316342,-0.158015 l 1.1619354,-0.0036 -8.436e-4,3.730294 -8.076e-4,3.730293 -1.1615226,-0.0053 C 4.149275,35.39504 4.0762984,35.36776 3.999122,34.855815 Z"
     id="path1100" /><path
     style="fill:#bdff19;fill-opacity:1;stroke:none;stroke-width:0.0587659;stroke-opacity:1"
     d="m 8.2437512,31.670242 3.59e-4,-3.67758 0.850753,0.0017 0.8507709,0.0017 0.1675269,0.289573 c 0.09207,0.159199 0.223524,0.34593 0.292032,0.414796 0.108172,0.108999 0.124182,0.522736 0.122818,3.177998 l -0.0016,3.052614 -0.259366,0.20983 c -0.257392,0.208214 -0.266187,0.20983 -1.1415646,0.208448 l -0.8821441,-0.0014 z"
     id="path1102" /><path
     style="fill:#d9d9d9;fill-opacity:1;stroke:none;stroke-width:0.0613142;stroke-opacity:1"
     d="m 12.062977,31.730942 4.49e-4,-2.991123 h 1.322049 1.32205 v 3.0125 3.012499 l -1.300063,0.0011 c -0.71503,5.92e-4 -1.31015,-0.009 -1.322498,-0.02138 -0.01256,-0.01256 -0.02226,-1.368463 -0.02199,-3.013595 z"
     id="path1104" /><path
     style="fill:#6e6e6e;fill-opacity:1;stroke:none;stroke-width:0.0577874;stroke-opacity:1"
     d="m 16.259273,31.745678 c 3.95e-4,-2.549549 0.01237,-2.8115 0.13032,-2.847217 0.173378,-0.05241 0.366552,-0.253838 0.554881,-0.576417 l 0.154065,-0.266062 0.683962,0.0018 0.683963,0.0018 v 3.615086 3.615085 h -0.696275 -0.696275 l -0.218122,-0.287042 c -0.159467,-0.210081 -0.267317,-0.307162 -0.401424,-0.361939 -0.100868,-0.04128 -0.185942,-0.07754 -0.188993,-0.08059 -0.0036,-0.0036 -0.0055,-1.2693 -0.0053,-2.813618 z"
     id="path1106" /><path
     style="fill:#d9d9d9;fill-opacity:1;stroke:none;stroke-width:0.0584834;stroke-opacity:1"
     d="m 20.09729,31.673581 8.08e-4,-3.662379 1.14038,0.0052 c 1.016664,0.0046 1.155654,0.02051 1.281236,0.146097 0.130302,0.130302 0.140909,0.391822 0.140856,3.512315 1.8e-5,3.124226 -0.01036,3.381851 -0.141269,3.512764 -0.126175,0.126174 -0.262956,0.141628 -1.282044,0.144786 l -1.140774,0.0036 z"
     id="path1108" /><path
     style="fill:#464646;fill-opacity:1;stroke-width:1.84062"
     d="m 23.569207,32.383866 h 6.583059 l -0.0013,-1.836437 -6.581757,0.0013 0.0013,-1.797391 c 0,-0.819954 -0.668978,-1.488933 -1.491535,-1.491536 l -5.217771,-0.0013 c -0.1718,0 -0.335791,0.09111 -0.425595,0.24078 l -0.351409,0.583078 -5.152695,-0.0013 -0.351409,-0.583079 c -0.09111,-0.148372 -0.251192,-0.24078 -0.425595,-0.24078 l -5.5535618,0.0039 c -0.8212555,-0.0013 -1.4902339,0.667677 -1.4902339,1.490234 l -0.0013,2.005633 h -7.0802378 v 1.835135 h 7.0802378 v 2.004332 c 0.0013,0.821256 0.6702799,1.490234 1.4915354,1.491536 l 5.5509593,-0.0013 c 0.124945,0 0.242081,-0.04425 0.333187,-0.127548 l 0.602601,-0.542732 5.025146,-0.0013 0.347506,0.469847 c 0.09371,0.127548 0.242081,0.200433 0.398263,0.200433 l 5.217771,0.0013 c 0.821255,-0.0013 1.490234,-0.67028 1.491534,-1.491535 z M 4.6022387,35.092317 C 4.3276192,35.091016 4.1050603,34.868457 4.1050603,34.595139 V 28.75134 c -0.0013,-0.272017 0.2225589,-0.495877 0.4971784,-0.497179 l 1.9379548,0.0013 v 6.835553 z m 5.3596359,0 H 8.2803181 v -6.835553 l 1.591752,-0.0013 0.3514089,0.583078 c 0.05336,0.08981 0.134056,0.15488 0.227765,0.196529 l 0.0013,5.616034 z M 12.19267,34.420736 12.19137,29.07802 h 2.38958 l 0.0013,5.340113 z m 4.918423,0.672883 -0.347505,-0.469847 c -0.09371,-0.127548 -0.24078,-0.201734 -0.398263,-0.200433 l -0.04295,-0.0013 v -5.341415 l 0.04295,0.0013 c 0.173101,-0.0013 0.337092,-0.09241 0.425595,-0.243383 l 0.351409,-0.580475 1.289801,-0.0013 0.0013,6.836855 z m 4.96788,-0.0013 -1.906719,-0.0013 0.0013,-6.836855 1.904115,0.0013 c 0.27462,-0.0013 0.497179,0.22386 0.497179,0.497178 l 0.0013,5.842498 c -0.0026,0.273318 -0.22386,0.497178 -0.497178,0.497178 z"
     id="path1110" /><path
     id="path1139"
     style="fill:#464646;fill-opacity:1;stroke-width:5.34864"
     d="m 30.150966,30.537674 -0.0013,-39.4858264 h -1.83502 V 30.548739 Z" /><path
     id="path1487"
     style="fill:#464646;fill-opacity:1;stroke-width:4.52344"
     d="M 23.66187,23.497782 23.66057,-4.7439315 H 21.825549 V 23.505696 Z" /><path
     id="path1489"
     style="fill:#464646;fill-opacity:1;stroke-width:3.90763"
     d="m 0.74968896,23.507007 21.07585004,-0.0013 v -1.83502 H 0.74378215 Z" /><path
     id="path1493"
     style="fill:#464646;fill-opacity:1;stroke-width:4.30959"
     d="m 35.52485,32.383866 25.634762,-0.0013 v -1.83502 H 35.517665 Z" /><path
     id="path1575"
     style="fill:#464646;fill-opacity:1;stroke-width:4.00286"
     d="m 35.523864,27.011281 22.115582,-0.0013 V 25.174949 H 35.517665 Z" /><path
     id="path1577"
     style="fill:#464646;fill-opacity:1;stroke-width:2.64469"
     d="m 37.353995,40.201442 -0.0013,-9.653906 h -1.83502 v 9.656611 z" /><circle
     style="fill:url(#linearGradient2391);fill-opacity:1;stroke:#464646;stroke-width:1.37901;stroke-miterlimit:10;stroke-dasharray:none;stroke-dashoffset:0"
     id="path1601"
     cx="-0.34315786"
     cy="22.588846"
     r="2.9280066" /><circle
     style="fill:url(#linearGradient2017);fill-opacity:1;stroke:#464646;stroke-width:1.37901;stroke-miterlimit:10;stroke-dasharray:none;stroke-dashoffset:0"
     id="circle1751"
     cx="22.74371"
     cy="-5.2913909"
     r="2.9280066" /><circle
     style="fill:url(#linearGradient3423);fill-opacity:1;stroke:#464646;stroke-width:1.37901;stroke-miterlimit:10;stroke-dasharray:none;stroke-dashoffset:0"
     id="circle1753"
     cx="57.542099"
     cy="26.093115"
     r="2.9280066" /><circle
     style="fill:url(#linearGradient2573);fill-opacity:1;stroke:#464646;stroke-width:1.37901;stroke-miterlimit:10;stroke-dasharray:none;stroke-dashoffset:0"
     id="circle1755"
     cx="36.435837"
     cy="40.204147"
     r="2.9280066" /></g><g
   id="g2409"
   transform="matrix(0.0581876,0.03359462,-0.03359462,0.0581876,28.830481,-8.5002196)"
   style="fill:url(#linearGradient2581);fill-opacity:1"><g
     id="g2407"
     style="fill:url(#linearGradient5571);fill-opacity:1"><g
       id="g2405"
       style="fill:url(#linearGradient5569);fill-opacity:1"><g
         id="g2403"
         style="fill:url(#linearGradient5567);fill-opacity:1"><path
           d="M 149.535,323.088 0,173.554 H 94.299 C 106.192,41.217 220.448,21.251 288.212,21.251 c 32.12,0 55.166,4.378 56.127,4.549 l -1.279,13.382 c -56.511,0 -97.049,14.745 -120.485,43.829 -26.518,32.903 -23.636,75.735 -21.647,90.537 h 98.137 z"
           id="path2401"
           style="fill:url(#linearGradient5565);fill-opacity:1" /></g></g></g></g></svg>
