<?xml version="1.0" encoding="UTF-8" standalone="no"?>
<svg
   id="Layer_1"
   data-name="Layer 1"
   viewBox="0 0 48 48"
   version="1.1"
   sodipodi:docname="typeCATPart48.svg"
   inkscape:version="1.1 (c68e22c387, 2021-05-23)"
   xmlns:inkscape="http://www.inkscape.org/namespaces/inkscape"
   xmlns:sodipodi="http://sodipodi.sourceforge.net/DTD/sodipodi-0.dtd"
   xmlns="http://www.w3.org/2000/svg"
   xmlns:svg="http://www.w3.org/2000/svg">
  <defs
     id="defs950">
    <linearGradient
       id="SVGID_1_"
       gradientUnits="userSpaceOnUse"
       x1="13.4997"
       y1="2.0655"
       x2="33.500301"
       y2="22.0662">
      <stop
         offset="0"
         style="stop-color:#EBEBEB"
         id="stop13861" />
      <stop
         offset="0.2214"
         style="stop-color:#E8E8E8"
         id="stop13863" />
      <stop
         offset="0.5419"
         style="stop-color:#E1E1E1"
         id="stop13865" />
      <stop
         offset="0.9212"
         style="stop-color:#D5D5D5"
         id="stop13867" />
      <stop
         offset="1"
         style="stop-color:#D2D2D2"
         id="stop13869" />
    </linearGradient>
    <linearGradient
       id="SVGID_2_"
       gradientUnits="userSpaceOnUse"
       x1="-0.14669999"
       y1="15.7119"
       x2="27.1467"
       y2="43.005299">
      <stop
         offset="0"
         style="stop-color:#E1E1E1"
         id="stop13874" />
      <stop
         offset="0.1588"
         style="stop-color:#DCDCDC"
         id="stop13876" />
      <stop
         offset="0.7059"
         style="stop-color:#CECECE"
         id="stop13878" />
      <stop
         offset="1"
         style="stop-color:#C8C8C8"
         id="stop13880" />
    </linearGradient>
    <linearGradient
       id="SVGID_3_"
       gradientUnits="userSpaceOnUse"
       x1="17.7449"
       y1="29.3867"
       x2="29.2551"
       y2="40.8969">
      <stop
         offset="0"
         style="stop-color:#E1E1E1"
         id="stop13887" />
      <stop
         offset="0.1588"
         style="stop-color:#DCDCDC"
         id="stop13889" />
      <stop
         offset="0.7059"
         style="stop-color:#CECECE"
         id="stop13891" />
      <stop
         offset="1"
         style="stop-color:#C8C8C8"
         id="stop13893" />
    </linearGradient>
    <linearGradient
       id="SVGID_4_"
       gradientUnits="userSpaceOnUse"
       x1="20.047001"
       y1="27.062401"
       x2="26.952999"
       y2="33.968498">
      <stop
         offset="0"
         style="stop-color:#E1E1E1"
         id="stop13902" />
      <stop
         offset="0.1588"
         style="stop-color:#DCDCDC"
         id="stop13904" />
      <stop
         offset="0.7059"
         style="stop-color:#CECECE"
         id="stop13906" />
      <stop
         offset="1"
         style="stop-color:#C8C8C8"
         id="stop13908" />
    </linearGradient>
    <linearGradient
       id="a"
       x1="4.494"
       y1="-2092.086"
       x2="13.832"
       y2="-2075.914"
       gradientTransform="translate(0,2100)"
       gradientUnits="userSpaceOnUse">
      <stop
         offset="0"
         stop-color="#18884f"
         id="stop865" />
      <stop
         offset="0.5"
         stop-color="#117e43"
         id="stop867" />
      <stop
         offset="1"
         stop-color="#0b6631"
         id="stop869" />
    </linearGradient>
    <linearGradient
       id="a-8"
       x1="4.494"
       y1="-1712.086"
       x2="13.832"
       y2="-1695.914"
       gradientTransform="translate(0,1720)"
       gradientUnits="userSpaceOnUse">
      <stop
         offset="0"
         stop-color="#2368c4"
         id="stop7398" />
      <stop
         offset="0.5"
         stop-color="#1a5dbe"
         id="stop7400" />
      <stop
         offset="1"
         stop-color="#1146ac"
         id="stop7402" />
    </linearGradient>
    <linearGradient
       id="a-1"
       x1="4.494"
       y1="-1748.086"
       x2="13.832"
       y2="-1731.914"
       gradientTransform="translate(0,1756)"
       gradientUnits="userSpaceOnUse">
      <stop
         offset="0"
         stop-color="#ca4c28"
         id="stop13679" />
      <stop
         offset="0.5"
         stop-color="#c5401e"
         id="stop13681" />
      <stop
         offset="1"
         stop-color="#b62f14"
         id="stop13683" />
    </linearGradient>
  </defs>
  <sodipodi:namedview
     id="namedview948"
     pagecolor="#505050"
     bordercolor="#eeeeee"
     borderopacity="1"
     inkscape:pageshadow="0"
     inkscape:pageopacity="0"
     inkscape:pagecheckerboard="0"
     showgrid="false"
     inkscape:zoom="8.5416668"
     inkscape:cx="28.741463"
     inkscape:cy="37.346341"
     inkscape:window-width="1920"
     inkscape:window-height="1028"
     inkscape:window-x="-6"
     inkscape:window-y="-6"
     inkscape:window-maximized="1"
     inkscape:current-layer="g861" />
  <linearGradient
     id="linear-gradient"
     x1="3.5"
     y1="41.5"
     x2="45"
     gradientTransform="matrix(1, 0, 0, -1, 0, 48)"
     gradientUnits="userSpaceOnUse">
    <stop
       offset="0"
       stop-color="#fff"
       id="stop888" />
    <stop
       offset="0.232"
       stop-color="#fafafa"
       id="stop890" />
    <stop
       offset="0.496"
       stop-color="#ededed"
       id="stop892" />
    <stop
       offset="0.775"
       stop-color="#d6d6d6"
       id="stop894" />
    <stop
       offset="1"
       stop-color="#bebebe"
       id="stop896" />
  </linearGradient>
  <linearGradient
     id="paper_gradient"
     data-name="paper gradient"
     x1="29.375"
     y1="43.875"
     x2="41.875"
     y2="31.375"
     gradientTransform="matrix(1, 0, 0, -1, 0, 48)"
     gradientUnits="userSpaceOnUse">
    <stop
       offset="0"
       stop-color="#fff"
       id="stop899" />
    <stop
       offset="0.221"
       stop-color="#f8f8f8"
       id="stop901" />
    <stop
       offset="0.541"
       stop-color="#e5e5e5"
       id="stop903" />
    <stop
       offset="0.92"
       stop-color="#c6c6c6"
       id="stop905" />
    <stop
       offset="1"
       stop-color="#bebebe"
       id="stop907" />
  </linearGradient>
  <linearGradient
     id="linear-gradient-2"
     x1="0.52171928"
     y1="11.245197"
     x2="29.682405"
     y2="11.245197"
     gradientUnits="userSpaceOnUse"
     gradientTransform="matrix(1.0036901,0,0,0.79449322,-0.05535178,-0.03667202)">
    <stop
       offset="0"
       stop-color="#73b4c8"
       id="stop910"
       style="stop-color:#ff8f6b;stop-opacity:1" />
    <stop
       offset="1"
       stop-color="#147391"
       id="stop918"
       style="stop-color:#bd3719;stop-opacity:1" />
  </linearGradient>
  <polygon
     points="32.5 0.5 9.5 0.5 9.5 47.5 45.5 47.5 45.5 13.5 32.5 0.5"
     stroke="#464646"
     stroke-miterlimit="10"
     fill="url(#linear-gradient)"
     id="polygon921" />
  <polyline
     points="32.5 1 32.5 13.5 45 13.5"
     stroke="#464646"
     stroke-miterlimit="10"
     fill="url(#paper_gradient)"
     id="polyline923" />
  <rect
     x="0.44649327"
     y="2.744055"
     width="29.107014"
     height="12.711891"
     stroke="#464646"
     stroke-miterlimit="10"
     fill="url(#linear-gradient-2)"
     id="rect925"
     style="fill:#ffbd00;stroke-width:0.892987;fill-opacity:1" />
  <g
     inkscape:groupmode="layer"
     id="layer1"
     inkscape:label="Layer 1"
     style="display:inline">
    <text
       xml:space="preserve"
       style="font-style:normal;font-weight:normal;font-size:9.77695px;line-height:1.25;font-family:sans-serif;fill:#ffffff;fill-opacity:1;stroke:none;stroke-width:0.244425"
       x="2.0842099"
       y="12.65417"
       id="text11155"><tspan
         sodipodi:role="line"
         id="tspan11153"
         x="2.0842099"
         y="12.65417"
         style="fill:#ffffff;fill-opacity:1;stroke-width:0.244425">PART</tspan></text>
  </g>
  <g
     id="g861"
     transform="matrix(0.1297865,0,0,0.1297865,9.0105581,-3.9949907)">
    <path
       style="fill:#dca300;fill-opacity:1"
       d="m 182.32744,279.58004 c -0.651,4.268 -1.964,8.505 -4.072,12.546 -2.108,4.041 -4.821,7.549 -7.942,10.531 l 55.66,28.977 12.014,-23.071 z m -33.778,-45.957 c 4.268,0.651 8.5,1.964 12.546,4.072 4.046,2.108 7.549,4.821 10.531,7.942 l 28.977,-55.66 -23.071,-12.014 z m 34.217,40.795 59.856,-18.87 -7.823,-24.807 -59.856,18.87 c 5.265,7.171 8.025,15.909 7.823,24.807 z m -76.101,-19.563 c 2.103,-4.041 4.821,-7.549 7.942,-10.531 l -55.66,-28.977 -12.014,23.071 55.66,28.977 c 0.651,-4.262 1.969,-8.5 4.072,-12.54 z m 36.722,-21.676 -18.87,-59.856 -24.807,7.823 18.87,59.856 c 7.172,-5.266 15.91,-8.02 24.807,-7.823 z m -41.233,39.378 -59.856,18.87 7.823,24.807 59.856,-18.87 c -5.271,-7.171 -8.025,-15.909 -7.823,-24.807 z m 39.378,41.239 18.876,59.856 24.807,-7.823 -18.875,-59.856 c -7.177,5.265 -15.91,8.02 -24.808,7.823 z m -28.238,-12.453 -28.977,55.66 23.071,12.014 28.977,-55.66 c -4.268,-0.651 -8.505,-1.964 -12.546,-4.072 -4.035,-2.103 -7.544,-4.821 -10.525,-7.942 z"
       id="path1178" />
    <path
       style="fill:#b48500"
       d="m 220.04744,299.21504 c -2.733,8.242 -6.769,16.044 -11.998,23.082 l 7.813,4.067 c 4.459,-7.399 7.802,-15.548 9.74,-24.254 z"
       id="path1184" />
    <polygon
       style="fill:#c28b3b"
       points="334.845,416.656 331.481,405.981 "
       id="polygon1186"
       transform="translate(-177.14956,-51.59696)" />
    <path
       style="fill:#b48500"
       d="m 179.12844,346.54004 -0.842,0.413 c -7.771,3.788 -15.842,6.237 -23.96,7.43 l 3.364,10.675 c 8.789,-1.281 17.16,-3.896 24.828,-7.756 z"
       id="path1188" />
    <path
       style="fill:#b48500"
       d="m 93.65444,339.07904 -2.863,5.498 c 6.428,5.875 13.77,10.768 21.847,14.365 l 4.092,-7.864 c -8.236,-2.734 -16.044,-6.77 -23.076,-11.999 z"
       id="path1190" />
    <path
       style="fill:#b48500"
       d="m 222.01044,254.61704 c 0.553,2.325 1.002,4.661 1.343,7.001 l 0.946,-0.3 c -0.661,-2.278 -1.426,-4.51 -2.289,-6.701 z"
       id="path1192" />
    <path
       style="fill:#ffbd00"
       d="m 106.62844,200.01604 c -40.577,19.79 -57.427,68.723 -37.637,109.3 19.79,40.577 68.728,57.427 109.3,37.637 40.577,-19.79 57.427,-68.728 37.637,-109.3 -19.79,-40.572 -68.722,-57.427 -109.3,-37.637 z m 50.804,104.175 c -16.959,8.267 -37.41,1.23 -45.677,-15.729 -8.267,-16.959 -1.23,-37.41 15.729,-45.677 16.959,-8.267 37.41,-1.23 45.677,15.729 8.272,16.958 1.229,37.409 -15.729,45.677 z"
       id="path1194" />
    <path
       style="fill:#c28b3b"
       d="m 149.57844,306.90804 c -2.294,0.486 -4.671,0.744 -7.1,0.744 l -0.909,-0.01 c -1.349,-0.036 -2.677,-0.15 -3.984,-0.336 1.617,0.233 3.255,0.357 4.904,0.357 2.356,-0.005 4.732,-0.253 7.089,-0.755 z m 21.676,-15.036 c -2.661,4.16 -6.201,7.704 -10.345,10.365 4.263,-2.728 7.751,-6.288 10.345,-10.365 z m -57.593,-0.01 c 2.754,4.33 6.366,7.859 10.5,10.474 -4.222,-2.682 -7.813,-6.268 -10.5,-10.474 z m -5.002,-23.356 c -0.599,4.046 -0.481,8.226 0.434,12.334 -0.584,-2.651 -0.858,-5.415 -0.78,-8.252 0.036,-1.379 0.15,-2.743 0.346,-4.082 z m 67.168,-2.366 c 0.579,2.651 0.853,5.41 0.78,8.242 -0.036,1.39 -0.155,2.754 -0.351,4.092 0.604,-4.041 0.48,-8.221 -0.429,-12.334 z m -51.785,-21.428 c -4.273,2.728 -7.766,6.294 -10.37,10.376 2.671,-4.165 6.215,-7.71 10.37,-10.376 z m 36.65,-0.119 c 4.237,2.677 7.839,6.263 10.536,10.469 -2.765,-4.325 -6.392,-7.855 -10.536,-10.469 z m -18.255,-5.271 c -2.403,0 -4.826,0.253 -7.224,0.78 2.336,-0.506 4.754,-0.77 7.234,-0.77 l 0.915,0.01 c 1.405,0.036 2.79,0.16 4.149,0.362 -1.68,-0.258 -3.374,-0.382 -5.074,-0.382 z"
       id="path1196" />
    <path
       style="fill:#dca300;fill-opacity:1"
       d="m 135.20844,240.09704 c 2.398,-0.522 4.821,-0.78 7.224,-0.78 1.705,0 3.395,0.129 5.069,0.377 4.8,0.713 9.27,2.418 13.192,4.898 4.144,2.609 7.771,6.139 10.536,10.469 2.144,3.343 3.725,7.084 4.599,11.078 0.909,4.113 1.028,8.293 0.429,12.339 -0.713,4.883 -2.46,9.425 -5.002,13.393 -2.594,4.077 -6.082,7.637 -10.345,10.365 -3.415,2.196 -7.244,3.798 -11.332,4.666 -2.356,0.506 -4.733,0.749 -7.094,0.749 -1.648,0 -3.286,-0.119 -4.904,-0.357 -4.893,-0.698 -9.44,-2.434 -13.419,-4.96 -4.134,-2.615 -7.746,-6.149 -10.5,-10.474 -2.129,-3.328 -3.695,-7.048 -4.568,-11.022 -0.909,-4.113 -1.033,-8.293 -0.434,-12.334 0.713,-4.893 2.465,-9.445 5.012,-13.419 2.604,-4.077 6.097,-7.647 10.37,-10.376 3.37,-2.157 7.142,-3.738 11.167,-4.612 z m 25.928,-13.031 c 8.087,3.271 15.129,8.593 20.477,15.321 -8.541,-6.795 -19.335,-10.882 -31.096,-10.882 -27.634,0 -50.033,22.399 -50.033,50.033 0,11.76 4.087,22.555 10.882,31.096 -6.547,-5.203 -11.766,-12.008 -15.052,-19.821 7.379,17.584 24.539,30.14 44.84,30.672 l 1.333,0.015 c 27.019,0 49.269,-21.542 49.982,-48.71 0.559,-21.47 -12.504,-40.144 -31.333,-47.724 z"
       id="path1198" />
    <path
       style="fill:#ffffff"
       d="m 81.29944,262.60004 c -1.395,0.677 -3.023,0.878 -4.635,0.45 -3.56,-0.951 -5.679,-4.604 -4.728,-8.159 5.472,-20.539 19.563,-37.663 38.66,-46.974 3.312,-1.612 7.301,-0.238 8.918,3.069 1.612,3.307 0.243,7.301 -3.069,8.918 -15.615,7.616 -27.143,21.619 -31.618,38.423 -0.526,1.938 -1.848,3.452 -3.528,4.273 z"
       id="path1200" />
    <path
       style="fill:#a6d7e6"
       d="m 142.45744,223.45404 c -27.634,0 -50.033,22.399 -50.033,50.033 0,6.857 1.385,13.388 3.886,19.335 -2.661,-6.34 -4.051,-13.331 -3.86,-20.648 0.713,-27.174 22.963,-48.71 49.982,-48.71 l 1.338,0.016 c 6.139,0.16 11.988,1.421 17.367,3.586 -5.767,-2.33 -12.071,-3.612 -18.68,-3.612 z"
       id="path1202" />
    <path
       style="fill:#b48500"
       d="m 142.43744,223.46504 c -27.019,0 -49.269,21.542 -49.982,48.711 -0.191,7.317 1.199,14.308 3.86,20.648 3.286,7.813 8.505,14.613 15.052,19.821 -6.795,-8.541 -10.882,-19.335 -10.882,-31.096 0,-27.634 22.4,-50.033 50.033,-50.033 11.76,0 22.555,4.087 31.096,10.882 -5.353,-6.728 -12.391,-12.055 -20.477,-15.321 -5.379,-2.165 -11.228,-3.426 -17.367,-3.586 z"
       id="path1204" />
  </g>
</svg>
