<?xml version="1.0" encoding="UTF-8" standalone="no"?>
<svg
   version="1.1"
   id="Layer_1"
   x="0px"
   y="0px"
   viewBox="0 0 48 48"
   enable-background="new 0 0 48 48"
   xml:space="preserve"
   sodipodi:docname="typeSR5ColorDefRevision48.svg"
   inkscape:version="1.1 (c68e22c387, 2021-05-23)"
   xmlns:inkscape="http://www.inkscape.org/namespaces/inkscape"
   xmlns:sodipodi="http://sodipodi.sourceforge.net/DTD/sodipodi-0.dtd"
   xmlns:xlink="http://www.w3.org/1999/xlink"
   xmlns="http://www.w3.org/2000/svg"
   xmlns:svg="http://www.w3.org/2000/svg"><defs
   id="defs6168"><linearGradient
     inkscape:collect="always"
     xlink:href="#linearGradient2579"
     id="linearGradient2581"
     x1="101.51823"
     y1="346.70297"
     x2="310.54907"
     y2="-35.231628"
     gradientUnits="userSpaceOnUse" /><linearGradient
     inkscape:collect="always"
     id="linearGradient2579"><stop
       style="stop-color:#008000;stop-opacity:1"
       offset="0"
       id="stop2575" /><stop
       style="stop-color:#00cf00;stop-opacity:1"
       offset="1"
       id="stop2577" /></linearGradient><linearGradient
     inkscape:collect="always"
     xlink:href="#linearGradient2579"
     id="linearGradient3176"
     gradientUnits="userSpaceOnUse"
     x1="101.51823"
     y1="346.70297"
     x2="310.54907"
     y2="-35.231628" /><linearGradient
     inkscape:collect="always"
     xlink:href="#linearGradient2579"
     id="linearGradient3178"
     gradientUnits="userSpaceOnUse"
     x1="101.51823"
     y1="346.70297"
     x2="310.54907"
     y2="-35.231628" /><linearGradient
     inkscape:collect="always"
     xlink:href="#linearGradient2579"
     id="linearGradient3180"
     gradientUnits="userSpaceOnUse"
     x1="101.51823"
     y1="346.70297"
     x2="310.54907"
     y2="-35.231628" /><linearGradient
     inkscape:collect="always"
     xlink:href="#linearGradient2579"
     id="linearGradient3182"
     gradientUnits="userSpaceOnUse"
     x1="101.51823"
     y1="346.70297"
     x2="310.54907"
     y2="-35.231628" /></defs><sodipodi:namedview
   id="namedview6166"
   pagecolor="#505050"
   bordercolor="#eeeeee"
   borderopacity="1"
   inkscape:pageshadow="0"
   inkscape:pageopacity="0"
   inkscape:pagecheckerboard="0"
   showgrid="false"
   inkscape:zoom="8.770833"
   inkscape:cx="18.755345"
   inkscape:cy="23.486937"
   inkscape:window-width="1920"
   inkscape:window-height="1028"
   inkscape:window-x="-6"
   inkscape:window-y="-6"
   inkscape:window-maximized="1"
   inkscape:current-layer="Layer_1" />
	
		
	
	
		
	
		
		
	
<g
   id="g21579"
   transform="translate(0.50000191,0.5)"><path
     fill="#55A0B9"
     d="m 46.499999,23.499999 h -23 l 16.263,16.264 c 4.163,-4.162 6.737,-9.912 6.737,-16.264 z"
     id="path6147"
     style="fill:#007bc0" /><path
     fill="#2882A0"
     d="m 23.499999,23.499999 v 23 c 6.351,0 12.101,-2.574 16.263,-6.737 z"
     id="path6149"
     style="fill:#1e5a9a" /><path
     fill="#006487"
     d="m 23.499999,46.499999 v -23 l -16.263,16.263 c 4.162,4.163 9.912,6.737 16.263,6.737 z"
     id="path6151"
     style="fill:#153f6d" /><path
     fill="#dcdcdc"
     d="m 7.236999,39.762999 16.263,-16.264 h -23 c 0,6.352 2.574,12.102 6.737,16.264 z"
     id="path6153"
     style="fill:#6e6e6e" /><path
     fill="#BEBEBE"
     d="m 7.236999,7.236999 c -4.162,4.162 -6.737,9.912 -6.737,16.263 h 23 z"
     id="path6155"
     style="fill:#a0a0a0" /><path
     fill="#969696"
     d="m 7.236999,7.236999 16.263,16.263 v -23 c -6.351,0 -12.101,2.575 -16.263,6.737 z"
     id="path6157"
     style="fill:#bebebe" /><path
     fill="#6E6E6E"
     d="m 39.762999,7.236999 c -4.162,-4.162 -9.912,-6.737 -16.263,-6.737 v 23 z"
     id="path6159"
     style="fill:#d9d9d9" /><path
     fill="#8CC3D2"
     d="m 39.762999,7.236999 -16.263,16.263 h 23 c 0,-6.351 -2.574,-12.101 -6.737,-16.263 z"
     id="path6161"
     style="fill:#05a6ff" /><circle
     fill="none"
     stroke="#464646"
     stroke-miterlimit="10"
     cx="23.5"
     cy="-23.499998"
     r="23"
     id="circle6163"
     transform="rotate(90)" /></g><g
   id="g2409"
   transform="matrix(0.0581876,0.03359462,-0.03359462,0.0581876,28.830481,-8.5002196)"
   style="fill:url(#linearGradient2581);fill-opacity:1"><g
     id="g2407"
     style="fill:url(#linearGradient3182);fill-opacity:1"><g
       id="g2405"
       style="fill:url(#linearGradient3180);fill-opacity:1"><g
         id="g2403"
         style="fill:url(#linearGradient3178);fill-opacity:1"><path
           d="M 149.535,323.088 0,173.554 H 94.299 C 106.192,41.217 220.448,21.251 288.212,21.251 c 32.12,0 55.166,4.378 56.127,4.549 l -1.279,13.382 c -56.511,0 -97.049,14.745 -120.485,43.829 -26.518,32.903 -23.636,75.735 -21.647,90.537 h 98.137 z"
           id="path2401"
           style="fill:url(#linearGradient3176);fill-opacity:1" /></g></g></g></g></svg>
