<?xml version="1.0" encoding="UTF-8" standalone="no"?>
<svg
   version="1.1"
   id="Layer_1"
   x="0px"
   y="0px"
   viewBox="0 0 48 48"
   enable-background="new 0 0 48 48"
   xml:space="preserve"
   sodipodi:docname="typeSR5EngEndItemRevision48.svg"
   inkscape:version="1.1 (c68e22c387, 2021-05-23)"
   xmlns:inkscape="http://www.inkscape.org/namespaces/inkscape"
   xmlns:sodipodi="http://sodipodi.sourceforge.net/DTD/sodipodi-0.dtd"
   xmlns:xlink="http://www.w3.org/1999/xlink"
   xmlns="http://www.w3.org/2000/svg"
   xmlns:svg="http://www.w3.org/2000/svg"><defs
   id="defs2473"><linearGradient
     id="SVGID_4_"
     gradientUnits="userSpaceOnUse"
     x1="27.0147"
     y1="27.0147"
     x2="43.985298"
     y2="43.985298"
     gradientTransform="matrix(0.93750015,0,0,0.93750015,25.778123,18.595228)"><stop
       offset="0"
       style="stop-color:#FFFFFF"
       id="stop5781" /><stop
       offset="0.2214"
       style="stop-color:#F8F8F8"
       id="stop5783" /><stop
       offset="0.5415"
       style="stop-color:#E5E5E5"
       id="stop5785" /><stop
       offset="0.92"
       style="stop-color:#C6C6C6"
       id="stop5787" /><stop
       offset="1"
       style="stop-color:#BEBEBE"
       id="stop5789" /></linearGradient><linearGradient
     inkscape:collect="always"
     xlink:href="#linearGradient8489"
     id="linearGradient8491"
     x1="255.20271"
     y1="207.93495"
     x2="255.20259"
     y2="172.6748"
     gradientUnits="userSpaceOnUse"
     gradientTransform="translate(-190.22273,-136.40812)" /><linearGradient
     inkscape:collect="always"
     id="linearGradient8489"><stop
       style="stop-color:#b48500;stop-opacity:1"
       offset="0"
       id="stop8485" /><stop
       style="stop-color:#ffbd00;stop-opacity:1"
       offset="1"
       id="stop8487" /></linearGradient><linearGradient
     inkscape:collect="always"
     xlink:href="#linearGradient9089"
     id="linearGradient9091"
     x1="255.34128"
     y1="221.04378"
     x2="255.9995"
     y2="73.735001"
     gradientUnits="userSpaceOnUse" /><linearGradient
     inkscape:collect="always"
     id="linearGradient9089"><stop
       style="stop-color:#05a6ff;stop-opacity:1"
       offset="0"
       id="stop9085" /><stop
       style="stop-color:#05c9ff;stop-opacity:1"
       offset="1"
       id="stop9087" /></linearGradient><linearGradient
     inkscape:collect="always"
     xlink:href="#linearGradient2579"
     id="linearGradient2581"
     x1="101.51823"
     y1="346.70297"
     x2="310.54907"
     y2="-35.231628"
     gradientUnits="userSpaceOnUse" /><linearGradient
     inkscape:collect="always"
     id="linearGradient2579"><stop
       style="stop-color:#008000;stop-opacity:1"
       offset="0"
       id="stop2575" /><stop
       style="stop-color:#00cf00;stop-opacity:1"
       offset="1"
       id="stop2577" /></linearGradient><linearGradient
     inkscape:collect="always"
     xlink:href="#linearGradient2579"
     id="linearGradient15031"
     gradientUnits="userSpaceOnUse"
     x1="101.51823"
     y1="346.70297"
     x2="310.54907"
     y2="-35.231628" /><linearGradient
     inkscape:collect="always"
     xlink:href="#linearGradient2579"
     id="linearGradient15033"
     gradientUnits="userSpaceOnUse"
     x1="101.51823"
     y1="346.70297"
     x2="310.54907"
     y2="-35.231628" /><linearGradient
     inkscape:collect="always"
     xlink:href="#linearGradient2579"
     id="linearGradient15035"
     gradientUnits="userSpaceOnUse"
     x1="101.51823"
     y1="346.70297"
     x2="310.54907"
     y2="-35.231628" /><linearGradient
     inkscape:collect="always"
     xlink:href="#linearGradient2579"
     id="linearGradient15037"
     gradientUnits="userSpaceOnUse"
     x1="101.51823"
     y1="346.70297"
     x2="310.54907"
     y2="-35.231628" /></defs><sodipodi:namedview
   id="namedview2471"
   pagecolor="#505050"
   bordercolor="#eeeeee"
   borderopacity="1"
   inkscape:pageshadow="0"
   inkscape:pageopacity="0"
   inkscape:pagecheckerboard="0"
   showgrid="false"
   inkscape:zoom="8.770833"
   inkscape:cx="12.71259"
   inkscape:cy="20.522566"
   inkscape:window-width="1920"
   inkscape:window-height="1028"
   inkscape:window-x="3833"
   inkscape:window-y="-6"
   inkscape:window-maximized="1"
   inkscape:current-layer="Layer_1" />
	
		
	
	
		
	
		
		
	
<g
   id="g14786"><g
     id="g9996"
     transform="matrix(0.99179697,0,0,0.99179697,-46.698569,-35.969193)"><g
       id="g891"
       transform="matrix(0.09375037,0,0,0.09375037,40.9799,36.66369)"><rect
         x="106.734"
         y="460.66599"
         style="fill:#bfbfbf;fill-opacity:1"
         width="298.52975"
         height="16.648001"
         id="rect887" /><rect
         x="73.438004"
         y="495.349"
         style="fill:#bfbfbf;fill-opacity:1"
         width="365.11899"
         height="16.648001"
         id="rect889" /></g><g
       id="g897"
       transform="matrix(0.09375037,0,0,0.09375037,40.9799,36.66369)"><path
         style="fill:#7f7f7f;fill-opacity:1"
         d="m 154.878,410.467 -87.321,87.322 c -3.251,3.252 -3.251,8.521 0,11.772 1.625,1.625 3.756,2.437 5.886,2.437 2.13,0 4.261,-0.812 5.886,-2.437 l 87.321,-87.322 z"
         id="path893" /><path
         style="fill:#7f7f7f;fill-opacity:1"
         d="m 444.442,497.789 -87.322,-87.322 -11.771,11.772 87.322,87.322 c 1.625,1.625 3.756,2.437 5.886,2.437 2.13,0 4.261,-0.812 5.886,-2.437 3.249,-3.25 3.249,-8.52 -10e-4,-11.772 z"
         id="path895" /></g><path
       style="fill:#b48500;fill-opacity:1;stroke:#6e6e6e;stroke-width:0.794;stroke-miterlimit:4;stroke-dasharray:none;stroke-opacity:1"
       d="m 48.12818,72.56736 c -0.14475,2.8577 2.07807,5.19584 4.93942,5.19584 h 23.8246 c 2.86135,0 5.08408,-2.33804 4.93942,-5.19584 L 64.97999,71.52683 Z"
       id="path899" /><path
       style="fill:url(#linearGradient8491);fill-opacity:1;stroke:#6e6e6e;stroke-width:0.794;stroke-miterlimit:4;stroke-dasharray:none;stroke-opacity:1"
       d="M 80.27677,41.85952 C 80.13202,39.00173 77.67258,36.66369 74.81131,36.66369 H 55.14858 c -2.86135,0 -5.3209,2.33804 -5.46546,5.19583 l -1.55494,30.70784 h 33.70335 z"
       id="path901" /><path
       style="fill:#b48500;fill-opacity:1;stroke:#6e6e6e;stroke-width:0.5;stroke-miterlimit:4;stroke-dasharray:none;stroke-opacity:1"
       d="M 71.22283,41.08796 H 58.73697 c -0.43106,0 -0.78038,-0.34941 -0.78038,-0.78038 0,-0.43097 0.34932,-0.78038 0.78038,-0.78038 h 12.48586 c 0.43107,0 0.78038,0.34941 0.78038,0.78038 0,0.43097 -0.34931,0.78038 -0.78038,0.78038 z"
       id="path903" /><polygon
       style="fill:#ffbd00;fill-opacity:1;stroke:#6e6e6e;stroke-width:7.99997;stroke-miterlimit:4;stroke-dasharray:none;stroke-opacity:1"
       points="255.999,194.385 123.561,216.582 118.818,310.265 393.181,310.265 388.438,216.582 "
       id="polygon905"
       transform="matrix(0.09375037,0,0,0.09375037,40.9799,36.66369)" /><polygon
       style="fill:url(#linearGradient9091);fill-opacity:1;stroke:#6e6e6e;stroke-width:7.99997;stroke-miterlimit:4;stroke-dasharray:none;stroke-opacity:1"
       points="381.408,77.735 130.591,77.736 123.561,216.582 388.438,216.582 "
       id="polygon907"
       transform="matrix(0.09375037,0,0,0.09375037,40.9799,36.66369)" /><g
       id="g913"
       transform="matrix(0.09375037,0,0,0.09375037,40.9799,36.66369)"
       style="fill:#ffffff;fill-opacity:1;stroke:#6e6e6e;stroke-width:7.99997;stroke-miterlimit:4;stroke-dasharray:none;stroke-opacity:1"><path
         style="fill:#ffffff;fill-opacity:1;stroke:#6e6e6e;stroke-width:7.99997;stroke-miterlimit:4;stroke-dasharray:none;stroke-opacity:1"
         d="m 146.964,260.976 h -25.65 l -2.496,49.288 h 77.434 c 0,-27.221 -22.067,-49.288 -49.288,-49.288 z"
         id="path909" /><path
         style="fill:#ffffff;fill-opacity:1;stroke:#6e6e6e;stroke-width:7.99997;stroke-miterlimit:4;stroke-dasharray:none;stroke-opacity:1"
         d="m 390.685,260.976 h -25.65 c -27.221,0 -49.288,22.067 -49.288,49.288 h 77.434 z"
         id="path911" /></g></g><g
     id="g2409"
     transform="matrix(0.0581876,0.03359462,-0.03359462,0.0581876,28.830481,-8.5002196)"
     style="fill:url(#linearGradient2581);fill-opacity:1"><g
       id="g2407"
       style="fill:url(#linearGradient15037);fill-opacity:1"><g
         id="g2405"
         style="fill:url(#linearGradient15035);fill-opacity:1"><g
           id="g2403"
           style="fill:url(#linearGradient15033);fill-opacity:1"><path
             d="M 149.535,323.088 0,173.554 H 94.299 C 106.192,41.217 220.448,21.251 288.212,21.251 c 32.12,0 55.166,4.378 56.127,4.549 l -1.279,13.382 c -56.511,0 -97.049,14.745 -120.485,43.829 -26.518,32.903 -23.636,75.735 -21.647,90.537 h 98.137 z"
             id="path2401"
             style="fill:url(#linearGradient15031);fill-opacity:1" /></g></g></g></g><g
     id="g14338"
     transform="translate(-22.778135,-15.59524)"><circle
       fill="url(#SVGID_4_)"
       stroke="#464646"
       stroke-miterlimit="10"
       cx="59.059383"
       cy="51.876488"
       r="11.250002"
       id="circle5792"
       style="fill:url(#SVGID_4_);stroke-width:0.9375" /><text
       xml:space="preserve"
       style="font-style:normal;font-weight:normal;font-size:18.6667px;line-height:1.25;font-family:sans-serif;fill:#464646;fill-opacity:1;stroke:none"
       x="53.777473"
       y="58.411655"
       id="text2066"><tspan
         sodipodi:role="line"
         id="tspan2064"
         x="53.777473"
         y="58.411655"
         style="font-style:normal;font-variant:normal;font-weight:normal;font-stretch:normal;font-size:18.6667px;font-family:'Segoe UI';-inkscape-font-specification:'Segoe UI';fill:#464646;fill-opacity:1">E</tspan></text></g></g></svg>
