<?xml version="1.0" encoding="UTF-8" standalone="no"?>
<svg
   version="1.1"
   id="Layer_1"
   x="0px"
   y="0px"
   viewBox="0 0 48 48"
   enable-background="new 0 0 48 48"
   xml:space="preserve"
   xmlns:xlink="http://www.w3.org/1999/xlink"
   xmlns="http://www.w3.org/2000/svg"
   xmlns:svg="http://www.w3.org/2000/svg"><defs
   id="defs32"><linearGradient
     xlink:href="#linearGradient2579"
     id="linearGradient2581"
     x1="101.51823"
     y1="346.70297"
     x2="310.54907"
     y2="-35.231628"
     gradientUnits="userSpaceOnUse" /><linearGradient
     id="linearGradient2579"><stop
       style="stop-color:#008000;stop-opacity:1"
       offset="0"
       id="stop2575" /><stop
       style="stop-color:#00cf00;stop-opacity:1"
       offset="1"
       id="stop2577" /></linearGradient><linearGradient
     xlink:href="#linearGradient2579"
     id="linearGradient1091"
     gradientUnits="userSpaceOnUse"
     x1="101.51823"
     y1="346.70297"
     x2="310.54907"
     y2="-35.231628" /><linearGradient
     xlink:href="#linearGradient2579"
     id="linearGradient1093"
     gradientUnits="userSpaceOnUse"
     x1="101.51823"
     y1="346.70297"
     x2="310.54907"
     y2="-35.231628" /><linearGradient
     xlink:href="#linearGradient2579"
     id="linearGradient1095"
     gradientUnits="userSpaceOnUse"
     x1="101.51823"
     y1="346.70297"
     x2="310.54907"
     y2="-35.231628" /><linearGradient
     xlink:href="#linearGradient2579"
     id="linearGradient1097"
     gradientUnits="userSpaceOnUse"
     x1="101.51823"
     y1="346.70297"
     x2="310.54907"
     y2="-35.231628" /></defs>
	<linearGradient
   id="SVGID_1_"
   gradientUnits="userSpaceOnUse"
   x1="13.25"
   y1="13.75"
   x2="40.25"
   y2="40.75">
		<stop
   offset="0"
   style="stop-color:#FFFFFF"
   id="stop2" />
		<stop
   offset="0.2214"
   style="stop-color:#F8F8F8"
   id="stop4" />
		<stop
   offset="0.5415"
   style="stop-color:#E5E5E5"
   id="stop6" />
		<stop
   offset="0.92"
   style="stop-color:#C6C6C6"
   id="stop8" />
		<stop
   offset="1"
   style="stop-color:#BEBEBE"
   id="stop10" />
	</linearGradient>
	<polygon
   fill="url(#SVGID_1_)"
   stroke="#464646"
   stroke-linecap="round"
   stroke-linejoin="round"
   stroke-miterlimit="10"
   points="13.5,47.5 13.5,13.5 33.5,0.5 33.5,47.5 "
   id="polygon13"
   style="fill:url(#SVGID_1_)"
   transform="matrix(-1,0,0,1,47,0)" />
	<line
   fill="none"
   stroke="#5A5A5A"
   stroke-linejoin="round"
   stroke-miterlimit="10"
   x1="18"
   y1="25.5"
   x2="29"
   y2="25.5"
   id="line15" />
	<line
   fill="none"
   stroke="#5A5A5A"
   stroke-linejoin="round"
   stroke-miterlimit="10"
   x1="18"
   y1="21.5"
   x2="29"
   y2="21.5"
   id="line17" />
	<line
   fill="none"
   stroke="#5A5A5A"
   stroke-linejoin="round"
   stroke-miterlimit="10"
   x1="18"
   y1="17.5"
   x2="29"
   y2="17.5"
   id="line19" />
	<line
   fill="none"
   stroke="#5A5A5A"
   stroke-linejoin="round"
   stroke-miterlimit="10"
   x1="18"
   y1="37.5"
   x2="29"
   y2="37.5"
   id="line21" />
	<line
   fill="none"
   stroke="#5A5A5A"
   stroke-linejoin="round"
   stroke-miterlimit="10"
   x1="18"
   y1="33.5"
   x2="29"
   y2="33.5"
   id="line23" />
	<line
   fill="none"
   stroke="#5A5A5A"
   stroke-linejoin="round"
   stroke-miterlimit="10"
   x1="18"
   y1="29.5"
   x2="29"
   y2="29.5"
   id="line25" />
<polyline
   fill="none"
   stroke="#5A5A5A"
   stroke-miterlimit="10"
   points="21.5,47 21.5,43.5 25.5,43.5 25.5,47 "
   id="polyline27" />
<g
   id="g2409"
   transform="matrix(0.0581876,0.03359462,-0.03359462,0.0581876,28.830481,-8.5002196)"
   style="fill:url(#linearGradient2581);fill-opacity:1"><g
     id="g2407"
     style="fill:url(#linearGradient1097);fill-opacity:1"><g
       id="g2405"
       style="fill:url(#linearGradient1095);fill-opacity:1"><g
         id="g2403"
         style="fill:url(#linearGradient1093);fill-opacity:1"><path
           d="M 149.535,323.088 0,173.554 H 94.299 C 106.192,41.217 220.448,21.251 288.212,21.251 c 32.12,0 55.166,4.378 56.127,4.549 l -1.279,13.382 c -56.511,0 -97.049,14.745 -120.485,43.829 -26.518,32.903 -23.636,75.735 -21.647,90.537 h 98.137 z"
           id="path2401"
           style="fill:url(#linearGradient1091);fill-opacity:1" /></g></g></g></g></svg>
