<?xml version="1.0" encoding="UTF-8" standalone="no"?>
<svg
   id="Layer_1"
   data-name="Layer 1"
   viewBox="0 0 48 48"
   version="1.1"
   sodipodi:docname="typeEngProjectRevision48.svg"
   inkscape:version="1.1 (c68e22c387, 2021-05-23)"
   xmlns:inkscape="http://www.inkscape.org/namespaces/inkscape"
   xmlns:sodipodi="http://sodipodi.sourceforge.net/DTD/sodipodi-0.dtd"
   xmlns:xlink="http://www.w3.org/1999/xlink"
   xmlns="http://www.w3.org/2000/svg"
   xmlns:svg="http://www.w3.org/2000/svg">
  <defs
     id="defs1217">
    <linearGradient
       inkscape:collect="always"
       xlink:href="#linearGradient8489"
       id="linearGradient8491"
       x1="255.20271"
       y1="207.93495"
       x2="255.20259"
       y2="172.6748"
       gradientUnits="userSpaceOnUse"
       gradientTransform="matrix(0.43191671,0,0,0.43191671,-86.226288,-56.565515)" />
    <linearGradient
       inkscape:collect="always"
       id="linearGradient8489">
      <stop
         style="stop-color:#b48500;stop-opacity:1"
         offset="0"
         id="stop8485" />
      <stop
         style="stop-color:#ffbd00;stop-opacity:1"
         offset="1"
         id="stop8487" />
    </linearGradient>
    <linearGradient
       inkscape:collect="always"
       xlink:href="#linearGradient9089"
       id="linearGradient9091"
       x1="255.34128"
       y1="221.04378"
       x2="255.9995"
       y2="73.735001"
       gradientUnits="userSpaceOnUse" />
    <linearGradient
       inkscape:collect="always"
       id="linearGradient9089">
      <stop
         style="stop-color:#05a6ff;stop-opacity:1"
         offset="0"
         id="stop9085" />
      <stop
         style="stop-color:#05c9ff;stop-opacity:1"
         offset="1"
         id="stop9087" />
    </linearGradient>
    <linearGradient
       inkscape:collect="always"
       xlink:href="#linearGradient2579"
       id="linearGradient2581"
       x1="101.51823"
       y1="346.70297"
       x2="310.54907"
       y2="-35.231628"
       gradientUnits="userSpaceOnUse" />
    <linearGradient
       inkscape:collect="always"
       id="linearGradient2579">
      <stop
         style="stop-color:#008000;stop-opacity:1"
         offset="0"
         id="stop2575" />
      <stop
         style="stop-color:#00cf00;stop-opacity:1"
         offset="1"
         id="stop2577" />
    </linearGradient>
    <linearGradient
       inkscape:collect="always"
       xlink:href="#linearGradient2579"
       id="linearGradient6862"
       gradientUnits="userSpaceOnUse"
       x1="101.51823"
       y1="346.70297"
       x2="310.54907"
       y2="-35.231628" />
    <linearGradient
       inkscape:collect="always"
       xlink:href="#linearGradient2579"
       id="linearGradient6864"
       gradientUnits="userSpaceOnUse"
       x1="101.51823"
       y1="346.70297"
       x2="310.54907"
       y2="-35.231628" />
    <linearGradient
       inkscape:collect="always"
       xlink:href="#linearGradient2579"
       id="linearGradient6866"
       gradientUnits="userSpaceOnUse"
       x1="101.51823"
       y1="346.70297"
       x2="310.54907"
       y2="-35.231628" />
    <linearGradient
       inkscape:collect="always"
       xlink:href="#linearGradient2579"
       id="linearGradient6868"
       gradientUnits="userSpaceOnUse"
       x1="101.51823"
       y1="346.70297"
       x2="310.54907"
       y2="-35.231628" />
  </defs>
  <sodipodi:namedview
     id="namedview1215"
     pagecolor="#505050"
     bordercolor="#eeeeee"
     borderopacity="1"
     inkscape:pageshadow="0"
     inkscape:pageopacity="0"
     inkscape:pagecheckerboard="0"
     showgrid="false"
     inkscape:zoom="8.7708333"
     inkscape:cx="25.938242"
     inkscape:cy="30.498812"
     inkscape:window-width="1920"
     inkscape:window-height="1027"
     inkscape:window-x="-8"
     inkscape:window-y="-8"
     inkscape:window-maximized="1"
     inkscape:current-layer="Layer_1" />
  <linearGradient
     id="linear-gradient"
     x1="8.711"
     y1="-1.539"
     x2="36.875"
     y2="26.625"
     gradientUnits="userSpaceOnUse">
    <stop
       offset="0"
       stop-color="#fff"
       id="stop1140" />
    <stop
       offset="0.232"
       stop-color="#fafafa"
       id="stop1142" />
    <stop
       offset="0.496"
       stop-color="#ededed"
       id="stop1144" />
    <stop
       offset="0.775"
       stop-color="#d6d6d6"
       id="stop1146" />
    <stop
       offset="1"
       stop-color="#bebebe"
       id="stop1148" />
  </linearGradient>
  <linearGradient
     id="paper_gradient"
     data-name="paper gradient"
     x1="14.674"
     y1="1.817"
     x2="35.508"
     y2="22.651"
     gradientUnits="userSpaceOnUse">
    <stop
       offset="0"
       stop-color="#fff"
       id="stop1151" />
    <stop
       offset="0.221"
       stop-color="#f8f8f8"
       id="stop1153" />
    <stop
       offset="0.541"
       stop-color="#e5e5e5"
       id="stop1155" />
    <stop
       offset="0.92"
       stop-color="#c6c6c6"
       id="stop1157" />
    <stop
       offset="1"
       stop-color="#bebebe"
       id="stop1159" />
  </linearGradient>
  <linearGradient
     id="linear-gradient-2"
     x1="6"
     y1="12"
     x2="42"
     y2="48"
     xlink:href="#linear-gradient" />
  <linearGradient
     id="linear-gradient-3"
     x1="20"
     y1="19.143"
     x2="29"
     y2="28.143"
     gradientUnits="userSpaceOnUse">
    <stop
       offset="0"
       stop-color="#cde6eb"
       id="stop1163" />
    <stop
       offset="0.221"
       stop-color="#c6e2e8"
       id="stop1165" />
    <stop
       offset="0.542"
       stop-color="#b3d8e1"
       id="stop1167" />
    <stop
       offset="0.921"
       stop-color="#93c7d5"
       id="stop1169" />
    <stop
       offset="1"
       stop-color="#8cc3d2"
       id="stop1171" />
  </linearGradient>
  <linearGradient
     id="linear-gradient-4"
     x1="13.893"
     y1="25.25"
     x2="26.107"
     y2="37.464"
     gradientUnits="userSpaceOnUse">
    <stop
       offset="0"
       stop-color="#afd7e1"
       id="stop1174" />
    <stop
       offset="0.159"
       stop-color="#a4d0dc"
       id="stop1176" />
    <stop
       offset="0.706"
       stop-color="#80bcce"
       id="stop1178" />
    <stop
       offset="1"
       stop-color="#73b4c8"
       id="stop1180" />
  </linearGradient>
  <linearGradient
     id="New_Gradient_Swatch_2"
     data-name="New Gradient Swatch 2"
     x1="13.899"
     y1="29.413"
     x2="27.516"
     y2="43.03"
     gradientUnits="userSpaceOnUse">
    <stop
       offset="0"
       stop-color="#fff"
       id="stop1183" />
    <stop
       offset="0.228"
       stop-color="#fafafa"
       id="stop1185" />
    <stop
       offset="0.488"
       stop-color="#ededed"
       id="stop1187" />
    <stop
       offset="0.762"
       stop-color="#d7d6d6"
       id="stop1189" />
    <stop
       offset="1"
       stop-color="#bdbcbc"
       id="stop1191" />
  </linearGradient>
  <path
     d="M46.5,17V10.5h-27L16.094,5.391A2,2,0,0,0,14.43,4.5H3.5a2,2,0,0,0-2,2V17"
     stroke="#464646"
     stroke-miterlimit="10"
     fill="url(#linear-gradient)"
     id="path1194" />
  <polyline
     points="6.865 16.466 5.622 10.868 38.815 3.5 41.693 16.466"
     stroke="#464646"
     stroke-miterlimit="10"
     fill="url(#paper_gradient)"
     id="polyline1196" />
  <rect
     x="1.5"
     y="16.5"
     width="45"
     height="27"
     stroke="#464646"
     stroke-miterlimit="10"
     fill="url(#linear-gradient-2)"
     id="rect1198" />
  <path
     style="fill:#b48500;fill-opacity:1;stroke:#6e6e6e;stroke-width:0.342942;stroke-miterlimit:4;stroke-dasharray:none;stroke-opacity:1"
     d="m 16.721453,33.694487 c -0.06252,1.234288 0.897553,2.24417 2.133418,2.24417 h 10.290242 c 1.235865,0 2.1959,-1.009839 2.133418,-2.24417 l -7.2785,-0.449422 z"
     id="path899" />
  <path
     style="fill:url(#linearGradient8491);fill-opacity:1;stroke:#6e6e6e;stroke-width:0.342942;stroke-miterlimit:4;stroke-dasharray:none;stroke-opacity:1"
     d="m 30.606966,20.431258 c -0.06252,-1.234328 -1.124793,-2.244166 -2.360624,-2.244166 h -8.492661 c -1.235865,0 -2.298186,1.009838 -2.360624,2.244166 l -0.671604,13.263229 h 14.55704 z"
     id="path901" />
  <path
     style="fill:#b48500;fill-opacity:1;stroke:#6e6e6e;stroke-width:0.215958;stroke-miterlimit:4;stroke-dasharray:none;stroke-opacity:1"
     d="m 26.696418,20.098008 h -5.392852 c -0.186182,0 -0.337059,-0.150916 -0.337059,-0.337059 0,-0.186143 0.150877,-0.337059 0.337059,-0.337059 h 5.392852 c 0.186186,0 0.337059,0.150916 0.337059,0.337059 0,0.186143 -0.150873,0.337059 -0.337059,0.337059 z"
     id="path903" />
  <polygon
     style="fill:#ffbd00;fill-opacity:1;stroke:#6e6e6e;stroke-width:7.99997;stroke-miterlimit:4;stroke-dasharray:none;stroke-opacity:1"
     points="393.181,310.265 388.438,216.582 255.999,194.385 123.561,216.582 118.818,310.265 "
     id="polygon905"
     transform="matrix(0.04049235,0,0,0.04049235,13.633991,18.187092)" />
  <polygon
     style="fill:url(#linearGradient9091);fill-opacity:1;stroke:#6e6e6e;stroke-width:7.99997;stroke-miterlimit:4;stroke-dasharray:none;stroke-opacity:1"
     points="388.438,216.582 381.408,77.735 130.591,77.736 123.561,216.582 "
     id="polygon907"
     transform="matrix(0.04049235,0,0,0.04049235,13.633991,18.187092)" />
  <g
     id="g913"
     transform="matrix(0.04049235,0,0,0.04049235,13.633991,18.187092)"
     style="fill:#ffffff;fill-opacity:1;stroke:#6e6e6e;stroke-width:7.99997;stroke-miterlimit:4;stroke-dasharray:none;stroke-opacity:1">
    <path
       style="fill:#ffffff;fill-opacity:1;stroke:#6e6e6e;stroke-width:7.99997;stroke-miterlimit:4;stroke-dasharray:none;stroke-opacity:1"
       d="m 146.964,260.976 h -25.65 l -2.496,49.288 h 77.434 c 0,-27.221 -22.067,-49.288 -49.288,-49.288 z"
       id="path909" />
    <path
       style="fill:#ffffff;fill-opacity:1;stroke:#6e6e6e;stroke-width:7.99997;stroke-miterlimit:4;stroke-dasharray:none;stroke-opacity:1"
       d="m 390.685,260.976 h -25.65 c -27.221,0 -49.288,22.067 -49.288,49.288 h 77.434 z"
       id="path911" />
  </g>
  <path
     d="M27.514,36.747l1.961-.89a2.472,2.472,0,0,0,.333-.183l2.86-1.874c1.823-1.027,2.926,1.54,1.31,2.733a19.811,19.811,0,0,1-3.145,2.049c-4.784,2.194-4.748,2.209-7.449,2.209a19.706,19.706,0,0,1-8.1-1.841c-1.1-.485-3.207.3-5.766.945a1.527,1.527,0,0,1-1.847-1.062c-.074-.266-.23-.949-.375-1.6a1.714,1.714,0,0,1,1.1-2.049,38.649,38.649,0,0,0,3.913-1.064,8.692,8.692,0,0,1,7.167-.173c.1.036,2.248,1.09,2.817,1.374a1.493,1.493,0,0,0,.472.144l3.648.491c1.865.3,1.129,3.077-.857,2.9l-3.39-.462a3.532,3.532,0,0,1-1.051-.315l-2.69-1.291"
     stroke="#464646"
     stroke-linecap="round"
     stroke-linejoin="round"
     fill="url(#New_Gradient_Swatch_2)"
     id="path1212" />
  <g
     id="g2409"
     transform="matrix(0.0581876,0.03359462,-0.03359462,0.0581876,28.830481,-8.5002196)"
     style="fill:url(#linearGradient2581);fill-opacity:1">
    <g
       id="g2407"
       style="fill:url(#linearGradient6868);fill-opacity:1">
      <g
         id="g2405"
         style="fill:url(#linearGradient6866);fill-opacity:1">
        <g
           id="g2403"
           style="fill:url(#linearGradient6864);fill-opacity:1">
          <path
             d="M 149.535,323.088 0,173.554 H 94.299 C 106.192,41.217 220.448,21.251 288.212,21.251 c 32.12,0 55.166,4.378 56.127,4.549 l -1.279,13.382 c -56.511,0 -97.049,14.745 -120.485,43.829 -26.518,32.903 -23.636,75.735 -21.647,90.537 h 98.137 z"
             id="path2401"
             style="fill:url(#linearGradient6862);fill-opacity:1" />
        </g>
      </g>
    </g>
  </g>
</svg>
