<?xml version="1.0" encoding="UTF-8" standalone="no"?>
<svg
   version="1.1"
   id="Layer_1"
   x="0px"
   y="0px"
   viewBox="0 0 48 48"
   enable-background="new 0 0 48 48"
   xml:space="preserve"
   sodipodi:docname="typeSR5ToolRevision48.svg"
   inkscape:version="1.1 (c68e22c387, 2021-05-23)"
   xmlns:inkscape="http://www.inkscape.org/namespaces/inkscape"
   xmlns:sodipodi="http://sodipodi.sourceforge.net/DTD/sodipodi-0.dtd"
   xmlns:xlink="http://www.w3.org/1999/xlink"
   xmlns="http://www.w3.org/2000/svg"
   xmlns:svg="http://www.w3.org/2000/svg"><defs
   id="defs1106"><linearGradient
     inkscape:collect="always"
     xlink:href="#linearGradient2579"
     id="linearGradient2581"
     x1="101.51823"
     y1="346.70297"
     x2="310.54907"
     y2="-35.231628"
     gradientUnits="userSpaceOnUse" /><linearGradient
     inkscape:collect="always"
     id="linearGradient2579"><stop
       style="stop-color:#008000;stop-opacity:1"
       offset="0"
       id="stop2575" /><stop
       style="stop-color:#00cf00;stop-opacity:1"
       offset="1"
       id="stop2577" /></linearGradient><linearGradient
     inkscape:collect="always"
     xlink:href="#linearGradient2579"
     id="linearGradient1509"
     gradientUnits="userSpaceOnUse"
     x1="101.51823"
     y1="346.70297"
     x2="310.54907"
     y2="-35.231628" /><linearGradient
     inkscape:collect="always"
     xlink:href="#linearGradient2579"
     id="linearGradient1511"
     gradientUnits="userSpaceOnUse"
     x1="101.51823"
     y1="346.70297"
     x2="310.54907"
     y2="-35.231628" /><linearGradient
     inkscape:collect="always"
     xlink:href="#linearGradient2579"
     id="linearGradient1513"
     gradientUnits="userSpaceOnUse"
     x1="101.51823"
     y1="346.70297"
     x2="310.54907"
     y2="-35.231628" /><linearGradient
     inkscape:collect="always"
     xlink:href="#linearGradient2579"
     id="linearGradient1515"
     gradientUnits="userSpaceOnUse"
     x1="101.51823"
     y1="346.70297"
     x2="310.54907"
     y2="-35.231628" /><linearGradient
     inkscape:collect="always"
     xlink:href="#linearGradient2612"
     id="linearGradient2614"
     x1="14.928127"
     y1="19.41337"
     x2="30.78385"
     y2="35.344418"
     gradientUnits="userSpaceOnUse"
     gradientTransform="matrix(0.97959184,0,0,0.97959184,0.48575067,0.489794)" /><linearGradient
     inkscape:collect="always"
     id="linearGradient2612"><stop
       style="stop-color:#a0a0a0;stop-opacity:1"
       offset="0"
       id="stop2608" /><stop
       style="stop-color:#6e6e6e;stop-opacity:1"
       offset="1"
       id="stop2610" /></linearGradient></defs><sodipodi:namedview
   id="namedview1104"
   pagecolor="#505050"
   bordercolor="#eeeeee"
   borderopacity="1"
   inkscape:pageshadow="0"
   inkscape:pageopacity="0"
   inkscape:pagecheckerboard="0"
   showgrid="false"
   inkscape:zoom="12.403831"
   inkscape:cx="27.934918"
   inkscape:cy="23.218633"
   inkscape:window-width="1920"
   inkscape:window-height="1028"
   inkscape:window-x="-6"
   inkscape:window-y="-6"
   inkscape:window-maximized="1"
   inkscape:current-layer="Layer_1" />
	
		
	
	
		
	
		
		
	
<path
   style="fill:url(#linearGradient2614);fill-opacity:1;stroke:#464646;stroke-width:0.979592;stroke-miterlimit:4;stroke-dasharray:none;stroke-opacity:1"
   d="m 1.5950427,46.423674 c 0.721936,0.721065 1.533696,1.086528 2.413224,1.086528 1.752398,0 3.194527,-1.443774 4.588807,-2.839797 L 29.442373,23.808575 c 1.765541,0.922364 3.729951,1.405885 5.738951,1.405885 3.296817,0 6.396498,-1.284547 8.725608,-3.616938 2.451986,-2.453642 3.753064,-5.88253 3.569078,-9.406266 L 46.04953,10.662496 39.117599,17.632425 31.762385,16.233122 30.363954,8.869691 37.29425,1.900634 35.799325,0.507128 c -0.223628,-0.01156 -0.444651,-0.01733 -0.670796,-0.01733 -3.31751,0 -6.417092,1.274675 -8.729672,3.588028 -3.867732,3.871023 -4.715932,9.696605 -2.209408,14.477711 L 3.3440517,39.415816 c -1.741664,1.744171 -4.374355,4.379291 -1.749009,7.007829 z"
   id="path863" /><g
   id="g2409"
   transform="matrix(0.0581876,0.03359462,-0.03359462,0.0581876,28.830481,-8.5002196)"
   style="fill:url(#linearGradient2581);fill-opacity:1"><g
     id="g2407"
     style="fill:url(#linearGradient1515);fill-opacity:1"><g
       id="g2405"
       style="fill:url(#linearGradient1513);fill-opacity:1"><g
         id="g2403"
         style="fill:url(#linearGradient1511);fill-opacity:1"><path
           d="M 149.535,323.088 0,173.554 H 94.299 C 106.192,41.217 220.448,21.251 288.212,21.251 c 32.12,0 55.166,4.378 56.127,4.549 l -1.279,13.382 c -56.511,0 -97.049,14.745 -120.485,43.829 -26.518,32.903 -23.636,75.735 -21.647,90.537 h 98.137 z"
           id="path2401"
           style="fill:url(#linearGradient1509);fill-opacity:1" /></g></g></g></g></svg>
