<?xml version="1.0" encoding="UTF-8" standalone="no"?>
<svg
   version="1.1"
   id="Layer_1"
   x="0px"
   y="0px"
   viewBox="0 0 48 48"
   enable-background="new 0 0 48 48"
   xml:space="preserve"
   sodipodi:docname="typeSR5SoftwareRevision48.svg"
   inkscape:version="1.1 (c68e22c387, 2021-05-23)"
   xmlns:inkscape="http://www.inkscape.org/namespaces/inkscape"
   xmlns:sodipodi="http://sodipodi.sourceforge.net/DTD/sodipodi-0.dtd"
   xmlns:xlink="http://www.w3.org/1999/xlink"
   xmlns="http://www.w3.org/2000/svg"
   xmlns:svg="http://www.w3.org/2000/svg"><defs
   id="defs972"><linearGradient
     inkscape:collect="always"
     xlink:href="#linearGradient2579"
     id="linearGradient2581"
     x1="101.51823"
     y1="346.70297"
     x2="310.54907"
     y2="-35.231628"
     gradientUnits="userSpaceOnUse" /><linearGradient
     inkscape:collect="always"
     id="linearGradient2579"><stop
       style="stop-color:#008000;stop-opacity:1"
       offset="0"
       id="stop2575" /><stop
       style="stop-color:#00cf00;stop-opacity:1"
       offset="1"
       id="stop2577" /></linearGradient><linearGradient
     inkscape:collect="always"
     xlink:href="#linearGradient2579"
     id="linearGradient1336"
     gradientUnits="userSpaceOnUse"
     x1="101.51823"
     y1="346.70297"
     x2="310.54907"
     y2="-35.231628" /><linearGradient
     inkscape:collect="always"
     xlink:href="#linearGradient2579"
     id="linearGradient1338"
     gradientUnits="userSpaceOnUse"
     x1="101.51823"
     y1="346.70297"
     x2="310.54907"
     y2="-35.231628" /><linearGradient
     inkscape:collect="always"
     xlink:href="#linearGradient2579"
     id="linearGradient1340"
     gradientUnits="userSpaceOnUse"
     x1="101.51823"
     y1="346.70297"
     x2="310.54907"
     y2="-35.231628" /><linearGradient
     inkscape:collect="always"
     xlink:href="#linearGradient2579"
     id="linearGradient1342"
     gradientUnits="userSpaceOnUse"
     x1="101.51823"
     y1="346.70297"
     x2="310.54907"
     y2="-35.231628" /></defs><sodipodi:namedview
   id="namedview970"
   pagecolor="#505050"
   bordercolor="#eeeeee"
   borderopacity="1"
   inkscape:pageshadow="0"
   inkscape:pageopacity="0"
   inkscape:pagecheckerboard="0"
   showgrid="false"
   inkscape:snap-bbox="true"
   inkscape:snap-global="true"
   inkscape:zoom="8.7708333"
   inkscape:cx="21.833729"
   inkscape:cy="20.294537"
   inkscape:window-width="1920"
   inkscape:window-height="1028"
   inkscape:window-x="-6"
   inkscape:window-y="-6"
   inkscape:window-maximized="1"
   inkscape:current-layer="Layer_1" />
	
		
	
	
		
	
		
		
	
<g
   id="g1043"><rect
     style="fill:#d9d9d9;fill-opacity:1;stroke:#464646;stroke-width:0.979593;stroke-opacity:1"
     id="rect1085"
     width="47.020409"
     height="47.020409"
     x="0.48979649"
     y="0.48979583"
     ry="1.4821852" /><path
     fill="#333333"
     d="M 9.4237891,36.758413 24.083994,24.465221 c 0.297784,-0.244342 0.297784,-0.694836 0,-0.93917 L 9.4237891,11.240493 a 0.60702415,0.60702415 0 0 0 -1.0002514,0.465769 v 4.787477 c 0,0.183243 0.07633,0.351229 0.2214329,0.465759 l 8.3838044,7.039953 -8.3838044,7.039957 a 0.61847742,0.61847742 0 0 0 -0.2214329,0.465769 v 4.787466 c 0,0.519217 0.6032054,0.801734 1.0002514,0.46577 z m 14.8816329,-0.46577 c 0,0.335966 0.259597,0.61085 0.572665,0.61085 h 14.125727 c 0.313057,0 0.572657,-0.274884 0.572657,-0.61085 v -3.665042 c 0,-0.335966 -0.259597,-0.610849 -0.572657,-0.610849 H 24.878087 c -0.313058,0 -0.572665,0.274883 -0.572665,0.610849 z"
     id="path840"
     style="fill:#464646;fill-opacity:1;stroke-width:0.0763551" /></g><g
   id="g2409"
   transform="matrix(0.0581876,0.03359462,-0.03359462,0.0581876,28.830481,-8.5002196)"
   style="fill:url(#linearGradient2581);fill-opacity:1"><g
     id="g2407"
     style="fill:url(#linearGradient1342);fill-opacity:1"><g
       id="g2405"
       style="fill:url(#linearGradient1340);fill-opacity:1"><g
         id="g2403"
         style="fill:url(#linearGradient1338);fill-opacity:1"><path
           d="M 149.535,323.088 0,173.554 H 94.299 C 106.192,41.217 220.448,21.251 288.212,21.251 c 32.12,0 55.166,4.378 56.127,4.549 l -1.279,13.382 c -56.511,0 -97.049,14.745 -120.485,43.829 -26.518,32.903 -23.636,75.735 -21.647,90.537 h 98.137 z"
           id="path2401"
           style="fill:url(#linearGradient1336);fill-opacity:1" /></g></g></g></g></svg>
