<?xml version="1.0" encoding="UTF-8" standalone="no"?>
<svg
   version="1.1"
   id="Layer_1"
   x="0px"
   y="0px"
   viewBox="0 0 48 48"
   enable-background="new 0 0 48 48"
   xml:space="preserve"
   sodipodi:docname="typeSR5MfgEndItem.svg"
   inkscape:version="1.1 (c68e22c387, 2021-05-23)"
   xmlns:inkscape="http://www.inkscape.org/namespaces/inkscape"
   xmlns:sodipodi="http://sodipodi.sourceforge.net/DTD/sodipodi-0.dtd"
   xmlns:xlink="http://www.w3.org/1999/xlink"
   xmlns="http://www.w3.org/2000/svg"
   xmlns:svg="http://www.w3.org/2000/svg"><defs
   id="defs2473"><linearGradient
     inkscape:collect="always"
     xlink:href="#linearGradient8489"
     id="linearGradient8491"
     x1="255.20271"
     y1="207.93495"
     x2="255.20259"
     y2="172.6748"
     gradientUnits="userSpaceOnUse"
     gradientTransform="matrix(0.99179697,0,0,0.99179697,-229.10921,-171.25835)" /><linearGradient
     inkscape:collect="always"
     id="linearGradient8489"><stop
       style="stop-color:#153f6d;stop-opacity:1"
       offset="0"
       id="stop8485" /><stop
       style="stop-color:#1e5a9a;stop-opacity:1"
       offset="1"
       id="stop8487" /></linearGradient><linearGradient
     inkscape:collect="always"
     xlink:href="#linearGradient9089"
     id="linearGradient9091"
     x1="255.34128"
     y1="221.04378"
     x2="255.9995"
     y2="73.735001"
     gradientUnits="userSpaceOnUse" /><linearGradient
     inkscape:collect="always"
     id="linearGradient9089"><stop
       style="stop-color:#05a6ff;stop-opacity:1"
       offset="0"
       id="stop9085" /><stop
       style="stop-color:#05c9ff;stop-opacity:1"
       offset="1"
       id="stop9087" /></linearGradient><linearGradient
     id="SVGID_4_"
     gradientUnits="userSpaceOnUse"
     x1="27.0147"
     y1="27.0147"
     x2="43.985298"
     y2="43.985298"
     gradientTransform="matrix(0.93750015,0,0,0.93750015,9.3600683,25.094038)"><stop
       offset="0"
       style="stop-color:#FFFFFF"
       id="stop5781" /><stop
       offset="0.2214"
       style="stop-color:#F8F8F8"
       id="stop5783" /><stop
       offset="0.5415"
       style="stop-color:#E5E5E5"
       id="stop5785" /><stop
       offset="0.92"
       style="stop-color:#C6C6C6"
       id="stop5787" /><stop
       offset="1"
       style="stop-color:#BEBEBE"
       id="stop5789" /></linearGradient></defs><sodipodi:namedview
   id="namedview2471"
   pagecolor="#505050"
   bordercolor="#eeeeee"
   borderopacity="1"
   inkscape:pageshadow="0"
   inkscape:pageopacity="0"
   inkscape:pagecheckerboard="0"
   showgrid="false"
   inkscape:zoom="8.7708333"
   inkscape:cx="10.660333"
   inkscape:cy="29.073634"
   inkscape:window-width="1920"
   inkscape:window-height="1028"
   inkscape:window-x="-6"
   inkscape:window-y="-6"
   inkscape:window-maximized="1"
   inkscape:current-layer="Layer_1" />
	
		
	
	
		
	
		
		
	
<g
   id="g15525"
   transform="translate(-6.2516826)"><g
     id="g891"
     transform="matrix(0.09298133,0,0,0.09298133,0.19685465,0.39374365)"><rect
       x="106.734"
       y="460.66599"
       style="fill:#bfbfbf;fill-opacity:1"
       width="298.52975"
       height="16.648001"
       id="rect887" /><rect
       x="73.438004"
       y="495.349"
       style="fill:#bfbfbf;fill-opacity:1"
       width="365.11899"
       height="16.648001"
       id="rect889" /></g><g
     id="g897"
     transform="matrix(0.09298133,0,0,0.09298133,0.19685465,0.39374365)"><path
       style="fill:#7f7f7f;fill-opacity:1"
       d="m 154.878,410.467 -87.321,87.322 c -3.251,3.252 -3.251,8.521 0,11.772 1.625,1.625 3.756,2.437 5.886,2.437 2.13,0 4.261,-0.812 5.886,-2.437 l 87.321,-87.322 z"
       id="path893" /><path
       style="fill:#7f7f7f;fill-opacity:1"
       d="m 444.442,497.789 -87.322,-87.322 -11.771,11.772 87.322,87.322 c 1.625,1.625 3.756,2.437 5.886,2.437 2.13,0 4.261,-0.812 5.886,-2.437 3.249,-3.25 3.249,-8.52 -10e-4,-11.772 z"
       id="path895" /></g><path
     style="fill:#153f6d;fill-opacity:1;stroke:#6e6e6e;stroke-width:0.787487;stroke-miterlimit:4;stroke-dasharray:none;stroke-opacity:1"
     d="m 7.2864971,36.002895 c -0.1435626,2.834258 2.0610235,5.153218 4.8989019,5.153218 h 23.629166 c 2.837878,0 5.042375,-2.318861 4.898902,-5.153218 L 24.000071,34.9709 Z"
     id="path899" /><path
     style="fill:url(#linearGradient8491);fill-opacity:1;stroke:#6e6e6e;stroke-width:0.787487;stroke-miterlimit:4;stroke-dasharray:none;stroke-opacity:1"
     d="M 39.171371,5.5469521 C 39.027809,2.7126046 36.588543,0.39374365 33.750745,0.39374365 H 14.249309 c -2.837879,0 -5.277253,2.31886095 -5.4206271,5.15320845 L 7.2864971,36.002895 H 40.713378 Z"
     id="path901" /><path
     style="fill:#153f6d;fill-opacity:1;stroke:#6e6e6e;stroke-width:0.495898;stroke-miterlimit:4;stroke-dasharray:none;stroke-opacity:1"
     d="M 30.191701,4.7817212 H 17.808263 c -0.427524,0 -0.773979,-0.3465437 -0.773979,-0.7739785 0,-0.4274347 0.346455,-0.7739785 0.773979,-0.7739785 h 12.383438 c 0.427534,0 0.773979,0.3465438 0.773979,0.7739785 0,0.4274348 -0.346445,0.7739785 -0.773979,0.7739785 z"
     id="path903" /><polygon
     style="fill:#1e5a9a;fill-opacity:1;stroke:#6e6e6e;stroke-width:7.99997;stroke-miterlimit:4;stroke-dasharray:none;stroke-opacity:1"
     points="123.561,216.582 118.818,310.265 393.181,310.265 388.438,216.582 255.999,194.385 "
     id="polygon905"
     transform="matrix(0.09298133,0,0,0.09298133,0.19685465,0.39374365)" /><polygon
     style="fill:url(#linearGradient9091);fill-opacity:1;stroke:#6e6e6e;stroke-width:7.99997;stroke-miterlimit:4;stroke-dasharray:none;stroke-opacity:1"
     points="381.408,77.735 130.591,77.736 123.561,216.582 388.438,216.582 "
     id="polygon907"
     transform="matrix(0.09298133,0,0,0.09298133,0.19685465,0.39374365)" /><g
     id="g913"
     transform="matrix(0.09298133,0,0,0.09298133,0.19685465,0.39374365)"
     style="fill:#ffffff;fill-opacity:1;stroke:#6e6e6e;stroke-width:7.99997;stroke-miterlimit:4;stroke-dasharray:none;stroke-opacity:1"><path
       style="fill:#ffffff;fill-opacity:1;stroke:#6e6e6e;stroke-width:7.99997;stroke-miterlimit:4;stroke-dasharray:none;stroke-opacity:1"
       d="m 146.964,260.976 h -25.65 l -2.496,49.288 h 77.434 c 0,-27.221 -22.067,-49.288 -49.288,-49.288 z"
       id="path909" /><path
       style="fill:#ffffff;fill-opacity:1;stroke:#6e6e6e;stroke-width:7.99997;stroke-miterlimit:4;stroke-dasharray:none;stroke-opacity:1"
       d="m 390.685,260.976 h -25.65 c -27.221,0 -49.288,22.067 -49.288,49.288 h 77.434 z"
       id="path911" /></g></g><g
   id="g17459"
   transform="translate(-6.3600826,-22.094049)"><circle
     fill="url(#SVGID_4_)"
     stroke="#464646"
     stroke-miterlimit="10"
     cx="42.641331"
     cy="58.375298"
     r="11.250002"
     id="circle5792"
     style="fill:url(#SVGID_4_);stroke-width:0.9375" /><text
     xml:space="preserve"
     style="font-style:normal;font-weight:normal;font-size:18.6667px;line-height:1.25;font-family:sans-serif;fill:#464646;fill-opacity:1;stroke:none"
     x="34.265015"
     y="64.910469"
     id="text2066"><tspan
       sodipodi:role="line"
       id="tspan2064"
       x="34.265015"
       y="64.910469"
       style="font-style:normal;font-variant:normal;font-weight:normal;font-stretch:normal;font-size:18.6667px;font-family:'Segoe UI';-inkscape-font-specification:'Segoe UI';fill:#464646;fill-opacity:1">M</tspan></text></g></svg>
