<?xml version="1.0" encoding="UTF-8" standalone="no"?>
<svg
   id="Layer_1"
   data-name="Layer 1"
   viewBox="0 0 48 48"
   version="1.1"
   sodipodi:docname="typeMSPowerpoint48.svg"
   inkscape:version="1.1 (c68e22c387, 2021-05-23)"
   xmlns:inkscape="http://www.inkscape.org/namespaces/inkscape"
   xmlns:sodipodi="http://sodipodi.sourceforge.net/DTD/sodipodi-0.dtd"
   xmlns="http://www.w3.org/2000/svg"
   xmlns:svg="http://www.w3.org/2000/svg">
  <defs
     id="defs950">
    <linearGradient
       id="SVGID_1_"
       gradientUnits="userSpaceOnUse"
       x1="13.4997"
       y1="2.0655"
       x2="33.500301"
       y2="22.0662">
      <stop
         offset="0"
         style="stop-color:#EBEBEB"
         id="stop13861" />
      <stop
         offset="0.2214"
         style="stop-color:#E8E8E8"
         id="stop13863" />
      <stop
         offset="0.5419"
         style="stop-color:#E1E1E1"
         id="stop13865" />
      <stop
         offset="0.9212"
         style="stop-color:#D5D5D5"
         id="stop13867" />
      <stop
         offset="1"
         style="stop-color:#D2D2D2"
         id="stop13869" />
    </linearGradient>
    <linearGradient
       id="SVGID_2_"
       gradientUnits="userSpaceOnUse"
       x1="-0.14669999"
       y1="15.7119"
       x2="27.1467"
       y2="43.005299">
      <stop
         offset="0"
         style="stop-color:#E1E1E1"
         id="stop13874" />
      <stop
         offset="0.1588"
         style="stop-color:#DCDCDC"
         id="stop13876" />
      <stop
         offset="0.7059"
         style="stop-color:#CECECE"
         id="stop13878" />
      <stop
         offset="1"
         style="stop-color:#C8C8C8"
         id="stop13880" />
    </linearGradient>
    <linearGradient
       id="SVGID_3_"
       gradientUnits="userSpaceOnUse"
       x1="17.7449"
       y1="29.3867"
       x2="29.2551"
       y2="40.8969">
      <stop
         offset="0"
         style="stop-color:#E1E1E1"
         id="stop13887" />
      <stop
         offset="0.1588"
         style="stop-color:#DCDCDC"
         id="stop13889" />
      <stop
         offset="0.7059"
         style="stop-color:#CECECE"
         id="stop13891" />
      <stop
         offset="1"
         style="stop-color:#C8C8C8"
         id="stop13893" />
    </linearGradient>
    <linearGradient
       id="SVGID_4_"
       gradientUnits="userSpaceOnUse"
       x1="20.047001"
       y1="27.062401"
       x2="26.952999"
       y2="33.968498">
      <stop
         offset="0"
         style="stop-color:#E1E1E1"
         id="stop13902" />
      <stop
         offset="0.1588"
         style="stop-color:#DCDCDC"
         id="stop13904" />
      <stop
         offset="0.7059"
         style="stop-color:#CECECE"
         id="stop13906" />
      <stop
         offset="1"
         style="stop-color:#C8C8C8"
         id="stop13908" />
    </linearGradient>
    <linearGradient
       id="a"
       x1="4.494"
       y1="-2092.086"
       x2="13.832"
       y2="-2075.914"
       gradientTransform="translate(0,2100)"
       gradientUnits="userSpaceOnUse">
      <stop
         offset="0"
         stop-color="#18884f"
         id="stop865" />
      <stop
         offset="0.5"
         stop-color="#117e43"
         id="stop867" />
      <stop
         offset="1"
         stop-color="#0b6631"
         id="stop869" />
    </linearGradient>
    <linearGradient
       id="a-8"
       x1="4.494"
       y1="-1712.086"
       x2="13.832"
       y2="-1695.914"
       gradientTransform="translate(0,1720)"
       gradientUnits="userSpaceOnUse">
      <stop
         offset="0"
         stop-color="#2368c4"
         id="stop7398" />
      <stop
         offset="0.5"
         stop-color="#1a5dbe"
         id="stop7400" />
      <stop
         offset="1"
         stop-color="#1146ac"
         id="stop7402" />
    </linearGradient>
    <linearGradient
       id="a-1"
       x1="4.494"
       y1="-1748.086"
       x2="13.832"
       y2="-1731.914"
       gradientTransform="translate(0,1756)"
       gradientUnits="userSpaceOnUse">
      <stop
         offset="0"
         stop-color="#ca4c28"
         id="stop13679" />
      <stop
         offset="0.5"
         stop-color="#c5401e"
         id="stop13681" />
      <stop
         offset="1"
         stop-color="#b62f14"
         id="stop13683" />
    </linearGradient>
  </defs>
  <sodipodi:namedview
     id="namedview948"
     pagecolor="#505050"
     bordercolor="#eeeeee"
     borderopacity="1"
     inkscape:pageshadow="0"
     inkscape:pageopacity="0"
     inkscape:pagecheckerboard="0"
     showgrid="false"
     inkscape:zoom="8.5416667"
     inkscape:cx="25.112195"
     inkscape:cy="20.253658"
     inkscape:window-width="1920"
     inkscape:window-height="1028"
     inkscape:window-x="-6"
     inkscape:window-y="-6"
     inkscape:window-maximized="1"
     inkscape:current-layer="Layer_1" />
  <linearGradient
     id="linear-gradient"
     x1="3.5"
     y1="41.5"
     x2="45"
     gradientTransform="matrix(1, 0, 0, -1, 0, 48)"
     gradientUnits="userSpaceOnUse">
    <stop
       offset="0"
       stop-color="#fff"
       id="stop888" />
    <stop
       offset="0.232"
       stop-color="#fafafa"
       id="stop890" />
    <stop
       offset="0.496"
       stop-color="#ededed"
       id="stop892" />
    <stop
       offset="0.775"
       stop-color="#d6d6d6"
       id="stop894" />
    <stop
       offset="1"
       stop-color="#bebebe"
       id="stop896" />
  </linearGradient>
  <linearGradient
     id="paper_gradient"
     data-name="paper gradient"
     x1="29.375"
     y1="43.875"
     x2="41.875"
     y2="31.375"
     gradientTransform="matrix(1, 0, 0, -1, 0, 48)"
     gradientUnits="userSpaceOnUse">
    <stop
       offset="0"
       stop-color="#fff"
       id="stop899" />
    <stop
       offset="0.221"
       stop-color="#f8f8f8"
       id="stop901" />
    <stop
       offset="0.541"
       stop-color="#e5e5e5"
       id="stop903" />
    <stop
       offset="0.92"
       stop-color="#c6c6c6"
       id="stop905" />
    <stop
       offset="1"
       stop-color="#bebebe"
       id="stop907" />
  </linearGradient>
  <linearGradient
     id="linear-gradient-2"
     x1="0.52171928"
     y1="11.245197"
     x2="29.682405"
     y2="11.245197"
     gradientUnits="userSpaceOnUse"
     gradientTransform="matrix(1.0036901,0,0,0.79449322,-0.05535178,-0.03667202)">
    <stop
       offset="0"
       stop-color="#73b4c8"
       id="stop910"
       style="stop-color:#ff8f6b;stop-opacity:1" />
    <stop
       offset="1"
       stop-color="#147391"
       id="stop918"
       style="stop-color:#bd3719;stop-opacity:1" />
  </linearGradient>
  <polygon
     points="32.5 0.5 9.5 0.5 9.5 47.5 45.5 47.5 45.5 13.5 32.5 0.5"
     stroke="#464646"
     stroke-miterlimit="10"
     fill="url(#linear-gradient)"
     id="polygon921" />
  <polyline
     points="32.5 1 32.5 13.5 45 13.5"
     stroke="#464646"
     stroke-miterlimit="10"
     fill="url(#paper_gradient)"
     id="polyline923" />
  <rect
     x="0.44649327"
     y="2.744055"
     width="29.107014"
     height="12.711891"
     stroke="#464646"
     stroke-miterlimit="10"
     fill="url(#linear-gradient-2)"
     id="rect925"
     style="fill:url(#linear-gradient-2);stroke-width:0.892987;fill-opacity:1" />
  <g
     inkscape:groupmode="layer"
     id="layer1"
     inkscape:label="Layer 1"
     style="display:inline">
    <text
       xml:space="preserve"
       style="font-style:normal;font-weight:normal;font-size:11.3872px;line-height:1.25;font-family:sans-serif;fill:#ffffff;fill-opacity:1;stroke:none;stroke-width:0.284681"
       x="4.3133793"
       y="13.239537"
       id="text11155"><tspan
         sodipodi:role="line"
         id="tspan11153"
         x="4.3133793"
         y="13.239537"
         style="fill:#ffffff;fill-opacity:1;stroke-width:0.284681">PPP</tspan></text>
    <g
       id="g13725"
       transform="translate(11.5,15.5)">
      <path
         d="M 18.93,17.3 16.977,3 H 16.831 A 12.9,12.9 0 0 0 3.953,15.854 V 16 Z"
         style="fill:#ed6c47"
         id="path13690" />
      <path
         d="M 17.123,3 H 16.977 V 16 L 23.488,18.6 30,16 V 15.854 A 12.9,12.9 0 0 0 17.123,3 Z"
         style="fill:#ff8f6b"
         id="path13692" />
      <path
         d="m 30,16 v 0.143 A 12.905,12.905 0 0 1 17.12,29 H 16.833 A 12.907,12.907 0 0 1 3.953,16.143 V 16 Z"
         style="fill:#d35230"
         id="path13694" />
      <path
         d="M 17.628,9.389 V 23.26 a 1.2,1.2 0 0 1 -0.742,1.1 1.16,1.16 0 0 1 -0.45,0.091 H 7.027 C 6.845,24.243 6.669,24.022 6.506,23.801 A 12.735,12.735 0 0 1 3.953,16.144 V 15.858 A 12.705,12.705 0 0 1 6.05,8.85 C 6.193,8.629 6.343,8.408 6.506,8.2 h 9.93 a 1.2,1.2 0 0 1 1.192,1.189 z"
         style="opacity:0.1;isolation:isolate"
         id="path13696" />
      <path
         d="m 16.977,10.04 v 13.871 a 1.15,1.15 0 0 1 -0.091,0.448 1.2,1.2 0 0 1 -1.1,0.741 H 7.62 Q 7.311,24.786 7.027,24.45 C 6.845,24.242 6.669,24.021 6.506,23.8 A 12.735,12.735 0 0 1 3.953,16.143 V 15.857 A 12.705,12.705 0 0 1 6.05,8.85 h 9.735 a 1.2,1.2 0 0 1 1.192,1.19 z"
         style="opacity:0.2;isolation:isolate"
         id="path13698" />
      <path
         d="M 16.977,10.04 V 22.611 A 1.2,1.2 0 0 1 15.785,23.8 H 6.506 A 12.735,12.735 0 0 1 3.953,16.143 V 15.857 A 12.705,12.705 0 0 1 6.05,8.85 h 9.735 a 1.2,1.2 0 0 1 1.192,1.19 z"
         style="opacity:0.2;isolation:isolate"
         id="path13700" />
      <path
         d="M 16.326,10.04 V 22.611 A 1.2,1.2 0 0 1 15.134,23.8 H 6.506 A 12.735,12.735 0 0 1 3.953,16.143 V 15.857 A 12.705,12.705 0 0 1 6.05,8.85 h 9.084 a 1.2,1.2 0 0 1 1.192,1.19 z"
         style="opacity:0.2;isolation:isolate"
         id="path13702" />
      <path
         d="m 3.194,8.85 h 11.938 a 1.193,1.193 0 0 1 1.194,1.191 V 21.959 A 1.193,1.193 0 0 1 15.132,23.15 H 3.194 A 1.192,1.192 0 0 1 2,21.959 V 10.041 A 1.192,1.192 0 0 1 3.194,8.85 Z"
         style="fill:url(#a-1)"
         id="path13704" />
      <path
         d="m 9.293,12.028 a 3.287,3.287 0 0 1 2.174,0.636 2.27,2.27 0 0 1 0.756,1.841 2.555,2.555 0 0 1 -0.373,1.376 2.49,2.49 0 0 1 -1.059,0.935 A 3.607,3.607 0 0 1 9.2,17.15 H 7.687 v 2.8 H 6.141 V 12.028 Z M 7.686,15.94 h 1.331 a 1.735,1.735 0 0 0 1.177,-0.351 1.3,1.3 0 0 0 0.4,-1.025 q 0,-1.309 -1.525,-1.31 H 7.686 Z"
         style="fill:#ffffff"
         id="path13706" />
    </g>
  </g>
</svg>
