<?xml version="1.0" encoding="UTF-8" standalone="no"?>
<svg
   version="1.1"
   id="Layer_1"
   x="0px"
   y="0px"
   viewBox="0 0 48 48"
   enable-background="new 0 0 48 48"
   xml:space="preserve"
   sodipodi:docname="typeSR5SPEndItemRevision.svg"
   inkscape:version="1.1 (c68e22c387, 2021-05-23)"
   xmlns:inkscape="http://www.inkscape.org/namespaces/inkscape"
   xmlns:sodipodi="http://sodipodi.sourceforge.net/DTD/sodipodi-0.dtd"
   xmlns:xlink="http://www.w3.org/1999/xlink"
   xmlns="http://www.w3.org/2000/svg"
   xmlns:svg="http://www.w3.org/2000/svg"><defs
   id="defs2473"><linearGradient
     id="SVGID_4_"
     gradientUnits="userSpaceOnUse"
     x1="27.0147"
     y1="27.0147"
     x2="43.985298"
     y2="43.985298"
     gradientTransform="matrix(0.93750015,0,0,0.93750015,25.778123,18.595228)"><stop
       offset="0"
       style="stop-color:#FFFFFF"
       id="stop5781" /><stop
       offset="0.2214"
       style="stop-color:#F8F8F8"
       id="stop5783" /><stop
       offset="0.5415"
       style="stop-color:#E5E5E5"
       id="stop5785" /><stop
       offset="0.92"
       style="stop-color:#C6C6C6"
       id="stop5787" /><stop
       offset="1"
       style="stop-color:#BEBEBE"
       id="stop5789" /></linearGradient><linearGradient
     inkscape:collect="always"
     xlink:href="#linearGradient8489"
     id="linearGradient8491"
     x1="255.20271"
     y1="207.93495"
     x2="255.20259"
     y2="172.6748"
     gradientUnits="userSpaceOnUse"
     gradientTransform="matrix(0.99179697,0,0,0.99179697,-235.3609,-171.25835)" /><linearGradient
     inkscape:collect="always"
     id="linearGradient8489"><stop
       style="stop-color:#401f51;stop-opacity:1"
       offset="0"
       id="stop8485" /><stop
       style="stop-color:#9145b6;stop-opacity:1"
       offset="1"
       id="stop8487" /></linearGradient><linearGradient
     inkscape:collect="always"
     xlink:href="#linearGradient9089"
     id="linearGradient9091"
     x1="255.34128"
     y1="221.04378"
     x2="255.9995"
     y2="73.735001"
     gradientUnits="userSpaceOnUse" /><linearGradient
     inkscape:collect="always"
     id="linearGradient9089"><stop
       style="stop-color:#05a6ff;stop-opacity:1"
       offset="0"
       id="stop9085" /><stop
       style="stop-color:#05c9ff;stop-opacity:1"
       offset="1"
       id="stop9087" /></linearGradient><linearGradient
     inkscape:collect="always"
     xlink:href="#paper_gradient"
     id="linearGradient2522"
     gradientUnits="userSpaceOnUse"
     x1="21.689301"
     y1="30.068001"
     x2="43.3106"
     y2="51.689301"
     gradientTransform="matrix(1.4516129,0,0,1.4516129,-23.177419,-38.074784)" /><linearGradient
     id="paper_gradient"
     data-name="paper gradient"
     x1="21.689301"
     y1="30.068001"
     x2="43.3106"
     y2="51.689301"
     gradientUnits="userSpaceOnUse"><stop
       offset="0"
       stop-color="#fff"
       id="stop2407" /><stop
       offset="0.2214"
       stop-color="#f8f8f8"
       id="stop2409" /><stop
       offset="0.5415"
       stop-color="#e5e5e5"
       id="stop2411" /><stop
       offset="0.92"
       stop-color="#c6c6c6"
       id="stop2413" /><stop
       offset="1"
       stop-color="#bebebe"
       id="stop2415" /></linearGradient><linearGradient
     id="paper_gradient-2"
     x1="23.75"
     y1="30.25"
     x2="26.25"
     y2="32.75"
     xlink:href="#paper_gradient"
     gradientTransform="matrix(1.4516129,0,0,1.4516129,-23.177419,-38.074784)" /><linearGradient
     id="paper_gradient-3"
     x1="24.75"
     y1="28.25"
     x2="28.25"
     y2="31.75"
     xlink:href="#paper_gradient"
     gradientTransform="matrix(1.4516129,0,0,1.4516129,-23.177419,-38.074784)" /><linearGradient
     id="paper_gradient-4"
     x1="38.75"
     y1="30.25"
     x2="41.25"
     y2="32.75"
     xlink:href="#paper_gradient"
     gradientTransform="matrix(1.4516129,0,0,1.4516129,-23.177419,-38.074784)" /><linearGradient
     id="paper_gradient-5"
     x1="36.75"
     y1="28.25"
     x2="40.25"
     y2="31.75"
     xlink:href="#paper_gradient"
     gradientTransform="matrix(1.4516129,0,0,1.4516129,-23.177419,-38.074784)" /><linearGradient
     id="SVGID_2_"
     gradientUnits="userSpaceOnUse"
     x1="0.89824915"
     y1="9.9635115"
     x2="31.092699"
     y2="41.276901"><stop
       offset="0"
       style="stop-color:#05a6ff;stop-opacity:1"
       id="stop907" /><stop
       offset="0.181122"
       style="stop-color:#007bc0;stop-opacity:1"
       id="stop909" /><stop
       offset="0.4535192"
       style="stop-color:#1e5a9a;stop-opacity:1"
       id="stop911" /><stop
       offset="0.7792"
       style="stop-color:#153f6d;stop-opacity:1"
       id="stop913" /><stop
       offset="0.9383"
       style="stop-color:#153f6d;stop-opacity:1"
       id="stop915" /><stop
       offset="0.99"
       style="stop-color:#153f6d;stop-opacity:1"
       id="stop917" /></linearGradient><linearGradient
     inkscape:collect="always"
     xlink:href="#linearGradient2612"
     id="linearGradient2614"
     x1="14.928127"
     y1="19.41337"
     x2="30.78385"
     y2="35.344418"
     gradientUnits="userSpaceOnUse"
     gradientTransform="matrix(0.44112898,0,0,0.44112898,71.401883,-0.67064294)" /><linearGradient
     inkscape:collect="always"
     id="linearGradient2612"><stop
       style="stop-color:#9145b6;stop-opacity:1"
       offset="0"
       id="stop2608" /><stop
       style="stop-color:#401f51;stop-opacity:1"
       offset="1"
       id="stop2610" /></linearGradient><linearGradient
     inkscape:collect="always"
     xlink:href="#linearGradient2579"
     id="linearGradient2581"
     x1="101.51823"
     y1="346.70297"
     x2="310.54907"
     y2="-35.231628"
     gradientUnits="userSpaceOnUse" /><linearGradient
     inkscape:collect="always"
     id="linearGradient2579"><stop
       style="stop-color:#008000;stop-opacity:1"
       offset="0"
       id="stop2575" /><stop
       style="stop-color:#00cf00;stop-opacity:1"
       offset="1"
       id="stop2577" /></linearGradient><linearGradient
     inkscape:collect="always"
     xlink:href="#linearGradient2579"
     id="linearGradient1686"
     gradientUnits="userSpaceOnUse"
     x1="101.51823"
     y1="346.70297"
     x2="310.54907"
     y2="-35.231628" /><linearGradient
     inkscape:collect="always"
     xlink:href="#linearGradient2579"
     id="linearGradient1688"
     gradientUnits="userSpaceOnUse"
     x1="101.51823"
     y1="346.70297"
     x2="310.54907"
     y2="-35.231628" /><linearGradient
     inkscape:collect="always"
     xlink:href="#linearGradient2579"
     id="linearGradient1690"
     gradientUnits="userSpaceOnUse"
     x1="101.51823"
     y1="346.70297"
     x2="310.54907"
     y2="-35.231628" /><linearGradient
     inkscape:collect="always"
     xlink:href="#linearGradient2579"
     id="linearGradient1692"
     gradientUnits="userSpaceOnUse"
     x1="101.51823"
     y1="346.70297"
     x2="310.54907"
     y2="-35.231628" /></defs><sodipodi:namedview
   id="namedview2471"
   pagecolor="#505050"
   bordercolor="#eeeeee"
   borderopacity="1"
   inkscape:pageshadow="0"
   inkscape:pageopacity="0"
   inkscape:pagecheckerboard="0"
   showgrid="false"
   inkscape:zoom="8.770833"
   inkscape:cx="34.774348"
   inkscape:cy="11.173397"
   inkscape:window-width="3440"
   inkscape:window-height="1360"
   inkscape:window-x="-11"
   inkscape:window-y="-11"
   inkscape:window-maximized="1"
   inkscape:current-layer="g1741" />
	
		
	
	
		
	
		
		
	
<g
   id="g891"
   transform="matrix(0.09298133,0,0,0.09298133,-6.0548283,0.39374365)"><rect
     x="106.734"
     y="460.66599"
     style="fill:#bfbfbf;fill-opacity:1"
     width="298.52975"
     height="16.648001"
     id="rect887" /><rect
     x="73.438004"
     y="495.349"
     style="fill:#bfbfbf;fill-opacity:1"
     width="365.11899"
     height="16.648001"
     id="rect889" /></g><g
   id="g897"
   transform="matrix(0.09298133,0,0,0.09298133,-6.0548283,0.39374365)"><path
     style="fill:#7f7f7f;fill-opacity:1"
     d="m 154.878,410.467 -87.321,87.322 c -3.251,3.252 -3.251,8.521 0,11.772 1.625,1.625 3.756,2.437 5.886,2.437 2.13,0 4.261,-0.812 5.886,-2.437 l 87.321,-87.322 z"
     id="path893" /><path
     style="fill:#7f7f7f;fill-opacity:1"
     d="m 444.442,497.789 -87.322,-87.322 -11.771,11.772 87.322,87.322 c 1.625,1.625 3.756,2.437 5.886,2.437 2.13,0 4.261,-0.812 5.886,-2.437 3.249,-3.25 3.249,-8.52 -10e-4,-11.772 z"
     id="path895" /></g><path
   style="fill:#401f51;fill-opacity:1;stroke:#6e6e6e;stroke-width:0.787487;stroke-miterlimit:4;stroke-dasharray:none;stroke-opacity:1"
   d="m 1.0348141,36.002895 c -0.14356262,2.834258 2.0610235,5.153218 4.8989018,5.153218 H 29.562882 c 2.837878,0 5.042375,-2.318861 4.898902,-5.153218 L 17.748388,34.9709 Z"
   id="path899" /><path
   style="fill:url(#linearGradient8491);fill-opacity:1;stroke:#6e6e6e;stroke-width:0.787487;stroke-miterlimit:4;stroke-dasharray:none;stroke-opacity:1"
   d="M 32.919688,5.5469521 C 32.776126,2.7126046 30.33686,0.39374365 27.499062,0.39374365 H 7.9976255 c -2.8378782,0 -5.2772525,2.31886095 -5.4206266,5.15320845 L 1.0348141,36.002895 H 34.461695 Z"
   id="path901" /><path
   style="fill:#401f51;fill-opacity:1;stroke:#6e6e6e;stroke-width:0.495898;stroke-miterlimit:4;stroke-dasharray:none;stroke-opacity:1"
   d="M 23.940018,4.7817212 H 11.55658 c -0.427524,0 -0.773979,-0.3465437 -0.773979,-0.7739785 0,-0.4274347 0.346455,-0.7739785 0.773979,-0.7739785 h 12.383438 c 0.427534,0 0.773979,0.3465438 0.773979,0.7739785 0,0.4274348 -0.346445,0.7739785 -0.773979,0.7739785 z"
   id="path903" /><polygon
   style="fill:#9145b6;fill-opacity:1;stroke:#6e6e6e;stroke-width:7.99997;stroke-miterlimit:4;stroke-dasharray:none;stroke-opacity:1"
   points="388.438,216.582 255.999,194.385 123.561,216.582 118.818,310.265 393.181,310.265 "
   id="polygon905"
   transform="matrix(0.09298133,0,0,0.09298133,-6.0548283,0.39374365)" /><polygon
   style="fill:url(#linearGradient9091);fill-opacity:1;stroke:#6e6e6e;stroke-width:7.99997;stroke-miterlimit:4;stroke-dasharray:none;stroke-opacity:1"
   points="381.408,77.735 130.591,77.736 123.561,216.582 388.438,216.582 "
   id="polygon907"
   transform="matrix(0.09298133,0,0,0.09298133,-6.0548283,0.39374365)" /><g
   id="g913"
   transform="matrix(0.09298133,0,0,0.09298133,-6.0548283,0.39374365)"
   style="fill:#ffffff;fill-opacity:1;stroke:#6e6e6e;stroke-width:7.99997;stroke-miterlimit:4;stroke-dasharray:none;stroke-opacity:1"><path
     style="fill:#ffffff;fill-opacity:1;stroke:#6e6e6e;stroke-width:7.99997;stroke-miterlimit:4;stroke-dasharray:none;stroke-opacity:1"
     d="m 146.964,260.976 h -25.65 l -2.496,49.288 h 77.434 c 0,-27.221 -22.067,-49.288 -49.288,-49.288 z"
     id="path909" /><path
     style="fill:#ffffff;fill-opacity:1;stroke:#6e6e6e;stroke-width:7.99997;stroke-miterlimit:4;stroke-dasharray:none;stroke-opacity:1"
     d="m 390.685,260.976 h -25.65 c -27.221,0 -49.288,22.067 -49.288,49.288 h 77.434 z"
     id="path911" /></g><g
   id="g1741"
   transform="matrix(0.5555556,0,0,0.5555556,-10.050447,34.067996)"><g
     id="g3321"
     transform="translate(57.990798,-20.06923)"><path
       d="m 6.580645,9.1026348 h 34.83871 c 2.405111,4e-7 4.354838,1.9497272 4.354838,4.3548382 V 44.42103 H 2.2258066 V 13.457473 c 0,-2.405111 1.9497277,-4.354838 4.3548384,-4.3548382 z"
       stroke="#464646"
       stroke-miterlimit="10"
       fill="url(#paper_gradient)"
       id="path2432"
       style="fill:url(#linearGradient2522);stroke-width:1.45161"
       sodipodi:nodetypes="sssccss" /><line
       x1="2.9516106"
       y1="16.360699"
       x2="45.048382"
       y2="16.360699"
       fill="none"
       stroke="#6e6e6e"
       stroke-miterlimit="10"
       id="line2434"
       style="stroke-width:1.45161" /><rect
       x="9.4838686"
       y="13.457474"
       width="4.3548388"
       height="7.2580643"
       fill="#a0a0a0"
       stroke="#6e6e6e"
       stroke-miterlimit="10"
       id="rect2436"
       style="stroke-width:1.45161" /><rect
       x="10.935481"
       y="6.199409"
       width="4.3548388"
       height="2.9032259"
       stroke="#464646"
       stroke-linejoin="round"
       fill="url(#paper_gradient-2)"
       id="rect2438"
       style="fill:url(#paper_gradient-2);stroke-width:1.45161" /><rect
       x="13.838707"
       y="1.8445705"
       width="2.9032259"
       height="7.2580643"
       stroke="#464646"
       stroke-linejoin="round"
       fill="url(#paper_gradient-3)"
       id="rect2440"
       style="fill:url(#paper_gradient-3);stroke-width:1.45161" /><rect
       x="16.741934"
       y="1.8445705"
       width="14.516129"
       height="2.9032259"
       fill="#a0a0a0"
       stroke="#464646"
       stroke-miterlimit="10"
       id="rect2442"
       style="stroke-width:1.45161" /><rect
       x="32.709675"
       y="6.199409"
       width="4.3548388"
       height="2.9032259"
       stroke="#464646"
       stroke-linejoin="round"
       fill="url(#paper_gradient-4)"
       id="rect2444"
       style="fill:url(#paper_gradient-4);stroke-width:1.45161" /><rect
       x="34.161289"
       y="13.457474"
       width="4.3548388"
       height="7.2580643"
       fill="#a0a0a0"
       stroke="#6e6e6e"
       stroke-miterlimit="10"
       id="rect2446"
       style="stroke-width:1.45161" /><rect
       x="31.258064"
       y="1.8445705"
       width="2.9032259"
       height="7.2580643"
       stroke="#464646"
       stroke-linejoin="round"
       fill="url(#paper_gradient-5)"
       id="rect2448"
       style="fill:url(#paper_gradient-5);stroke-width:1.45161" /></g><path
     style="fill:url(#linearGradient2614);fill-opacity:1;stroke:#464646;stroke-width:0.441131;stroke-miterlimit:4;stroke-dasharray:none;stroke-opacity:1"
     d="m 71.901414,20.014263 c 0.325104,0.324709 0.690656,0.489283 1.08672,0.489283 0.789144,0 1.43856,-0.650158 2.066432,-1.278814 l 9.387039,-9.3944803 c 0.795057,0.4153583 1.679664,0.6330973 2.584361,0.6330973 1.484616,0 2.880463,-0.5784573 3.929304,-1.6287773 1.104175,-1.104922 1.69008,-2.649017 1.607223,-4.235822 L 91.920125,3.9103193 88.798541,7.0490117 85.486349,6.4188797 84.856606,3.102985 l 3.120847,-3.13830004 -0.673191,-0.6275223 c -0.100704,-0.0052 -0.200241,-0.00784 -0.302073,-0.00784 -1.493943,0 -2.889744,0.5740111 -3.931143,1.6157583 C 81.329334,2.6882762 80.947374,5.3116472 82.07611,7.4646717 l -9.38708,9.3937823 c -0.784304,0.785434 -1.969856,1.97208 -0.787616,3.15576 z"
     id="path863" /><g
     id="g2409"
     transform="matrix(0.10473767,0.06047031,-0.06047031,0.10473767,69.985666,-76.622782)"
     style="fill:url(#linearGradient2581);fill-opacity:1"><g
       id="g2407"
       style="fill:url(#linearGradient1692);fill-opacity:1"><g
         id="g2405"
         style="fill:url(#linearGradient1690);fill-opacity:1"><g
           id="g2403"
           style="fill:url(#linearGradient1688);fill-opacity:1"><path
             d="M 149.535,323.088 0,173.554 H 94.299 C 106.192,41.217 220.448,21.251 288.212,21.251 c 32.12,0 55.166,4.378 56.127,4.549 l -1.279,13.382 c -56.511,0 -97.049,14.745 -120.485,43.829 -26.518,32.903 -23.636,75.735 -21.647,90.537 h 98.137 z"
             id="path2401"
             style="fill:url(#linearGradient1686);fill-opacity:1" /></g></g></g></g></g></svg>
