<?xml version="1.0" encoding="UTF-8" standalone="no"?>
<svg
   version="1.1"
   id="Layer_1"
   x="0px"
   y="0px"
   viewBox="0 0 48 48"
   enable-background="new 0 0 48 48"
   xml:space="preserve"
   sodipodi:docname="typeSR5MfgColorAssy48.svg"
   inkscape:version="1.1 (c68e22c387, 2021-05-23)"
   xmlns:inkscape="http://www.inkscape.org/namespaces/inkscape"
   xmlns:sodipodi="http://sodipodi.sourceforge.net/DTD/sodipodi-0.dtd"
   xmlns:xlink="http://www.w3.org/1999/xlink"
   xmlns="http://www.w3.org/2000/svg"
   xmlns:svg="http://www.w3.org/2000/svg"><defs
   id="defs950"><linearGradient
     inkscape:collect="always"
     id="linearGradient2862"><stop
       style="stop-color:#05a6ff;stop-opacity:1"
       offset="0"
       id="stop2858" /><stop
       style="stop-color:#007bc0;stop-opacity:1"
       offset="0.14349817"
       id="stop3090" /><stop
       style="stop-color:#1e5a9a;stop-opacity:1"
       offset="0.44826007"
       id="stop3220" /><stop
       style="stop-color:#1e5a9a;stop-opacity:1"
       offset="1"
       id="stop2860" /></linearGradient><linearGradient
     inkscape:collect="always"
     xlink:href="#linearGradient2862"
     id="linearGradient2856"
     x1="5.847702"
     y1="9.3414421"
     x2="28.5"
     y2="9.3000002"
     gradientUnits="userSpaceOnUse" /></defs><sodipodi:namedview
   id="namedview948"
   pagecolor="#505050"
   bordercolor="#eeeeee"
   borderopacity="1"
   inkscape:pageshadow="0"
   inkscape:pageopacity="0"
   inkscape:pagecheckerboard="0"
   showgrid="false"
   inkscape:zoom="8.5312497"
   inkscape:cx="22.564103"
   inkscape:cy="29.538463"
   inkscape:window-width="1920"
   inkscape:window-height="1028"
   inkscape:window-x="-6"
   inkscape:window-y="-6"
   inkscape:window-maximized="1"
   inkscape:current-layer="Layer_1" />


<linearGradient
   id="SVGID_1_"
   gradientUnits="userSpaceOnUse"
   x1="23.4998"
   y1="21.5768"
   x2="33.5002"
   y2="31.5771">
	<stop
   offset="0"
   style="stop-color:#F2F2F2"
   id="stop892" />
	<stop
   offset="0.5"
   style="stop-color:#CCCCCC"
   id="stop894" />
	<stop
   offset="0.6296"
   style="stop-color:#C7C7C7"
   id="stop896" />
	<stop
   offset="0.7792"
   style="stop-color:#B9B9B9"
   id="stop898" />
	<stop
   offset="0.9383"
   style="stop-color:#A2A2A2"
   id="stop900" />
	<stop
   offset="0.99"
   style="stop-color:#999999"
   id="stop902" />
</linearGradient>

<linearGradient
   id="SVGID_2_"
   gradientUnits="userSpaceOnUse"
   x1="0.89824915"
   y1="9.9635115"
   x2="31.092699"
   y2="41.276901">
	<stop
   offset="0"
   style="stop-color:#05a6ff;stop-opacity:1"
   id="stop907" />
	<stop
   offset="0.181122"
   style="stop-color:#007bc0;stop-opacity:1"
   id="stop909" />
	<stop
   offset="0.4535192"
   style="stop-color:#1e5a9a;stop-opacity:1"
   id="stop911" />
	<stop
   offset="0.7792"
   style="stop-color:#153f6d;stop-opacity:1"
   id="stop913" />
	<stop
   offset="0.9383"
   style="stop-color:#153f6d;stop-opacity:1"
   id="stop915" />
	<stop
   offset="0.99"
   style="stop-color:#153f6d;stop-opacity:1"
   id="stop917" />
</linearGradient>

	
	

<linearGradient
   id="SVGID_3_"
   gradientUnits="userSpaceOnUse"
   x1="13.4998"
   y1="4.2828"
   x2="23.5002"
   y2="14.2831">
	<stop
   offset="0"
   style="stop-color:#FFFFFF"
   id="stop928" />
	<stop
   offset="0.2214"
   style="stop-color:#F8F8F8"
   id="stop930" />
	<stop
   offset="0.5415"
   style="stop-color:#E5E5E5"
   id="stop932" />
	<stop
   offset="0.92"
   style="stop-color:#C6C6C6"
   id="stop934" />
	<stop
   offset="1"
   style="stop-color:#BEBEBE"
   id="stop936" />
</linearGradient>




<g
   id="g22203"><polygon
     fill="#888888"
     points="38.5,38.1 38.5,26.6 28.5,32.4 28.5,43.9 "
     id="polygon888"
     style="fill:#153f6d" /><polygon
     fill="#888888"
     points="28.5,20.8 28.5,9.3 18.5,15.1 18.5,26.6 "
     id="polygon890"
     style="fill:#153f6d" /><polygon
     fill="url(#SVGID_1_)"
     points="18.5,26.6 28.5,20.8 38.5,26.6 28.5,32.4 "
     id="polygon905"
     style="fill:#1e5a9a" /><polygon
     fill="url(#SVGID_2_)"
     points="8.5,9.3 8.5,32.3 28.5,43.9 28.5,32.4 18.5,26.6 18.5,15.1 "
     id="polygon920"
     style="fill:url(#SVGID_2_)" /><line
     fill="none"
     stroke="#6e6e6e"
     stroke-linejoin="round"
     stroke-miterlimit="10"
     x1="18.5"
     y1="26.6"
     x2="8.5"
     y2="20.799999"
     id="line922" /><line
     fill="none"
     stroke="#6e6e6e"
     stroke-linejoin="round"
     stroke-miterlimit="10"
     x1="28.5"
     y1="32.400002"
     x2="28.5"
     y2="43.900002"
     id="line924" /><line
     fill="none"
     stroke="#6e6e6e"
     stroke-linejoin="round"
     stroke-miterlimit="10"
     x1="18.5"
     y1="38.099998"
     x2="18.5"
     y2="15.1"
     id="line926" /><polygon
     fill="url(#SVGID_3_)"
     points="28.5,9.3 18.5,15.1 8.5,9.3 18.5,3.5 "
     id="polygon939"
     style="fill:url(#linearGradient2856);fill-opacity:1" /><polyline
     fill="none"
     stroke="#6e6e6e"
     stroke-linejoin="round"
     stroke-miterlimit="10"
     points="28.5,9.3 18.5,15.1 8.5,9.3 "
     id="polyline941" /><polyline
     fill="none"
     stroke="#6e6e6e"
     stroke-linejoin="round"
     stroke-miterlimit="10"
     points="38.5,26.6 28.5,32.4 18.5,26.6   28.5,20.8 "
     id="polyline943" /><path
     fill="none"
     stroke="#464646"
     stroke-linejoin="round"
     stroke-miterlimit="10"
     d="m 38.5,26.6 -10,-5.8 V 9.3 l -10,-5.8 -10,5.8 v 23 l 20,11.6 10,-5.8 z"
     id="path945" /><path
     fill="#55A0B9"
     d="M 47.734044,35.5 H 35.500001 l 8.650532,8.651062 c 2.214362,-2.21383 3.583511,-5.27234 3.583511,-8.651062 z"
     id="path6147"
     style="fill:#007bc0;stroke-width:0.531915" /><path
     fill="#2882A0"
     d="m 35.500001,35.5 v 12.234041 c 3.378192,0 6.436702,-1.369149 8.650532,-3.583511 z"
     id="path6149"
     style="fill:#1e5a9a;stroke-width:0.531915" /><path
     fill="#006487"
     d="M 35.500001,47.734041 V 35.5 l -8.650532,8.65053 c 2.21383,2.214362 5.272341,3.583511 8.650532,3.583511 z"
     id="path6151"
     style="fill:#153f6d;stroke-width:0.531915" /><path
     fill="#dcdcdc"
     d="m 26.849469,44.15053 8.650532,-8.651062 H 23.265959 c 0,3.378722 1.369149,6.437233 3.58351,8.651062 z"
     id="path6153"
     style="fill:#6e6e6e;stroke-width:0.531915" /><path
     fill="#BEBEBE"
     d="M 26.849469,26.849468 C 24.63564,29.063297 23.265959,32.121808 23.265959,35.5 H 35.500001 Z"
     id="path6155"
     style="fill:#a0a0a0;stroke-width:0.531915" /><path
     fill="#969696"
     d="M 26.849469,26.849468 35.500001,35.5 V 23.265957 c -3.378191,0 -6.436702,1.369681 -8.650532,3.583511 z"
     id="path6157"
     style="fill:#bebebe;stroke-width:0.531915" /><path
     fill="#6E6E6E"
     d="m 44.150533,26.849468 c -2.21383,-2.21383 -5.27234,-3.583511 -8.650532,-3.583511 V 35.5 Z"
     id="path6159"
     style="fill:#d9d9d9;stroke-width:0.531915" /><path
     fill="#8CC3D2"
     d="M 44.150533,26.849468 35.500001,35.5 h 12.234043 c 0,-3.378192 -1.369149,-6.436703 -3.583511,-8.650532 z"
     id="path6161"
     style="fill:#05a6ff;stroke-width:0.531915" /><circle
     fill="none"
     stroke="#464646"
     stroke-miterlimit="10"
     cx="35.5"
     cy="-35.5"
     r="12.234042"
     id="circle6163"
     transform="rotate(90)"
     style="stroke-width:0.531915" /></g></svg>
