<svg version="1.1" id="Layer_1" xmlns="http://www.w3.org/2000/svg" xmlns:xlink="http://www.w3.org/1999/xlink" x="0px" y="0px"
	 viewBox="0 0 48 48" enable-background="new 0 0 48 48" xml:space="preserve">
<polygon fill="#888888" points="28.5,32.4 28.5,43.9 38.5,38.1 38.5,26.6 "/>
<polygon fill="#888888" points="18.5,15.1 18.5,26.6 28.5,20.8 28.5,9.3 "/>
<linearGradient id="SVGID_1_" gradientUnits="userSpaceOnUse" x1="23.4998" y1="21.5768" x2="33.5002" y2="31.5771">
	<stop  offset="0" style="stop-color:#F2F2F2"/>
	<stop  offset="0.5" style="stop-color:#CCCCCC"/>
	<stop  offset="0.6296" style="stop-color:#C7C7C7"/>
	<stop  offset="0.7792" style="stop-color:#B9B9B9"/>
	<stop  offset="0.9383" style="stop-color:#A2A2A2"/>
	<stop  offset="0.99" style="stop-color:#999999"/>
</linearGradient>
<polygon fill="url(#SVGID_1_)" points="38.5,26.6 28.5,32.4 18.5,26.6 28.5,20.8 "/>
<linearGradient id="SVGID_2_" gradientUnits="userSpaceOnUse" x1="3.7992" y1="13.9834" x2="31.0927" y2="41.2769">
	<stop  offset="0" style="stop-color:#F2F2F2"/>
	<stop  offset="0.5" style="stop-color:#CCCCCC"/>
	<stop  offset="0.6296" style="stop-color:#C7C7C7"/>
	<stop  offset="0.7792" style="stop-color:#B9B9B9"/>
	<stop  offset="0.9383" style="stop-color:#A2A2A2"/>
	<stop  offset="0.99" style="stop-color:#999999"/>
</linearGradient>
<polygon fill="url(#SVGID_2_)" points="18.5,26.6 18.5,26.6 18.5,26.6 18.5,15.1 8.5,9.3 8.5,32.3 28.5,43.9 28.5,32.4 "/>
	<line fill="none" stroke="#6E6E6E" stroke-linejoin="round" stroke-miterlimit="10" x1="18.5" y1="26.6" x2="8.5" y2="20.8"/>
	<line fill="none" stroke="#6E6E6E" stroke-linejoin="round" stroke-miterlimit="10" x1="28.5" y1="32.4" x2="28.5" y2="43.9"/>
<line fill="none" stroke="#6E6E6E" stroke-linejoin="round" stroke-miterlimit="10" x1="18.5" y1="38.1" x2="18.5" y2="15.1"/>
<linearGradient id="SVGID_3_" gradientUnits="userSpaceOnUse" x1="13.4998" y1="4.2828" x2="23.5002" y2="14.2831">
	<stop  offset="0" style="stop-color:#FFFFFF"/>
	<stop  offset="0.2214" style="stop-color:#F8F8F8"/>
	<stop  offset="0.5415" style="stop-color:#E5E5E5"/>
	<stop  offset="0.92" style="stop-color:#C6C6C6"/>
	<stop  offset="1" style="stop-color:#BEBEBE"/>
</linearGradient>
<polygon fill="url(#SVGID_3_)" points="8.5,9.3 18.5,3.5 28.5,9.3 18.5,15.1 "/>
<polyline fill="none" stroke="#6E6E6E" stroke-linejoin="round" stroke-miterlimit="10" points="28.5,9.3 18.5,15.1 8.5,9.3 "/>
<polyline fill="none" stroke="#6E6E6E" stroke-linejoin="round" stroke-miterlimit="10" points="38.5,26.6 28.5,32.4 18.5,26.6 
	28.5,20.8 "/>
<path fill="none" stroke="#464646" stroke-linejoin="round" stroke-miterlimit="10" d="M38.5,26.6l-10-5.8l0-11.5l-10-5.8l-10,5.8
	v23l20,11.6l10-5.8L38.5,26.6z"/>
</svg>
