<?xml version="1.0" encoding="UTF-8" standalone="no"?>
<svg
   version="1.1"
   id="Layer_1"
   x="0px"
   y="0px"
   viewBox="0 0 48 48"
   enable-background="new 0 0 48 48"
   xml:space="preserve"
   sodipodi:docname="typeSR5Tool48.svg"
   inkscape:version="1.1 (c68e22c387, 2021-05-23)"
   xmlns:inkscape="http://www.inkscape.org/namespaces/inkscape"
   xmlns:sodipodi="http://sodipodi.sourceforge.net/DTD/sodipodi-0.dtd"
   xmlns:xlink="http://www.w3.org/1999/xlink"
   xmlns="http://www.w3.org/2000/svg"
   xmlns:svg="http://www.w3.org/2000/svg"><defs
   id="defs1106"><linearGradient
     inkscape:collect="always"
     id="linearGradient2612"><stop
       style="stop-color:#a0a0a0;stop-opacity:1"
       offset="0"
       id="stop2608" /><stop
       style="stop-color:#6e6e6e;stop-opacity:1"
       offset="1"
       id="stop2610" /></linearGradient><linearGradient
     inkscape:collect="always"
     xlink:href="#linearGradient2612"
     id="linearGradient2614"
     x1="14.928127"
     y1="19.41337"
     x2="30.78385"
     y2="35.344418"
     gradientUnits="userSpaceOnUse"
     gradientTransform="matrix(0.97959184,0,0,0.97959184,0.4857503,0.48979601)" /></defs><sodipodi:namedview
   id="namedview1104"
   pagecolor="#505050"
   bordercolor="#eeeeee"
   borderopacity="1"
   inkscape:pageshadow="0"
   inkscape:pageopacity="0"
   inkscape:pagecheckerboard="0"
   showgrid="false"
   inkscape:zoom="12.403831"
   inkscape:cx="27.773677"
   inkscape:cy="23.218633"
   inkscape:window-width="1920"
   inkscape:window-height="1028"
   inkscape:window-x="-6"
   inkscape:window-y="-6"
   inkscape:window-maximized="1"
   inkscape:current-layer="Layer_1" />
	
		
	
	
		
	
		
		
	
<path
   style="fill:url(#linearGradient2614);fill-opacity:1;stroke:#464646;stroke-width:0.979592;stroke-miterlimit:4;stroke-dasharray:none;stroke-opacity:1"
   d="m 1.5950425,46.423676 c 0.7219362,0.721065 1.5336958,1.086528 2.4132245,1.086528 1.7523979,0 3.1945271,-1.443774 4.5888067,-2.839797 L 29.442373,23.808577 c 1.765541,0.922364 3.729951,1.405885 5.738951,1.405885 3.296817,0 6.396498,-1.284547 8.725608,-3.616938 2.451986,-2.453642 3.753064,-5.88253 3.569078,-9.406266 L 46.04953,10.662498 39.117599,17.632427 31.762385,16.233124 30.363954,8.8696934 37.29425,1.9006359 35.799325,0.50713 C 35.575697,0.495574 35.354674,0.489796 35.128529,0.489796 c -3.31751,0 -6.417092,1.2746751 -8.729672,3.5880283 -3.867732,3.8710229 -4.715932,9.6966047 -2.209408,14.4777107 L 3.344052,39.415818 c -1.7416646,1.744171 -4.374355,4.379291 -1.7490095,7.007829 z"
   id="path863" /></svg>
