<?xml version="1.0" encoding="UTF-8" standalone="no"?>
<svg
   version="1.1"
   id="Layer_1"
   x="0px"
   y="0px"
   viewBox="0 0 48 48"
   enable-background="new 0 0 48 48"
   xml:space="preserve"
   sodipodi:docname="typeSR5ArticleRequestForm48.svg"
   inkscape:version="1.1 (c68e22c387, 2021-05-23)"
   xmlns:inkscape="http://www.inkscape.org/namespaces/inkscape"
   xmlns:sodipodi="http://sodipodi.sourceforge.net/DTD/sodipodi-0.dtd"
   xmlns="http://www.w3.org/2000/svg"
   xmlns:svg="http://www.w3.org/2000/svg"><defs
   id="defs1100"><linearGradient
     id="SVGID_3_"
     gradientUnits="userSpaceOnUse"
     x1="12.6082"
     y1="25.053699"
     x2="22.3918"
     y2="34.837399"><stop
       offset="0"
       style="stop-color:#AFD7E1"
       id="stop5768" /><stop
       offset="0.1588"
       style="stop-color:#A4D0DC"
       id="stop5770" /><stop
       offset="0.7059"
       style="stop-color:#80BCCE"
       id="stop5772" /><stop
       offset="1"
       style="stop-color:#73B4C8"
       id="stop5774" /></linearGradient><linearGradient
     id="SVGID_4_"
     gradientUnits="userSpaceOnUse"
     x1="27.0147"
     y1="27.0147"
     x2="43.985298"
     y2="43.985298"
     gradientTransform="translate(-49.292955,-4.53723)"><stop
       offset="0"
       style="stop-color:#FFFFFF"
       id="stop5781" /><stop
       offset="0.2214"
       style="stop-color:#F8F8F8"
       id="stop5783" /><stop
       offset="0.5415"
       style="stop-color:#E5E5E5"
       id="stop5785" /><stop
       offset="0.92"
       style="stop-color:#C6C6C6"
       id="stop5787" /><stop
       offset="1"
       style="stop-color:#BEBEBE"
       id="stop5789" /></linearGradient></defs><sodipodi:namedview
   id="namedview1098"
   pagecolor="#505050"
   bordercolor="#eeeeee"
   borderopacity="1"
   inkscape:pageshadow="0"
   inkscape:pageopacity="0"
   inkscape:pagecheckerboard="0"
   showgrid="false"
   inkscape:zoom="12.860505"
   inkscape:cx="21.072268"
   inkscape:cy="21.383298"
   inkscape:window-width="3440"
   inkscape:window-height="1360"
   inkscape:window-x="-11"
   inkscape:window-y="-11"
   inkscape:window-maximized="1"
   inkscape:current-layer="Layer_1" />
<linearGradient
   id="SVGID_1_"
   gradientUnits="userSpaceOnUse"
   x1="-0.5"
   y1="-438.5"
   x2="41"
   y2="-480"
   gradientTransform="matrix(1,0,0,-1,0,-432)">
	<stop
   offset="0"
   style="stop-color:#FFFFFF"
   id="stop1065" />
	<stop
   offset="0.2323"
   style="stop-color:#FAFAFA"
   id="stop1067" />
	<stop
   offset="0.4964"
   style="stop-color:#EDEDED"
   id="stop1069" />
	<stop
   offset="0.775"
   style="stop-color:#D6D6D6"
   id="stop1071" />
	<stop
   offset="1"
   style="stop-color:#BEBEBE"
   id="stop1073" />
</linearGradient>

<linearGradient
   id="SVGID_2_"
   gradientUnits="userSpaceOnUse"
   x1="25.25"
   y1="-435.75"
   x2="38.25"
   y2="-448.75"
   gradientTransform="matrix(1,0,0,-1,0,-432)">
	<stop
   offset="0"
   style="stop-color:#FFFFFF"
   id="stop1078" />
	<stop
   offset="0.2214"
   style="stop-color:#F8F8F8"
   id="stop1080" />
	<stop
   offset="0.5415"
   style="stop-color:#E5E5E5"
   id="stop1082" />
	<stop
   offset="0.92"
   style="stop-color:#C6C6C6"
   id="stop1084" />
	<stop
   offset="1"
   style="stop-color:#BEBEBE"
   id="stop1086" />
</linearGradient>



<g
   id="g1281"
   transform="translate(-5)"><polygon
     fill="url(#SVGID_1_)"
     stroke="#464646"
     stroke-miterlimit="10"
     points="5.5,0.5 5.5,47.5 41.5,47.5 41.5,13.5 28.5,0.5 "
     id="polygon1076"
     style="fill:url(#SVGID_1_)" /><polygon
     fill="url(#SVGID_2_)"
     stroke="#464646"
     stroke-linejoin="round"
     stroke-miterlimit="10"
     points="28.5,13.5 41.5,13.5 28.5,0.5 "
     id="polygon1089"
     style="fill:url(#SVGID_2_)" /><rect
     x="9.5"
     y="18.5"
     fill="none"
     stroke="#5a5a5a"
     width="28"
     height="5"
     id="rect1091" /><rect
     x="9.5"
     y="28.5"
     fill="none"
     stroke="#5a5a5a"
     width="28"
     height="5"
     id="rect1093" /><rect
     x="9.5"
     y="38.5"
     fill="none"
     stroke="#5a5a5a"
     width="28"
     height="5"
     id="rect1095" /></g>
<g
   id="g1274"
   transform="matrix(0.71531996,0,0,0.71819554,48.924877,16.785232)"><g
     id="g23997"
     transform="matrix(1.0571429,0,0,1.0571429,-43.792956,-5.1022592)"><polygon
       fill="#888888"
       points="17.5,20.2 34.5,10.3 34.5,29.9 17.5,39.7 "
       id="polygon2"
       style="fill:#7bac00"
       transform="translate(0,3.1371888)" /><polygon
       fill="url(#SVGID_1_)"
       points="0.5,10.3 17.5,0.5 34.5,10.3 17.5,20.2 "
       id="polygon15"
       style="fill:#a0e100"
       transform="translate(0,3.1371888)" /><polygon
       fill="url(#SVGID_2_)"
       points="17.5,20.2 17.5,39.7 0.5,29.9 0.5,10.3 "
       id="polygon30"
       style="fill:#a0e100"
       transform="translate(0,3.1371888)" /><polyline
       fill="none"
       stroke="#6e6e6e"
       stroke-linejoin="round"
       stroke-miterlimit="10"
       points="34.5,10.3 17.5,20.2 0.5,10.3 "
       id="polyline32"
       transform="translate(0,3.1371888)" /><line
       fill="url(#SVGID_3_)"
       stroke="#6e6e6e"
       stroke-linejoin="round"
       stroke-miterlimit="10"
       x1="17.5"
       y1="23.337189"
       x2="17.5"
       y2="42.837189"
       id="line43"
       style="fill:url(#SVGID_3_)" /><polygon
       fill="none"
       stroke="#464646"
       stroke-linejoin="round"
       stroke-miterlimit="10"
       points="0.5,29.9 17.5,39.7 34.5,29.9 34.5,10.3 17.5,0.5 0.5,10.3 "
       id="polygon45"
       transform="translate(0,3.1371888)" /></g><circle
     fill="url(#SVGID_4_)"
     stroke="#464646"
     stroke-miterlimit="10"
     cx="-13.792955"
     cy="30.96277"
     r="12"
     id="circle5792"
     style="fill:url(#SVGID_4_)" /><path
     fill="#5A5A5A"
     d="m -9.492955,33.86277 c 0,-2.6 -3,-3.5 -4,-3.8 -2.1,-0.7 -2.5,-1.2 -2.5,-1.9 0,-0.5 0.2,-0.9 0.6,-1.3 0.4,-0.4 1,-0.6 1.6,-0.6 0,0 0,0 0,0 0.8,0 1.6,0.4 2,1 0.3,0.5 0.9,0.6 1.4,0.3 0.5,-0.3 0.6,-0.9 0.3,-1.4 -0.7,-1 -1.9,-1.7 -3.2,-1.9 v -1.8 h -1 v 2 c -0.9,0.1 -1.7,0.5 -2.4,1 -0.8,0.7 -1.3,1.7 -1.3,2.8 0,2.6 2.8,3.4 4,3.8 2.3,0.7 2.5,1.4 2.5,1.9 0,0.5 -0.2,0.9 -0.6,1.3 -0.4,0.4 -1,0.6 -1.6,0.6 0,0 0,0 0,0 -0.9,0 -2.2,-0.6 -3,-1.3 -0.4,-0.4 -1,-0.3 -1.4,0.1 -0.4,0.4 -0.3,1 0.1,1.4 1,0.9 2.5,1.6 3.8,1.7 v 1.7 h 1 v -1.8 c 1,-0.1 1.8,-0.4 2.5,-1 0.8,-0.7 1.2,-1.7 1.2,-2.8 z"
     id="path5794"
     style="fill:#464646;fill-opacity:1" /></g></svg>
