<?xml version="1.0" encoding="UTF-8" standalone="no"?>
<svg
   id="Layer_1"
   data-name="Layer 1"
   viewBox="0 0 48 48"
   version="1.1"
   sodipodi:docname="typeMSWord48.svg"
   inkscape:version="1.1 (c68e22c387, 2021-05-23)"
   xmlns:inkscape="http://www.inkscape.org/namespaces/inkscape"
   xmlns:sodipodi="http://sodipodi.sourceforge.net/DTD/sodipodi-0.dtd"
   xmlns="http://www.w3.org/2000/svg"
   xmlns:svg="http://www.w3.org/2000/svg">
  <defs
     id="defs950">
    <linearGradient
       id="SVGID_1_"
       gradientUnits="userSpaceOnUse"
       x1="13.4997"
       y1="2.0655"
       x2="33.500301"
       y2="22.0662">
      <stop
         offset="0"
         style="stop-color:#EBEBEB"
         id="stop13861" />
      <stop
         offset="0.2214"
         style="stop-color:#E8E8E8"
         id="stop13863" />
      <stop
         offset="0.5419"
         style="stop-color:#E1E1E1"
         id="stop13865" />
      <stop
         offset="0.9212"
         style="stop-color:#D5D5D5"
         id="stop13867" />
      <stop
         offset="1"
         style="stop-color:#D2D2D2"
         id="stop13869" />
    </linearGradient>
    <linearGradient
       id="SVGID_2_"
       gradientUnits="userSpaceOnUse"
       x1="-0.14669999"
       y1="15.7119"
       x2="27.1467"
       y2="43.005299">
      <stop
         offset="0"
         style="stop-color:#E1E1E1"
         id="stop13874" />
      <stop
         offset="0.1588"
         style="stop-color:#DCDCDC"
         id="stop13876" />
      <stop
         offset="0.7059"
         style="stop-color:#CECECE"
         id="stop13878" />
      <stop
         offset="1"
         style="stop-color:#C8C8C8"
         id="stop13880" />
    </linearGradient>
    <linearGradient
       id="SVGID_3_"
       gradientUnits="userSpaceOnUse"
       x1="17.7449"
       y1="29.3867"
       x2="29.2551"
       y2="40.8969">
      <stop
         offset="0"
         style="stop-color:#E1E1E1"
         id="stop13887" />
      <stop
         offset="0.1588"
         style="stop-color:#DCDCDC"
         id="stop13889" />
      <stop
         offset="0.7059"
         style="stop-color:#CECECE"
         id="stop13891" />
      <stop
         offset="1"
         style="stop-color:#C8C8C8"
         id="stop13893" />
    </linearGradient>
    <linearGradient
       id="SVGID_4_"
       gradientUnits="userSpaceOnUse"
       x1="20.047001"
       y1="27.062401"
       x2="26.952999"
       y2="33.968498">
      <stop
         offset="0"
         style="stop-color:#E1E1E1"
         id="stop13902" />
      <stop
         offset="0.1588"
         style="stop-color:#DCDCDC"
         id="stop13904" />
      <stop
         offset="0.7059"
         style="stop-color:#CECECE"
         id="stop13906" />
      <stop
         offset="1"
         style="stop-color:#C8C8C8"
         id="stop13908" />
    </linearGradient>
    <linearGradient
       id="a"
       x1="4.494"
       y1="-2092.086"
       x2="13.832"
       y2="-2075.914"
       gradientTransform="translate(0,2100)"
       gradientUnits="userSpaceOnUse">
      <stop
         offset="0"
         stop-color="#18884f"
         id="stop865" />
      <stop
         offset="0.5"
         stop-color="#117e43"
         id="stop867" />
      <stop
         offset="1"
         stop-color="#0b6631"
         id="stop869" />
    </linearGradient>
    <linearGradient
       id="a-8"
       x1="4.494"
       y1="-1712.086"
       x2="13.832"
       y2="-1695.914"
       gradientTransform="translate(0,1720)"
       gradientUnits="userSpaceOnUse">
      <stop
         offset="0"
         stop-color="#2368c4"
         id="stop7398" />
      <stop
         offset="0.5"
         stop-color="#1a5dbe"
         id="stop7400" />
      <stop
         offset="1"
         stop-color="#1146ac"
         id="stop7402" />
    </linearGradient>
  </defs>
  <sodipodi:namedview
     id="namedview948"
     pagecolor="#505050"
     bordercolor="#eeeeee"
     borderopacity="1"
     inkscape:pageshadow="0"
     inkscape:pageopacity="0"
     inkscape:pagecheckerboard="0"
     showgrid="false"
     inkscape:zoom="8.5416667"
     inkscape:cx="25.112195"
     inkscape:cy="20.253658"
     inkscape:window-width="1920"
     inkscape:window-height="1028"
     inkscape:window-x="-6"
     inkscape:window-y="-6"
     inkscape:window-maximized="1"
     inkscape:current-layer="layer1" />
  <linearGradient
     id="linear-gradient"
     x1="3.5"
     y1="41.5"
     x2="45"
     gradientTransform="matrix(1, 0, 0, -1, 0, 48)"
     gradientUnits="userSpaceOnUse">
    <stop
       offset="0"
       stop-color="#fff"
       id="stop888" />
    <stop
       offset="0.232"
       stop-color="#fafafa"
       id="stop890" />
    <stop
       offset="0.496"
       stop-color="#ededed"
       id="stop892" />
    <stop
       offset="0.775"
       stop-color="#d6d6d6"
       id="stop894" />
    <stop
       offset="1"
       stop-color="#bebebe"
       id="stop896" />
  </linearGradient>
  <linearGradient
     id="paper_gradient"
     data-name="paper gradient"
     x1="29.375"
     y1="43.875"
     x2="41.875"
     y2="31.375"
     gradientTransform="matrix(1, 0, 0, -1, 0, 48)"
     gradientUnits="userSpaceOnUse">
    <stop
       offset="0"
       stop-color="#fff"
       id="stop899" />
    <stop
       offset="0.221"
       stop-color="#f8f8f8"
       id="stop901" />
    <stop
       offset="0.541"
       stop-color="#e5e5e5"
       id="stop903" />
    <stop
       offset="0.92"
       stop-color="#c6c6c6"
       id="stop905" />
    <stop
       offset="1"
       stop-color="#bebebe"
       id="stop907" />
  </linearGradient>
  <linearGradient
     id="linear-gradient-2"
     x1="0.52171928"
     y1="11.245197"
     x2="29.682405"
     y2="11.245197"
     gradientUnits="userSpaceOnUse"
     gradientTransform="matrix(1.0036901,0,0,0.79449322,-0.05535178,-0.03667202)">
    <stop
       offset="0"
       stop-color="#73b4c8"
       id="stop910"
       style="stop-color:#41a5ee;stop-opacity:1" />
    <stop
       offset="1"
       stop-color="#147391"
       id="stop918"
       style="stop-color:#1249ae;stop-opacity:1" />
  </linearGradient>
  <polygon
     points="32.5 0.5 9.5 0.5 9.5 47.5 45.5 47.5 45.5 13.5 32.5 0.5"
     stroke="#464646"
     stroke-miterlimit="10"
     fill="url(#linear-gradient)"
     id="polygon921" />
  <polyline
     points="32.5 1 32.5 13.5 45 13.5"
     stroke="#464646"
     stroke-miterlimit="10"
     fill="url(#paper_gradient)"
     id="polyline923" />
  <rect
     x="0.44649327"
     y="2.744055"
     width="29.107014"
     height="12.711891"
     stroke="#464646"
     stroke-miterlimit="10"
     fill="url(#linear-gradient-2)"
     id="rect925"
     style="fill:url(#linear-gradient-2);stroke-width:0.892987;fill-opacity:1" />
  <g
     inkscape:groupmode="layer"
     id="layer1"
     inkscape:label="Layer 1"
     style="display:inline">
    <text
       xml:space="preserve"
       style="font-style:normal;font-weight:normal;font-size:7.90629px;line-height:1.25;font-family:sans-serif;fill:#ffffff;fill-opacity:1;stroke:none;stroke-width:0.197658"
       x="2.2391398"
       y="11.974138"
       id="text11155"><tspan
         sodipodi:role="line"
         id="tspan11153"
         x="2.2391398"
         y="11.974138"
         style="fill:#ffffff;fill-opacity:1;stroke-width:0.197658">WORD</tspan></text>
    <g
       id="g7447"
       transform="translate(11.5,15.500002)">
      <path
         d="M 28.806,3 H 9.705 A 1.192,1.192 0 0 0 8.512,4.191 v 0 V 9.5 L 19.581,12.75 30,9.5 V 4.191 A 1.192,1.192 0 0 0 28.806,3 Z"
         style="fill:#41a5ee"
         id="path7409" />
      <path
         d="M 30,9.5 H 8.512 V 16 L 19.581,17.95 30,16 Z"
         style="fill:#2b7cd3"
         id="path7411" />
      <path
         d="m 8.512,16 v 6.5 L 18.93,23.8 30,22.5 V 16 Z"
         style="fill:#185abd"
         id="path7413" />
      <path
         d="m 9.705,29 h 19.1 A 1.192,1.192 0 0 0 30,27.809 v 0 V 22.5 H 8.512 v 5.309 A 1.192,1.192 0 0 0 9.705,29 Z"
         style="fill:#103f91"
         id="path7415" />
      <path
         d="M 16.434,8.2 H 8.512 v 16.25 h 7.922 a 1.2,1.2 0 0 0 1.194,-1.191 V 9.391 A 1.2,1.2 0 0 0 16.434,8.2 Z"
         style="opacity:0.1;isolation:isolate"
         id="path7417" />
      <path
         d="M 15.783,8.85 H 8.512 V 25.1 h 7.271 a 1.2,1.2 0 0 0 1.194,-1.191 V 10.041 A 1.2,1.2 0 0 0 15.783,8.85 Z"
         style="opacity:0.2;isolation:isolate"
         id="path7419" />
      <path
         d="M 15.783,8.85 H 8.512 V 23.8 h 7.271 a 1.2,1.2 0 0 0 1.194,-1.191 V 10.041 A 1.2,1.2 0 0 0 15.783,8.85 Z"
         style="opacity:0.2;isolation:isolate"
         id="path7421" />
      <path
         d="M 15.132,8.85 H 8.512 V 23.8 h 6.62 a 1.2,1.2 0 0 0 1.194,-1.191 V 10.041 A 1.2,1.2 0 0 0 15.132,8.85 Z"
         style="opacity:0.2;isolation:isolate"
         id="path7423" />
      <path
         d="m 3.194,8.85 h 11.938 a 1.193,1.193 0 0 1 1.194,1.191 V 21.959 A 1.193,1.193 0 0 1 15.132,23.15 H 3.194 A 1.192,1.192 0 0 1 2,21.959 V 10.041 A 1.192,1.192 0 0 1 3.194,8.85 Z"
         style="fill:url(#a-8)"
         id="path7425" />
      <path
         d="m 6.9,17.988 c 0.023,0.184 0.039,0.344 0.046,0.481 h 0.028 c 0.01,-0.13 0.032,-0.287 0.065,-0.47 0.033,-0.183 0.062,-0.338 0.089,-0.465 l 1.255,-5.407 h 1.624 l 1.3,5.326 a 7.761,7.761 0 0 1 0.162,1 h 0.022 a 7.6,7.6 0 0 1 0.135,-0.975 l 1.039,-5.358 h 1.477 l -1.824,7.748 H 10.591 L 9.354,14.742 Q 9.3,14.52 9.232,14.164 9.164,13.808 9.148,13.644 H 9.127 q -0.021,0.189 -0.084,0.561 c -0.042,0.249 -0.075,0.432 -0.1,0.552 L 7.78,19.871 H 6.024 L 4.19,12.127 h 1.5 l 1.131,5.418 A 4.469,4.469 0 0 1 6.9,17.988 Z"
         style="fill:#ffffff"
         id="path7427" />
    </g>
  </g>
</svg>
