<?xml version="1.0" encoding="UTF-8" standalone="no"?>
<svg
   version="1.1"
   id="Layer_1"
   x="0px"
   y="0px"
   viewBox="0 0 82 16"
   enable-background="new 0 0 82 16"
   xml:space="preserve"
   sodipodi:docname="miscSiemensLogo24.svg"
   inkscape:version="1.2.1 (9c6d41e410, 2022-07-14)"
   xmlns:inkscape="http://www.inkscape.org/namespaces/inkscape"
   xmlns:sodipodi="http://sodipodi.sourceforge.net/DTD/sodipodi-0.dtd"
   xmlns="http://www.w3.org/2000/svg"
   xmlns:svg="http://www.w3.org/2000/svg"><defs
   id="defs994" /><sodipodi:namedview
   id="namedview992"
   pagecolor="#505050"
   bordercolor="#eeeeee"
   borderopacity="1"
   inkscape:pageshadow="0"
   inkscape:pageopacity="0"
   inkscape:pagecheckerboard="0"
   showgrid="false"
   inkscape:zoom="16"
   inkscape:cx="52.0625"
   inkscape:cy="5.59375"
   inkscape:window-width="1561"
   inkscape:window-height="1077"
   inkscape:window-x="793"
   inkscape:window-y="49"
   inkscape:window-maximized="0"
   inkscape:current-layer="g7834"
   inkscape:showpageshadow="2"
   inkscape:deskcolor="#505050" />
	
	
	
	
	
	
	
<g
   id="g7834"
   transform="matrix(0.24032045,0,0,0.24032045,19.718308,1.9563798)"
   style="fill:#ffffff;fill-opacity:1"><g
     id="g1210"
     transform="matrix(0.71475454,0,0,0.71475454,65.289259,-6.4658852)"
     style="fill:#ffffff;fill-opacity:1"><g
       id="g855"
       transform="translate(-205.84866,-1.2402826)"
       style="fill:#ffffff;fill-opacity:1"><path
         class="st0"
         d="m 0,29.7 h 15.4 c 0,0 0.7,3.2 4.8,2.9 h 28.5 c 0,0 2.6,0.2 2.6,-2.5 0,-2.9 -2.5,-2.6 -2.5,-2.6 H 15.3 C 9.8,27.5 1.4,23.9 1.4,13 1.4,13 2.3,0.1 13.8,0.1 h 37.5 c 0,0 13.6,-0.2 14.8,14.1 H 51.2 c 0,0 -0.7,-2.6 -2.9,-2.6 H 18.9 c 0,0 -2.8,0.1 -2.8,2.5 0,0 -0.3,2.5 2.6,2.5 H 51 c 0,0 14.9,-0.4 15.3,13.8 0,0 0.8,13.8 -15.3,13.8 H 14.8 C 14.8,44.2 0,44.3 0,29.7"
         id="path853"
         style="fill:#ffffff;fill-opacity:1" /></g><polygon
       class="st0"
       points="135,0.1 69.4,0.1 69.4,11.7 94.8,11.7 94.8,44.2 110.2,44.2 110.2,11.7 135,11.7 "
       id="polygon857"
       style="fill:#ffffff;fill-opacity:1"
       transform="translate(-205.84866,-1.2402826)" /><polygon
       class="st0"
       points="278.6,44.2 333.1,44.2 333.1,32.6 293.9,32.6 293.9,0 278.6,0 "
       id="polygon859"
       style="fill:#ffffff;fill-opacity:1"
       transform="translate(-205.84866,-1.2402826)" /><polygon
       class="st0"
       points="355.3,32.6 355.3,27.3 398.9,27.3 398.9,16.7 355.1,16.7 355.1,11.7 402.4,11.7 402.4,0.1 339.8,0 339.8,44.3 342.5,44.3 402.4,44.2 402.4,32.6 "
       id="polygon861"
       style="fill:#ffffff;fill-opacity:1"
       transform="translate(-205.84866,-1.2402826)" /><g
       id="g865"
       transform="translate(-205.84866,-1.2402826)"
       style="fill:#ffffff;fill-opacity:1"><path
         class="st0"
         d="m 475.6,37 c 0.2,-2.8 -0.2,-6.7 -1.8,-9 -2.3,-3.4 -5.2,-4.5 -5.2,-4.5 10.6,-4.5 6.2,-15.3 6.2,-15.3 -2.3,-7.4 -12.9,-8.1 -15,-8.1 h -48.4 v 44.1 h 15.5 V 30.6 c 0,0 23.3,0 28.4,0 5.4,0 5.4,5.5 5.4,5.5 -0.1,7.9 0.9,8.1 0.9,8.1 h 15.2 c -1.2,-1.3 -1.4,-4.4 -1.2,-7.2 M 458,19.2 426.9,19.1 v -6.8 l 30.8,0.1 c 0,0 3.4,0.1 3.2,3.4 -0.1,0.1 0.1,3.4 -2.9,3.4"
         id="path863"
         style="fill:#ffffff;fill-opacity:1" /></g><g
       id="g871"
       transform="translate(-205.84866,-1.2402826)"
       style="fill:#ffffff;fill-opacity:1"><path
         class="st0"
         d="m 254.4,0.1 h -50.7 v 44.1 h 50.4 c 5.8,0 19.6,-4 19.6,-22.1 0,-18.7 -14.3,-22 -19.3,-22 m -5.2,32.5 H 219 v -21 h 30.7 c 0,0 8.1,0 8.1,11 0,10.2 -8.6,10 -8.6,10"
         id="path867"
         style="fill:#ffffff;fill-opacity:1" /><path
         class="st0"
         d="m 172.4,0.1 h -19.6 l -29.2,44.1 h 17.6 l 4.9,-6.6 h 32.8 l 4.6,6.6 H 201 Z m -18.8,26.5 9,-13.9 9.2,13.9 z"
         id="path869"
         style="fill:#ffffff;fill-opacity:1" /></g></g><text
     xml:space="preserve"
     style="font-style:normal;font-variant:normal;font-weight:bold;font-stretch:normal;font-size:33.2889px;font-family:Calibri;-inkscape-font-specification:'Calibri Bold';fill:#000000;stroke-width:4.16111"
     x="9.4943724"
     y="88.345039"
     id="text329"><tspan
       sodipodi:role="line"
       id="tspan327"
       style="font-style:normal;font-variant:normal;font-weight:bold;font-stretch:normal;font-size:33.2889px;font-family:Calibri;-inkscape-font-specification:'Calibri Bold';stroke-width:4.16111"
       x="9.4943724"
       y="88.345039" /></text><text
     xml:space="preserve"
     style="font-style:normal;font-variant:normal;font-weight:bold;font-stretch:normal;font-size:33.2889px;font-family:Arial;-inkscape-font-specification:'Arial Bold';fill:#000000;stroke-width:4.16111"
     x="21.457565"
     y="44.913448"
     id="text333"><tspan
       sodipodi:role="line"
       id="tspan331"
       style="stroke-width:4.16111;-inkscape-font-specification:'Arial Bold';font-family:Arial;font-weight:bold;font-style:normal;font-stretch:normal;font-variant:normal"
       x="21.457565"
       y="44.913448" /></text><text
     xml:space="preserve"
     style="font-style:normal;font-variant:normal;font-weight:bold;font-stretch:normal;font-size:33.2889px;font-family:Bahnschrift;-inkscape-font-specification:'Bahnschrift Bold';fill:#000000;stroke-width:4.16111"
     x="79.554604"
     y="57.136715"
     id="text337"><tspan
       sodipodi:role="line"
       id="tspan335"
       style="font-style:normal;font-variant:normal;font-weight:bold;font-stretch:normal;font-family:System-ui;-inkscape-font-specification:'System-ui Bold';fill:#ffffff;stroke-width:4.16111"
       x="79.554604"
       y="57.136715" /></text></g></svg>
