<?xml version="1.0" encoding="UTF-8" standalone="no"?>
<svg
   id="Layer_1"
   data-name="Layer 1"
   viewBox="0 0 16 16"
   version="1.1"
   sodipodi:docname="indicatorReleasedSR5Obsolete16.svg"
   inkscape:version="1.1 (c68e22c387, 2021-05-23)"
   xmlns:inkscape="http://www.inkscape.org/namespaces/inkscape"
   xmlns:sodipodi="http://sodipodi.sourceforge.net/DTD/sodipodi-0.dtd"
   xmlns="http://www.w3.org/2000/svg"
   xmlns:svg="http://www.w3.org/2000/svg">
  <defs
     id="defs3115" />
  <sodipodi:namedview
     id="namedview3113"
     pagecolor="#505050"
     bordercolor="#eeeeee"
     borderopacity="1"
     inkscape:pageshadow="0"
     inkscape:pageopacity="0"
     inkscape:pagecheckerboard="0"
     showgrid="false"
     inkscape:zoom="26.3125"
     inkscape:cx="9.064133"
     inkscape:cy="7.9429929"
     inkscape:window-width="1920"
     inkscape:window-height="1028"
     inkscape:window-x="-6"
     inkscape:window-y="-6"
     inkscape:window-maximized="1"
     inkscape:current-layer="Layer_1" />
  <path
     d="M15.726.772C13.271-.47,10.838.109,8.354.869l-.5.153C5.48,1.757,3.231,2.435,1,1.446V0H0V16H1V13.54a6.827,6.827,0,0,0,2.38.414,16.428,16.428,0,0,0,4.772-.976l.494-.153c2.369-.723,4.5-1.237,6.628-.16a.5.5,0,0,0,.488-.02A.5.5,0,0,0,16,12.219v-11A.5.5,0,0,0,15.726.772Z"
     fill="#464646"
     id="path3106"
     style="fill:#c00000" />
  <path
     d="M1,12.465c2.231.988,4.48.292,6.856-.443l.5-.153c2.239-.685,4.437-1.223,6.646-.412V1.535c-2.035-.9-4.086-.4-6.354.29l-.494.153C5.828,2.7,3.434,3.439,1,2.543Z"
     fill="#879baa"
     id="path3108"
     style="fill:#e17171" />
  <path
     d="M8,3a4,4,0,1,0,4,4A4,4,0,0,0,8,3ZM8,4a2.98,2.98,0,0,1,1.733.56L5.56,8.733A2.97,2.97,0,0,1,5,7,3,3,0,0,1,8,4Zm0,6a2.97,2.97,0,0,1-1.733-.56L10.44,5.267A2.991,2.991,0,0,1,8,10Z"
     fill="#fff"
     id="path3110"
     style="fill:#c00000" />
  <path
     d="M 12,6.9999995 A 4,4 0 1 0 8.0000001,11 4,4 0 0 0 12,6.9999995 Z m -1,0 A 2.98,2.98 0 0 1 10.44,8.7329998 L 6.2670001,4.5599997 a 2.97,2.97 0 0 1 1.733,-0.56 A 3,3 0 0 1 11,6.9999995 Z m -5.9999999,0 a 2.97,2.97 0 0 1 0.56,-1.7329998 l 4.173,4.1730001 a 2.991,2.991 0 0 1 -4.733,-2.4400003 z"
     fill="#fff"
     id="path3492-1"
     style="fill:#c00000" />
  <g
     id="g3424"
     transform="translate(15.354726,4.751261)">
    <rect
       style="fill:#ffffff;stroke:#464646;stroke-width:1.1409;stroke-opacity:1"
       id="rect956-2"
       width="12.083141"
       height="9.803133"
       x="-12.008317"
       y="0.87515599" />
    <text
       xml:space="preserve"
       style="font-style:normal;font-variant:normal;font-weight:normal;font-stretch:normal;font-size:9.04269px;line-height:1.25;font-family:'Segoe UI';-inkscape-font-specification:'Segoe UI';fill:#464646;fill-opacity:1;stroke:none;stroke-width:0.565168"
       x="-11.033386"
       y="8.942544"
       id="text1392-2"><tspan
         sodipodi:role="line"
         id="tspan1390-7"
         x="-11.033386"
         y="8.942544"
         style="font-style:normal;font-variant:normal;font-weight:600;font-stretch:normal;font-size:9.04269px;font-family:'Segoe UI';-inkscape-font-specification:'Segoe UI Semi-Bold';fill:#464646;fill-opacity:1;stroke-width:0.565168">90</tspan></text>
  </g>
</svg>
