<?xml version="1.0" encoding="UTF-8" standalone="no"?>
<svg
   id="Layer_1"
   data-name="Layer 1"
   viewBox="0 0 16 16"
   version="1.1"
   sodipodi:docname="indicatorReleasedSR5Frozen16.svg"
   inkscape:version="1.1 (c68e22c387, 2021-05-23)"
   xmlns:inkscape="http://www.inkscape.org/namespaces/inkscape"
   xmlns:sodipodi="http://sodipodi.sourceforge.net/DTD/sodipodi-0.dtd"
   xmlns="http://www.w3.org/2000/svg"
   xmlns:svg="http://www.w3.org/2000/svg">
  <defs
     id="defs2473" />
  <sodipodi:namedview
     id="namedview2471"
     pagecolor="#505050"
     bordercolor="#eeeeee"
     borderopacity="1"
     inkscape:pageshadow="0"
     inkscape:pageopacity="0"
     inkscape:pagecheckerboard="0"
     showgrid="false"
     inkscape:zoom="13.15625"
     inkscape:cx="2.6223278"
     inkscape:cy="-2.0522565"
     inkscape:window-width="1920"
     inkscape:window-height="1028"
     inkscape:window-x="-6"
     inkscape:window-y="-6"
     inkscape:window-maximized="1"
     inkscape:current-layer="Layer_1" />
  <g
     id="g3055"
     transform="matrix(-0.03124994,0,0,-0.03124994,16,16)">
    <path
       style="fill:#05a6ff"
       d="m 512,256 c 0,-9.217 -7.479,-16.696 -16.696,-16.696 h -26.478 l 32.718,-32.718 c 6.521,-6.521 6.521,-17.087 0,-23.609 -6.521,-6.522 -17.087,-6.521 -23.609,0 l -56.327,56.327 h -83.813 c -2.168,-10.642 -6.39,-20.536 -12.197,-29.295 l 59.303,-59.303 h 79.663 c 9.217,0 16.696,-7.479 16.696,-16.696 0,-9.217 -7.479,-16.696 -16.696,-16.696 h -46.271 l 18.728,-18.728 c 6.521,-6.521 6.521,-17.087 0,-23.609 -6.521,-6.522 -17.087,-6.521 -23.609,0 l -18.727,18.728 v -46.27 c 0,-9.217 -7.479,-16.696 -16.696,-16.696 -9.217,0 -16.696,7.479 -16.696,16.696 v 79.663 L 301.991,186.4 c -8.759,-5.807 -18.652,-10.027 -29.295,-12.197 V 90.391 l 56.326,-56.326 c 6.521,-6.521 6.521,-17.087 0,-23.609 -6.521,-6.522 -17.087,-6.521 -23.609,0 L 272.696,43.173 V 16.696 C 272.696,7.479 265.217,0 256,0 246.783,0 239.304,7.479 239.304,16.696 V 43.174 L 206.586,10.457 c -6.521,-6.521 -17.087,-6.521 -23.609,0 -6.522,6.521 -6.521,17.087 0,23.609 l 56.327,56.326 v 83.813 c -10.642,2.168 -20.536,6.39 -29.295,12.197 L 150.706,127.099 V 47.435 c 0,-9.217 -7.479,-16.696 -16.696,-16.696 -9.217,0 -16.696,7.479 -16.696,16.696 V 93.706 L 98.587,74.978 c -6.521,-6.521 -17.087,-6.521 -23.609,0 -6.522,6.521 -6.521,17.087 0,23.609 l 18.728,18.728 H 47.435 c -9.217,0 -16.696,7.479 -16.696,16.696 0,9.217 7.479,16.696 16.696,16.696 h 79.663 l 59.303,59.303 c -5.807,8.759 -10.027,18.652 -12.197,29.295 H 90.391 L 34.065,182.979 c -6.521,-6.521 -17.087,-6.521 -23.609,0 -6.522,6.521 -6.521,17.087 0,23.609 l 32.717,32.717 H 16.696 C 7.479,239.304 0,246.783 0,256 c 0,9.217 7.479,16.696 16.696,16.696 h 26.478 l -32.717,32.718 c -6.521,6.521 -6.521,17.087 0,23.609 3.26,3.26 7.532,4.891 11.804,4.891 4.272,0 8.544,-1.631 11.804,-4.892 l 56.327,-56.326 h 83.813 c 2.168,10.642 6.39,20.536 12.197,29.295 l -59.303,59.303 H 47.435 c -9.217,0 -16.696,7.479 -16.696,16.696 0,9.217 7.479,16.696 16.696,16.696 h 46.271 l -18.728,18.728 c -6.521,6.521 -6.521,17.087 0,23.609 3.261,3.261 7.533,4.892 11.804,4.892 4.271,0 8.544,-1.631 11.804,-4.892 l 18.728,-18.728 v 46.271 c 0,9.217 7.479,16.696 16.696,16.696 9.217,0 16.696,-7.479 16.696,-16.696 V 384.903 L 210.009,325.6 c 8.759,5.807 18.652,10.027 29.295,12.197 v 83.813 l -56.326,56.326 c -6.521,6.521 -6.521,17.087 0,23.609 6.521,6.522 17.087,6.521 23.609,0 l 32.718,-32.718 v 26.478 c 0,9.217 7.479,16.696 16.696,16.696 9.217,0 16.696,-7.479 16.696,-16.696 v -26.478 l 32.718,32.718 c 3.261,3.261 7.533,4.892 11.804,4.892 4.271,0 8.544,-1.631 11.804,-4.892 6.521,-6.521 6.521,-17.087 0,-23.609 l -56.326,-56.327 v -83.813 c 10.642,-2.168 20.536,-6.39 29.295,-12.197 l 59.303,59.303 v 79.663 c 0,9.217 7.479,16.696 16.696,16.696 9.217,0 16.696,-7.479 16.696,-16.696 v -46.271 l 18.728,18.728 c 3.261,3.261 7.533,4.892 11.804,4.892 4.271,0 8.544,-1.631 11.804,-4.892 6.521,-6.521 6.521,-17.087 0,-23.609 l -18.727,-18.727 h 46.271 c 9.217,0 16.696,-7.479 16.696,-16.696 0,-9.217 -7.479,-16.696 -16.696,-16.696 H 384.904 L 325.6,301.991 c 5.807,-8.759 10.027,-18.652 12.197,-29.295 h 83.813 l 56.326,56.326 c 3.261,3.261 7.533,4.892 11.804,4.892 4.271,0 8.544,-1.631 11.804,-4.892 6.521,-6.521 6.521,-17.087 0,-23.609 l -32.717,-32.717 h 26.478 C 504.521,272.696 512,265.217 512,256 Z m -256,50.087 c -27.619,0 -50.087,-22.468 -50.087,-50.087 0,-27.619 22.468,-50.087 50.087,-50.087 27.619,0 50.087,22.468 50.087,50.087 0,27.619 -22.468,50.087 -50.087,50.087 z"
       id="path863" />
    <path
       style="fill:#007bc0"
       d="m 306.087,256 c 0,27.619 -22.468,50.087 -50.087,50.087 V 512 c 9.217,0 16.696,-7.479 16.696,-16.696 v -26.478 l 32.718,32.718 c 3.261,3.261 7.533,4.892 11.804,4.892 4.271,0 8.544,-1.631 11.804,-4.892 6.521,-6.521 6.521,-17.087 0,-23.609 l -56.326,-56.327 v -83.813 c 10.642,-2.168 20.536,-6.39 29.295,-12.197 l 59.303,59.303 v 79.663 c 0,9.217 7.479,16.696 16.696,16.696 9.217,0 16.696,-7.479 16.696,-16.696 v -46.271 l 18.728,18.728 c 3.261,3.261 7.533,4.892 11.804,4.892 4.271,0 8.544,-1.631 11.804,-4.892 6.521,-6.521 6.521,-17.087 0,-23.609 l -18.727,-18.727 h 46.271 c 9.217,0 16.696,-7.479 16.696,-16.696 0,-9.217 -7.479,-16.696 -16.696,-16.696 H 384.903 L 325.6,301.991 c 5.807,-8.759 10.027,-18.652 12.197,-29.295 h 83.813 l 56.326,56.326 c 3.261,3.261 7.533,4.892 11.804,4.892 4.271,0 8.544,-1.631 11.804,-4.892 6.521,-6.521 6.521,-17.087 0,-23.609 l -32.717,-32.717 h 26.478 c 9.217,0 16.696,-7.479 16.696,-16.696 0,-9.217 -7.479,-16.696 -16.696,-16.696 h -26.478 l 32.718,-32.718 c 6.521,-6.521 6.521,-17.087 0,-23.609 -6.521,-6.522 -17.087,-6.521 -23.609,0 l -56.327,56.327 h -83.813 c -2.168,-10.642 -6.39,-20.536 -12.197,-29.295 l 59.303,-59.303 h 79.663 c 9.217,0 16.696,-7.479 16.696,-16.696 0,-9.217 -7.479,-16.696 -16.696,-16.696 h -46.271 l 18.728,-18.728 c 6.521,-6.521 6.521,-17.087 0,-23.609 -6.521,-6.522 -17.087,-6.521 -23.609,0 l -18.727,18.728 v -46.27 c 0,-9.217 -7.479,-16.696 -16.696,-16.696 -9.217,0 -16.696,7.479 -16.696,16.696 v 79.663 L 301.991,186.4 c -8.759,-5.807 -18.652,-10.027 -29.295,-12.197 V 90.391 l 56.326,-56.326 c 6.521,-6.521 6.521,-17.087 0,-23.609 -6.521,-6.522 -17.087,-6.521 -23.609,0 L 272.696,43.173 V 16.696 C 272.696,7.479 265.217,0 256,0 v 205.913 c 27.619,0 50.087,22.468 50.087,50.087 z"
       id="path865" />
  </g>
  <g
     id="g11325"
     transform="translate(2.2430863,-8.512397)">
    <rect
       style="fill:#ffffff;stroke:#464646;stroke-width:1.1409;stroke-opacity:1"
       id="rect956-2"
       width="12.083141"
       height="9.803133"
       x="1.1033224"
       y="14.138814" />
    <text
       xml:space="preserve"
       style="font-style:normal;font-variant:normal;font-weight:normal;font-stretch:normal;font-size:9.04269px;line-height:1.25;font-family:'Segoe UI';-inkscape-font-specification:'Segoe UI';fill:#464646;fill-opacity:1;stroke:none;stroke-width:0.565168"
       x="2.0782523"
       y="22.206202"
       id="text1392-2"><tspan
         sodipodi:role="line"
         id="tspan1390-7"
         x="2.0782523"
         y="22.206202"
         style="font-style:normal;font-variant:normal;font-weight:600;font-stretch:normal;font-size:9.04269px;font-family:'Segoe UI';-inkscape-font-specification:'Segoe UI Semi-Bold';fill:#464646;fill-opacity:1;stroke-width:0.565168">20</tspan></text>
  </g>
</svg>
