<?xml version="1.0" encoding="UTF-8" standalone="no"?>
<svg
   id="Layer_1"
   data-name="Layer 1"
   viewBox="0 0 16 16"
   version="1.1"
   sodipodi:docname="indicatorReleasedSR5ProdRelease16.svg"
   inkscape:version="1.1 (c68e22c387, 2021-05-23)"
   xmlns:inkscape="http://www.inkscape.org/namespaces/inkscape"
   xmlns:sodipodi="http://sodipodi.sourceforge.net/DTD/sodipodi-0.dtd"
   xmlns="http://www.w3.org/2000/svg"
   xmlns:svg="http://www.w3.org/2000/svg">
  <defs
     id="defs2473" />
  <sodipodi:namedview
     id="namedview2471"
     pagecolor="#505050"
     bordercolor="#eeeeee"
     borderopacity="1"
     inkscape:pageshadow="0"
     inkscape:pageopacity="0"
     inkscape:pagecheckerboard="0"
     showgrid="false"
     inkscape:zoom="26.3125"
     inkscape:cx="4.2375297"
     inkscape:cy="7.9429929"
     inkscape:window-width="1920"
     inkscape:window-height="1028"
     inkscape:window-x="-6"
     inkscape:window-y="-6"
     inkscape:window-maximized="1"
     inkscape:current-layer="Layer_1" />
  <path
     d="M8.5,6.347v5c2.333-.713,4.667-1.31,7-.128v-5C13.167,5.037,10.833,5.634,8.5,6.347Z"
     fill="#000000"
     id="path2458"
     style="fill:#1e5a9a" />
  <path
     d="M8.5,1.347v5c2.333-.713,4.667-1.31,7-.128v-5C13.167.037,10.833.634,8.5,1.347Z"
     fill="#f0f0f0"
     id="path2460"
     style="fill:#05a6ff" />
  <path
     d="M8.5,1.347c-2.667.815-5.333,1.784-8,.434v5c2.667,1.35,5.333.382,8-.434Z"
     fill="#000000"
     id="path2462"
     style="fill:#1e5a9a" />
  <path
     d="M8.5,6.347c-2.667.815-5.333,1.784-8,.434v5c2.667,1.35,5.333.382,8-.434Z"
     fill="#f0f0f0"
     id="path2464"
     style="fill:#05a6ff" />
  <path
     d="M15.726.773c-2.682-1.357-5.321-.541-7.874.25C5.478,1.757,3.23,2.434,1,1.446V0H0V16H1V12.54a6.819,6.819,0,0,0,2.378.414,16.417,16.417,0,0,0,4.77-.976c2.472-.764,4.808-1.486,7.126-.312A.5.5,0,0,0,16,11.219v-10A.5.5,0,0,0,15.726.773ZM15,10.457c-2.432-.894-4.825-.152-7.148.566-2.374.735-4.622,1.43-6.852.442V2.543c2.431.894,4.825.152,7.148-.566C10.522,1.244,12.771.547,15,1.535Z"
     class="aw-theme-iconOutline"
     fill="#464646"
     id="path2466"
     style="fill:#153f6d" />
  <path
     d="M9,5.68V1.717c-.282.084-.566.172-.852.26L8,2.023V5.978l-.145.045C5.48,6.758,3.231,7.435,1,6.446V7.54a6.824,6.824,0,0,0,2.38.414A15.892,15.892,0,0,0,8,7.024v3.953q.5-.154,1-.3V6.721c2.126-.634,4.07-1.026,6-.171V5.465A9.4,9.4,0,0,0,9,5.68Z"
     class="aw-theme-iconOutline"
     fill="#464646"
     id="path2468"
     style="fill:#153f6d" />
  <g
     id="g1040"
     transform="translate(-0.64527482,-11.248739)">
    <rect
       style="fill:#ffffff;stroke:#464646;stroke-width:1.1409;stroke-opacity:1"
       id="rect956-2"
       width="12.083141"
       height="9.803133"
       x="3.9916835"
       y="16.875156" />
    <text
       xml:space="preserve"
       style="font-style:normal;font-variant:normal;font-weight:normal;font-stretch:normal;font-size:9.04269px;line-height:1.25;font-family:'Segoe UI';-inkscape-font-specification:'Segoe UI';fill:#464646;fill-opacity:1;stroke:none;stroke-width:0.565168"
       x="4.9666133"
       y="24.942543"
       id="text1392-2"><tspan
         sodipodi:role="line"
         id="tspan1390-7"
         x="4.9666133"
         y="24.942543"
         style="font-style:normal;font-variant:normal;font-weight:600;font-stretch:normal;font-size:9.04269px;font-family:'Segoe UI';-inkscape-font-specification:'Segoe UI Semi-Bold';fill:#464646;fill-opacity:1;stroke-width:0.565168">50</tspan></text>
  </g>
</svg>
