<?xml version="1.0" encoding="UTF-8" standalone="no"?>
<svg
   version="1.1"
   id="Layer_1"
   x="0px"
   y="0px"
   viewBox="0 0 82 16"
   enable-background="new 0 0 82 16"
   xml:space="preserve"
   sodipodi:docname="miscSiemensLogo24.svg"
   inkscape:version="1.1 (c68e22c387, 2021-05-23)"
   xmlns:inkscape="http://www.inkscape.org/namespaces/inkscape"
   xmlns:sodipodi="http://sodipodi.sourceforge.net/DTD/sodipodi-0.dtd"
   xmlns="http://www.w3.org/2000/svg"
   xmlns:svg="http://www.w3.org/2000/svg"><defs
   id="defs994" /><sodipodi:namedview
   id="namedview992"
   pagecolor="#505050"
   bordercolor="#eeeeee"
   borderopacity="1"
   inkscape:pageshadow="0"
   inkscape:pageopacity="0"
   inkscape:pagecheckerboard="0"
   showgrid="false"
   inkscape:zoom="16"
   inkscape:cx="52.0625"
   inkscape:cy="5.625"
   inkscape:window-width="3440"
   inkscape:window-height="1360"
   inkscape:window-x="-11"
   inkscape:window-y="-11"
   inkscape:window-maximized="1"
   inkscape:current-layer="text337"
   inkscape:showpageshadow="2"
   inkscape:deskcolor="#505050" />
	
	
	
	
	
	
	
<g
   id="g7834"
   transform="matrix(0.24032045,0,0,0.24032045,19.718308,1.9563798)"
   style="fill:#ffffff;fill-opacity:1"><g
     id="g1210"
     transform="matrix(0.71475454,0,0,0.71475454,65.289259,-6.4658852)"
     style="fill:#ffffff;fill-opacity:1"><g
       id="g855"
       transform="translate(-205.84866,-1.2402826)"
       style="fill:#ffffff;fill-opacity:1"><path
         class="st0"
         d="m 0,29.7 h 15.4 c 0,0 0.7,3.2 4.8,2.9 h 28.5 c 0,0 2.6,0.2 2.6,-2.5 0,-2.9 -2.5,-2.6 -2.5,-2.6 H 15.3 C 9.8,27.5 1.4,23.9 1.4,13 1.4,13 2.3,0.1 13.8,0.1 h 37.5 c 0,0 13.6,-0.2 14.8,14.1 H 51.2 c 0,0 -0.7,-2.6 -2.9,-2.6 H 18.9 c 0,0 -2.8,0.1 -2.8,2.5 0,0 -0.3,2.5 2.6,2.5 H 51 c 0,0 14.9,-0.4 15.3,13.8 0,0 0.8,13.8 -15.3,13.8 H 14.8 C 14.8,44.2 0,44.3 0,29.7"
         id="path853"
         style="fill:#ffffff;fill-opacity:1" /></g><polygon
       class="st0"
       points="135,0.1 69.4,0.1 69.4,11.7 94.8,11.7 94.8,44.2 110.2,44.2 110.2,11.7 135,11.7 "
       id="polygon857"
       style="fill:#ffffff;fill-opacity:1"
       transform="translate(-205.84866,-1.2402826)" /><polygon
       class="st0"
       points="278.6,44.2 333.1,44.2 333.1,32.6 293.9,32.6 293.9,0 278.6,0 "
       id="polygon859"
       style="fill:#ffffff;fill-opacity:1"
       transform="translate(-205.84866,-1.2402826)" /><polygon
       class="st0"
       points="355.3,32.6 355.3,27.3 398.9,27.3 398.9,16.7 355.1,16.7 355.1,11.7 402.4,11.7 402.4,0.1 339.8,0 339.8,44.3 342.5,44.3 402.4,44.2 402.4,32.6 "
       id="polygon861"
       style="fill:#ffffff;fill-opacity:1"
       transform="translate(-205.84866,-1.2402826)" /><g
       id="g865"
       transform="translate(-205.84866,-1.2402826)"
       style="fill:#ffffff;fill-opacity:1"><path
         class="st0"
         d="m 475.6,37 c 0.2,-2.8 -0.2,-6.7 -1.8,-9 -2.3,-3.4 -5.2,-4.5 -5.2,-4.5 10.6,-4.5 6.2,-15.3 6.2,-15.3 -2.3,-7.4 -12.9,-8.1 -15,-8.1 h -48.4 v 44.1 h 15.5 V 30.6 c 0,0 23.3,0 28.4,0 5.4,0 5.4,5.5 5.4,5.5 -0.1,7.9 0.9,8.1 0.9,8.1 h 15.2 c -1.2,-1.3 -1.4,-4.4 -1.2,-7.2 M 458,19.2 426.9,19.1 v -6.8 l 30.8,0.1 c 0,0 3.4,0.1 3.2,3.4 -0.1,0.1 0.1,3.4 -2.9,3.4"
         id="path863"
         style="fill:#ffffff;fill-opacity:1" /></g><g
       id="g871"
       transform="translate(-205.84866,-1.2402826)"
       style="fill:#ffffff;fill-opacity:1"><path
         class="st0"
         d="m 254.4,0.1 h -50.7 v 44.1 h 50.4 c 5.8,0 19.6,-4 19.6,-22.1 0,-18.7 -14.3,-22 -19.3,-22 m -5.2,32.5 H 219 v -21 h 30.7 c 0,0 8.1,0 8.1,11 0,10.2 -8.6,10 -8.6,10"
         id="path867"
         style="fill:#ffffff;fill-opacity:1" /><path
         class="st0"
         d="m 172.4,0.1 h -19.6 l -29.2,44.1 h 17.6 l 4.9,-6.6 h 32.8 l 4.6,6.6 H 201 Z m -18.8,26.5 9,-13.9 9.2,13.9 z"
         id="path869"
         style="fill:#ffffff;fill-opacity:1" /></g></g><text
     xml:space="preserve"
     style="font-style:normal;font-variant:normal;font-weight:bold;font-stretch:normal;font-size:33.2889px;font-family:Calibri;-inkscape-font-specification:'Calibri Bold';fill:#000000;stroke-width:4.16111"
     x="9.4943724"
     y="88.345039"
     id="text329"><tspan
       sodipodi:role="line"
       id="tspan327"
       style="font-style:normal;font-variant:normal;font-weight:bold;font-stretch:normal;font-size:33.2889px;font-family:Calibri;-inkscape-font-specification:'Calibri Bold';stroke-width:4.16111"
       x="9.4943724"
       y="88.345039" /></text><text
     xml:space="preserve"
     style="font-style:normal;font-variant:normal;font-weight:bold;font-stretch:normal;font-size:33.2889px;font-family:Arial;-inkscape-font-specification:'Arial Bold';fill:#000000;stroke-width:4.16111"
     x="21.457565"
     y="44.913448"
     id="text333"><tspan
       sodipodi:role="line"
       id="tspan331"
       style="stroke-width:4.16111;-inkscape-font-specification:'Arial Bold';font-family:Arial;font-weight:bold;font-style:normal;font-stretch:normal;font-variant:normal"
       x="21.457565"
       y="44.913448" /></text><g
     aria-label="TRAINING"
     id="text337"
     style="font-weight:bold;font-size:33.2889px;font-family:Bahnschrift;-inkscape-font-specification:'Bahnschrift Bold';fill:#000000;stroke-width:4.16111"><path
       d="m 117.73202,38.102877 h -6.64803 v 19.033838 h -5.26641 V 38.102877 h -6.615514 v -4.274893 h 18.529954 z"
       style="font-family:System-ui;-inkscape-font-specification:'System-ui Bold';fill:#ffffff"
       id="path1440" /><path
       d="m 140.42309,57.136715 h -6.03037 L 130.768,51.138862 q -0.40635,-0.682683 -0.7802,-1.219076 -0.37385,-0.536394 -0.76396,-0.910244 -0.37385,-0.390104 -0.79646,-0.585156 -0.40636,-0.211306 -0.89399,-0.211306 h -1.41413 v 8.923635 h -5.25015 V 33.827984 h 8.32222 q 8.48477,0 8.48477,6.339195 0,1.219076 -0.37385,2.259354 -0.37385,1.024023 -1.05653,1.852995 -0.68268,0.828972 -1.65794,1.430382 -0.95901,0.601411 -2.14558,0.942752 v 0.06502 q 0.52014,0.162543 1.00777,0.536393 0.48763,0.357596 0.94275,0.845226 0.45513,0.48763 0.86148,1.056533 0.42262,0.552647 0.76396,1.089041 z M 126.11926,37.761536 v 6.485483 h 2.27561 q 1.69045,0 2.71448,-0.97526 1.04027,-0.991515 1.04027,-2.454406 0,-3.055817 -3.65722,-3.055817 z"
       style="font-family:System-ui;-inkscape-font-specification:'System-ui Bold';fill:#ffffff"
       id="path1442" /><path
       d="m 163.0979,57.136715 h -5.72153 l -1.65795,-5.185136 h -8.28971 l -1.64169,5.185136 H 140.098 l 8.48477,-23.308731 h 6.22541 z m -8.5823,-9.216214 -2.50317,-7.834594 q -0.27632,-0.877735 -0.3901,-2.09681 h -0.13004 q -0.0813,1.024023 -0.40635,2.031793 l -2.53568,7.899611 z"
       style="font-family:System-ui;-inkscape-font-specification:'System-ui Bold';fill:#ffffff"
       id="path1444" /><path
       d="m 171.25758,57.136715 h -5.25015 V 33.827984 h 5.25015 z"
       style="font-family:System-ui;-inkscape-font-specification:'System-ui Bold';fill:#ffffff"
       id="path1446" /><path
       d="m 197.5246,57.136715 h -5.29891 L 182.61937,42.49155 q -0.84523,-1.284093 -1.17031,-1.934267 h -0.065 q 0.13003,1.23533 0.13003,3.771008 V 57.136715 H 176.5565 V 33.827984 h 5.65651 l 9.24872,14.190043 q 0.63392,0.959007 1.17031,1.901759 h 0.065 q -0.13003,-0.812717 -0.13003,-3.202106 V 33.827984 h 4.95757 z"
       style="font-family:System-ui;-inkscape-font-specification:'System-ui Bold';fill:#ffffff"
       id="path1448" /><path
       d="m 208.10618,57.136715 h -5.25015 V 33.827984 h 5.25015 z"
       style="font-family:System-ui;-inkscape-font-specification:'System-ui Bold';fill:#ffffff"
       id="path1450" /><path
       d="m 234.3732,57.136715 h -5.29892 L 219.46796,42.49155 q -0.84522,-1.284093 -1.17031,-1.934267 h -0.065 q 0.13004,1.23533 0.13004,3.771008 v 12.808424 h -4.95758 V 33.827984 h 5.65651 l 9.24873,14.190043 q 0.63392,0.959007 1.17031,1.901759 h 0.065 q -0.13004,-0.812717 -0.13004,-3.202106 V 33.827984 h 4.95758 z"
       style="font-family:System-ui;-inkscape-font-specification:'System-ui Bold';fill:#ffffff"
       id="path1452" /><path
       d="m 258.83599,55.576298 q -3.41342,1.966776 -8.48477,1.966776 -5.624,0 -8.87487,-3.10458 -3.23462,-3.120835 -3.23462,-8.582294 0,-5.493969 3.54345,-8.956145 3.54345,-3.462175 9.42752,-3.462175 3.70599,0 6.53425,1.024024 v 4.925066 q -2.69823,-1.560417 -6.59927,-1.560417 -3.26712,0 -5.33142,2.129319 -2.04805,2.113065 -2.04805,5.656512 0,3.592211 1.83674,5.558986 1.853,1.966776 4.99008,1.966776 1.88551,0 2.9908,-0.536393 v -4.551217 h -4.66499 v -4.193621 h 9.91515 z"
       style="font-family:System-ui;-inkscape-font-specification:'System-ui Bold';fill:#ffffff"
       id="path1454" /></g></g></svg>
