<?xml version="1.0" encoding="UTF-8" standalone="no"?>
<!-- Created with Inkscape (http://www.inkscape.org/) -->

<svg
   width="360"
   height="152"
   viewBox="0 0 95.249998 40.216668"
   version="1.1"
   id="svg5"
   inkscape:version="1.2.1 (9c6d41e410, 2022-07-14)"
   sodipodi:docname="splashScreenLogo.svg"
   inkscape:export-filename="logo.jpg"
   inkscape:export-xdpi="96"
   inkscape:export-ydpi="96"
   xmlns:inkscape="http://www.inkscape.org/namespaces/inkscape"
   xmlns:sodipodi="http://sodipodi.sourceforge.net/DTD/sodipodi-0.dtd"
   xmlns="http://www.w3.org/2000/svg"
   xmlns:svg="http://www.w3.org/2000/svg">
  <sodipodi:namedview
     id="namedview7"
     pagecolor="#505050"
     bordercolor="#eeeeee"
     borderopacity="1"
     inkscape:pageshadow="0"
     inkscape:pageopacity="0"
     inkscape:pagecheckerboard="0"
     inkscape:document-units="mm"
     showgrid="false"
     units="px"
     inkscape:zoom="3.3332155"
     inkscape:cx="-41.401464"
     inkscape:cy="23.700838"
     inkscape:window-width="2250"
     inkscape:window-height="1132"
     inkscape:window-x="294"
     inkscape:window-y="34"
     inkscape:window-maximized="0"
     inkscape:current-layer="layer1"
     inkscape:showpageshadow="2"
     inkscape:deskcolor="#505050" />
  <defs
     id="defs2" />
  <g
     inkscape:label="Layer 1"
     inkscape:groupmode="layer"
     id="layer1">
    <rect
       style="fill:#ffffff;fill-opacity:1;stroke:none;stroke-width:17.5968;stroke-linejoin:round"
       id="rect846"
       width="95.25"
       height="40.216667"
       x="-1.0658141e-14"
       y="-2.5431316e-07" />
    <g
       id="g1210"
       transform="matrix(0.18740102,0,0,0.18740102,41.524846,16.189831)"
       style="fill:#1f5b9b;fill-opacity:1">
      <g
         id="g855"
         transform="translate(-205.84866,-1.2402826)"
         style="fill:#1f5b9b;fill-opacity:1">
        <path
           class="st0"
           d="m 0,29.7 h 15.4 c 0,0 0.7,3.2 4.8,2.9 h 28.5 c 0,0 2.6,0.2 2.6,-2.5 0,-2.9 -2.5,-2.6 -2.5,-2.6 H 15.3 C 9.8,27.5 1.4,23.9 1.4,13 1.4,13 2.3,0.1 13.8,0.1 h 37.5 c 0,0 13.6,-0.2 14.8,14.1 H 51.2 c 0,0 -0.7,-2.6 -2.9,-2.6 H 18.9 c 0,0 -2.8,0.1 -2.8,2.5 0,0 -0.3,2.5 2.6,2.5 H 51 c 0,0 14.9,-0.4 15.3,13.8 0,0 0.8,13.8 -15.3,13.8 H 14.8 C 14.8,44.2 0,44.3 0,29.7"
           id="path853"
           style="fill:#1f5b9b;fill-opacity:1" />
      </g>
      <polygon
         class="st0"
         points="69.4,11.7 94.8,11.7 94.8,44.2 110.2,44.2 110.2,11.7 135,11.7 135,0.1 69.4,0.1 "
         id="polygon857"
         style="fill:#1f5b9b;fill-opacity:1"
         transform="translate(-205.84866,-1.2402826)" />
      <polygon
         class="st0"
         points="293.9,0 278.6,0 278.6,44.2 333.1,44.2 333.1,32.6 293.9,32.6 "
         id="polygon859"
         style="fill:#1f5b9b;fill-opacity:1"
         transform="translate(-205.84866,-1.2402826)" />
      <polygon
         class="st0"
         points="402.4,32.6 355.3,32.6 355.3,27.3 398.9,27.3 398.9,16.7 355.1,16.7 355.1,11.7 402.4,11.7 402.4,0.1 339.8,0 339.8,44.3 342.5,44.3 402.4,44.2 "
         id="polygon861"
         style="fill:#1f5b9b;fill-opacity:1"
         transform="translate(-205.84866,-1.2402826)" />
      <g
         id="g865"
         transform="translate(-205.84866,-1.2402826)"
         style="fill:#1f5b9b;fill-opacity:1">
        <path
           class="st0"
           d="m 475.6,37 c 0.2,-2.8 -0.2,-6.7 -1.8,-9 -2.3,-3.4 -5.2,-4.5 -5.2,-4.5 10.6,-4.5 6.2,-15.3 6.2,-15.3 -2.3,-7.4 -12.9,-8.1 -15,-8.1 h -48.4 v 44.1 h 15.5 V 30.6 c 0,0 23.3,0 28.4,0 5.4,0 5.4,5.5 5.4,5.5 -0.1,7.9 0.9,8.1 0.9,8.1 h 15.2 c -1.2,-1.3 -1.4,-4.4 -1.2,-7.2 M 458,19.2 426.9,19.1 v -6.8 l 30.8,0.1 c 0,0 3.4,0.1 3.2,3.4 -0.1,0.1 0.1,3.4 -2.9,3.4"
           id="path863"
           style="fill:#1f5b9b;fill-opacity:1" />
      </g>
      <g
         id="g871"
         transform="translate(-205.84866,-1.2402826)"
         style="fill:#1f5b9b;fill-opacity:1">
        <path
           class="st0"
           d="m 254.4,0.1 h -50.7 v 44.1 h 50.4 c 5.8,0 19.6,-4 19.6,-22.1 0,-18.7 -14.3,-22 -19.3,-22 m -5.2,32.5 H 219 v -21 h 30.7 c 0,0 8.1,0 8.1,11 0,10.2 -8.6,10 -8.6,10"
           id="path867"
           style="fill:#1f5b9b;fill-opacity:1" />
        <path
           class="st0"
           d="m 172.4,0.1 h -19.6 l -29.2,44.1 h 17.6 l 4.9,-6.6 h 32.8 l 4.6,6.6 H 201 Z m -18.8,26.5 9,-13.9 9.2,13.9 z"
           id="path869"
           style="fill:#1f5b9b;fill-opacity:1" />
      </g>
    </g>
    <text
       xml:space="preserve"
       style="font-style:normal;font-variant:normal;font-weight:bold;font-stretch:normal;font-size:8.10554px;line-height:1.25;font-family:sans-serif;-inkscape-font-specification:'sans-serif Bold';fill:#aa0044;fill-opacity:1;stroke:none;stroke-width:0.202639"
       x="53.169857"
       y="32.901054"
       id="text9085"><tspan
         sodipodi:role="line"
         id="tspan9083"
         style="font-style:normal;font-variant:normal;font-weight:bold;font-stretch:normal;font-family:Arial;-inkscape-font-specification:'Arial Bold';fill:#aa0044;stroke-width:0.202639"
         x="53.169857"
         y="32.901054">TRAINING</tspan></text>
  </g>
</svg>
